{
.appVersion = "895";
classes = (
{

glyphs = (
{
glyphname = uni10CA0.ltr;
layers = (
{
layerId = "1726D991-AB6C-46C4-B949-411F6BDA7822";
paths = (
{
closed = 1;
nodes = (
"517 34 LINE",
"217 321 LINE",
"217 475 LINE",
"462 237 LINE",
"517 292 LINE",
"217 581 LINE",
"217 735 LINE",
"462 497 LINE",
"517 552 LINE",
"208 849 LINE",
"127 849 LINE",
"127 0 LINE",
"217 0 LINE",
"217 216 LINE",
"462 -21 LINE"
);
}
);
vertWidth = 0;
width = 578;
}
);
note = "";
},
{
glyphname = uni10CCD_10CD0.ltr;
layers = (
{
layerId = "1726D991-AB6C-46C4-B949-411F6BDA7822";
paths = (
{
closed = 1;
nodes = (
"93 0 LINE",
"182 225 LINE",
"265 0 LINE",
"352 0 LINE",
"224 330 LINE",
"240 371 LINE SMOOTH",
"259 420 OFFCURVE",
"272 463 OFFCURVE",
"280 496 CURVE",
"284 496 LINE",
"292 461 OFFCURVE",
"303 429 OFFCURVE",
"326 371 CURVE SMOOTH",
"344 325 LINE",
"287 338 LINE",
"275 270 LINE",
"375 248 LINE",
"473 0 LINE",
"560 0 LINE",
"468 227 LINE",
"550 209 LINE",
"563 276 LINE",
"437 304 LINE",
"318 600 LINE",
"247 600 LINE",
"4 0 LINE"
);
}
);
vertWidth = 0;
width = 625;
}
);
leftKerningGroup = uni10CE4;
rightKerningGroup = uni10CE4;
note = "";
},
{
glyphname = uni10CD6_10CC9.ltr;
layers = (
{
layerId = "1726D991-AB6C-46C4-B949-411F6BDA7822";
paths = (
{
closed = 1;
nodes = (
"592 17 LINE",
"621 1 OFFCURVE",
"652 -13 OFFCURVE",
"686 -24 CURVE",
"716 42 LINE",
"689 51 OFFCURVE",
"663 63 OFFCURVE",
"640 76 CURVE",
"691 140 LINE",
"633 185 LINE",
"580 119 LINE",
"539 154 OFFCURVE",
"506 199 OFFCURVE",
"481 255 CURVE SMOOTH",
"454 315 OFFCURVE",
"433 384 OFFCURVE",
"429 453 CURVE",
"516 414 LINE",
"553 477 LINE",
"432 531 LINE",
"435 555 OFFCURVE",
"440 578 OFFCURVE",
"449 600 CURVE",
"362 600 LINE",
"344 570 LINE",
"249 613 LINE",
"218 547 LINE",
"307 507 LINE",
"4 0 LINE",
"106 0 LINE",
"165 98 LINE",
"210 0 LINE",
"295 0 LINE",
"210 172 LINE",
"249 238 LINE",
"367 0 LINE",
"454 0 LINE",
"296 315 LINE",
"317 350 LINE SMOOTH",
"331 374 OFFCURVE",
"345 401 OFFCURVE",
"356 426 CURVE",
"358 368 OFFCURVE",
"372 303 OFFCURVE",
"407 226 CURVE SMOOTH",
"438 158 OFFCURVE",
"479 103 OFFCURVE",
"531 59 CURVE",
"482 -2 LINE",
"536 -53 LINE"
);
}
);
vertWidth = 0;
width = 748;
}
);
leftKerningGroup = ge;
rightKerningGroup = uni10CE4;
note = "";
},
{
glyphname = uni10CA4;
layers = (
{
layerId = "1726D991-AB6C-46C4-B949-411F6BDA7822";
paths = (
{
closed = 1;
nodes = (
"108 0 LINE",
"299 546 LINE SMOOTH",
"324 616 OFFCURVE",
"347 682 OFFCURVE",
"360 736 CURVE",
"364 736 LINE",
"377 682 OFFCURVE",
"400 616 OFFCURVE",
"424 548 CURVE SMOOTH",
"617 0 LINE",
"712 0 LINE",
"411 849 LINE",
"320 849 LINE",
"13 0 LINE"
);
}
);
vertWidth = 0;
width = 724;
}
);
note = "";
unicode = 10CA4;
},
{
glyphname = uni10CC4.ltr;
layers = (
{
layerId = "1726D991-AB6C-46C4-B949-411F6BDA7822";
paths = (
{
closed = 1;
nodes = (
"267 0 LINE",
"267 488 LINE",
"394 376 LINE",
"443 434 LINE",
"252 600 LINE",
"195 600 LINE",
"4 434 LINE",
"53 376 LINE",
"180 488 LINE",
"180 0 LINE"
);
}
);
vertWidth = 0;
width = 447;
}
);
rightKerningGroup = uni10CC4;
note = "";
},
{
glyphname = uni10CC0_10CD6.ltr;
layers = (
{
layerId = "1726D991-AB6C-46C4-B949-411F6BDA7822";
paths = (
{
closed = 1;
nodes = (
"180 0 LINE",
"231 117 LINE",
"276 0 LINE",
"360 0 LINE",
"273 212 LINE",
"314 305 LINE",
"442 0 LINE",
"526 0 LINE",
"355 399 LINE",
"370 437 OFFCURVE",
"383 472 OFFCURVE",
"391 498 CURVE",
"395 498 LINE",
"405 466 OFFCURVE",
"419 428 OFFCURVE",
"444 371 CURVE SMOOTH",
"609 0 LINE",
"694 0 LINE",
"429 600 LINE",
"323 600 LINE",
"65 505 LINE",
"24 417 LINE",
"219 285 LINE",
"92 0 LINE"
);
},
{
closed = 1;
nodes = (
"120 441 LINE",
"321 516 LINE",
"249 355 LINE"
);
}
);
vertWidth = 0;
width = 699;
}
);
leftKerningGroup = uni10CE4;
note = "";
},
{
glyphname = uni10CDB.ltr;
layers = (
{
layerId = "1726D991-AB6C-46C4-B949-411F6BDA7822";
paths = (
{
closed = 1;
nodes = (
"441 146 LINE",
"383 204 LINE",
"254 81 LINE",
"172 152 OFFCURVE",
"142 214 OFFCURVE",
"142 295 CURVE SMOOTH",
"142 377 OFFCURVE",
"171 435 OFFCURVE",
"261 514 CURVE",
"383 397 LINE",
"441 455 LINE",
"262 624 LINE",
"110 503 OFFCURVE",
"55 415 OFFCURVE",
"55 295 CURVE SMOOTH",
"55 168 OFFCURVE",
"124 80 OFFCURVE",
"262 -22 CURVE"
);
}
);
vertWidth = 0;
width = 473;
}
);
rightKerningGroup = uni10CD9;
note = "";
},
{
glyphname = uni10CC6_10CC0;
layers = (
{
layerId = "1726D991-AB6C-46C4-B949-411F6BDA7822";
paths = (
{
closed = 1;
nodes = (
"338 0 LINE",
"602 170 LINE",
"602 0 LINE",
"687 0 LINE",
"687 600 LINE",
"611 600 LINE",
"347 428 LINE",
"347 600 LINE",
"236 600 LINE",
"32 403 LINE",
"32 300 LINE",
"262 289 LINE",
"262 0 LINE"
);
},
{
closed = 1;
nodes = (
"108 373 LINE",
"262 521 LINE",
"262 366 LINE"
);
},
{
closed = 1;
nodes = (
"347 343 LINE",
"602 510 LINE",
"602 255 LINE",
"347 91 LINE"
);
}
);
vertWidth = 0;
width = 782;
}
);
leftKerningGroup = uni10CC0;
note = "";
},
{
glyphname = uni10C83.ltr;
layers = (
{
layerId = "1726D991-AB6C-46C4-B949-411F6BDA7822";
paths = (
{
closed = 1;
nodes = (
"554 0 LINE",
"601 37 OFFCURVE",
"642 74 OFFCURVE",
"677 112 CURVE",
"767 1 LINE",
"963 89 LINE",
"933 164 LINE",
"792 96 LINE",
"730 179 LINE",
"779 251 OFFCURVE",
"807 330 OFFCURVE",
"807 424 CURVE SMOOTH",
"807 518 OFFCURVE",
"779 598 OFFCURVE",
"730 671 CURVE",
"792 753 LINE",
"933 685 LINE",
"963 761 LINE",
"767 848 LINE",
"677 737 LINE",
"642 776 OFFCURVE",
"601 813 OFFCURVE",
"555 849 CURVE",
"461 849 LINE",
"415 813 OFFCURVE",
"375 777 OFFCURVE",
"340 739 CURVE",
"253 848 LINE",
"55 761 LINE",
"87 685 LINE",
"227 753 LINE",
"287 673 LINE",
"237 600 OFFCURVE",
"209 519 OFFCURVE",
"209 424 CURVE SMOOTH",
"209 329 OFFCURVE",
"237 249 OFFCURVE",
"287 176 CURVE",
"227 96 LINE",
"87 164 LINE",
"55 89 LINE",
"253 1 LINE",
"340 110 LINE",
"375 73 OFFCURVE",
"415 36 OFFCURVE",
"461 0 CURVE"
);
},
{
closed = 1;
nodes = (
"368 192 OFFCURVE",
"302 283 OFFCURVE",
"302 424 CURVE SMOOTH",
"302 565 OFFCURVE",
"368 658 OFFCURVE",
"506 778 CURVE",
"510 778 LINE",
"647 658 OFFCURVE",
"714 565 OFFCURVE",
"714 424 CURVE SMOOTH",
"714 283 OFFCURVE",
"647 192 OFFCURVE",
"510 72 CURVE",
"506 72 LINE"
);
}
);
vertWidth = 0;
width = 1018;
}
);
note = "";
},
{
glyphname = uni10C85.ltr;
layers = (
{
layerId = "1726D991-AB6C-46C4-B949-411F6BDA7822";
paths = (
{
closed = 1;
nodes = (
"347 0 LINE",
"596 223 LINE",
"537 287 LINE",
"355 124 LINE",
"355 725 LINE",
"537 562 LINE",
"589 626 LINE",
"347 849 LINE",
"273 849 LINE",
"31 626 LINE",
"83 562 LINE",
"265 725 LINE",
"265 124 LINE",
"83 287 LINE",
"24 223 LINE",
"273 0 LINE"
);
}
);
vertWidth = 0;
width = 620;
}
);
note = "";
},
{
glyphname = uni10CD9_10CD3;
layers = (
{
layerId = "1726D991-AB6C-46C4-B949-411F6BDA7822";
paths = (
{
closed = 1;
nodes = (
"197 28 OFFCURVE",
"242 74 OFFCURVE",
"273 125 CURVE",
"490 308 LINE",
"270 478 LINE",
"240 527 OFFCURVE",
"196 571 OFFCURVE",
"139 618 CURVE",
"88 561 LINE",
"139 517 OFFCURVE",
"177 479 OFFCURVE",
"203 439 CURVE",
"44 308 LINE",
"209 166 LINE",
"184 122 OFFCURVE",
"144 81 OFFCURVE",
"91 37 CURVE",
"137 -20 LINE"
);
},
{
closed = 1;
nodes = (
"144 307 LINE",
"232 381 LINE",
"240 356 OFFCURVE",
"244 329 OFFCURVE",
"244 300 CURVE SMOOTH",
"244 274 OFFCURVE",
"241 250 OFFCURVE",
"235 228 CURVE"
);
},
{
closed = 1;
nodes = (
"317 258 OFFCURVE",
"318 278 OFFCURVE",
"318 300 CURVE SMOOTH",
"318 327 OFFCURVE",
"316 351 OFFCURVE",
"311 375 CURVE",
"391 307 LINE",
"314 239 LINE"
);
}
);
vertWidth = 0;
width = 520;
}
);
note = "";
},
{
glyphname = uni10CCF_10CC0;
layers = (
{
layerId = "1726D991-AB6C-46C4-B949-411F6BDA7822";
paths = (
{
closed = 1;
nodes = (
"242 0 LINE",
"367 108 LINE",
"485 0 LINE",
"592 0 LINE",
"424 152 LINE",
"589 292 LINE",
"431 422 LINE",
"605 600 LINE",
"497 600 LINE",
"379 470 LINE",
"231 600 LINE",
"87 600 LINE",
"20 414 LINE",
"85 363 LINE",
"275 463 LINE",
"325 418 LINE",
"168 274 LINE",
"313 154 LINE",
"134 0 LINE"
);
},
{
closed = 1;
nodes = (
"282 277 LINE",
"380 370 LINE",
"476 291 LINE",
"371 203 LINE"
);
},
{
closed = 1;
nodes = (
"148 577 LINE",
"230 503 LINE",
"96 437 LINE"
);
}
);
vertWidth = 0;
width = 645;
}
);
note = "";
},
{
glyphname = uni10CD5;
layers = (
{
layerId = "1726D991-AB6C-46C4-B949-411F6BDA7822";
paths = (
{
closed = 1;
nodes = (
"343 227 LINE",
"491 -30 LINE",
"657 46 LINE",
"626 113 LINE",
"531 67 LINE",
"391 301 LINE",
"526 526 LINE",
"622 479 LINE",
"653 547 LINE",
"486 623 LINE",
"343 375 LINE",
"198 624 LINE",
"33 547 LINE",
"64 479 LINE",
"159 526 LINE",
"295 301 LINE",
"155 67 LINE",
"59 113 LINE",
"28 46 LINE",
"194 -30 LINE"
);
}
);
vertWidth = 0;
width = 685;
}
);
note = "";
unicode = 10CD5;
},
{
glyphname = uni10C80;
layers = (
{
layerId = "1726D991-AB6C-46C4-B949-411F6BDA7822";
paths = (
{
closed = 1;
nodes = (
"400 0 LINE",
"400 849 LINE",
"303 849 LINE",
"10 611 LINE",
"10 506 LINE",
"310 474 LINE",
"310 0 LINE"
);
},
{
closed = 1;
nodes = (
"92 577 LINE",
"310 754 LINE",
"310 557 LINE"
);
}
);
vertWidth = 0;
width = 529;
}
);
note = "";
unicode = 10C80;
},
{
glyphname = uni10CA0;
layers = (
{
layerId = "1726D991-AB6C-46C4-B949-411F6BDA7822";
paths = (
{
closed = 1;
nodes = (
"361 216 LINE",
"361 0 LINE",
"451 0 LINE",
"451 849 LINE",
"370 849 LINE",
"61 552 LINE",
"116 497 LINE",
"361 735 LINE",
"361 581 LINE",
"61 292 LINE",
"116 237 LINE",
"361 475 LINE",
"361 321 LINE",
"61 34 LINE",
"116 -21 LINE"
);
}
);
vertWidth = 0;
width = 578;
}
);
note = "";
unicode = 10CA0;
},
{
glyphname = uni10CDC;
layers = (
{
layerId = "1726D991-AB6C-46C4-B949-411F6BDA7822";
paths = (
{
closed = 1;
nodes = (
"384 80 OFFCURVE",
"452 167 OFFCURVE",
"452 293 CURVE SMOOTH",
"452 412 OFFCURVE",
"397 500 OFFCURVE",
"241 618 CURVE",
"187 554 LINE",
"325 450 OFFCURVE",
"366 387 OFFCURVE",
"366 293 CURVE SMOOTH",
"366 212 OFFCURVE",
"336 151 OFFCURVE",
"250 80 CURVE",
"141 187 LINE",
"239 290 LINE",
"182 348 LINE",
"28 182 LINE",
"241 -21 LINE"
);
}
);
vertWidth = 0;
width = 507;
}
);
rightKerningGroup = uni10CD9;
note = "";
unicode = 10CDC;
},
{
glyphname = uni10CCF_10CD0;
layers = (
{
layerId = "1726D991-AB6C-46C4-B949-411F6BDA7822";
paths = (
{
closed = 1;
nodes = (
"150 0 LINE",
"276 115 LINE",
"403 0 LINE",
"510 0 LINE",
"331 164 LINE",
"494 311 LINE",
"332 445 LINE",
"512 600 LINE",
"404 600 LINE",
"276 491 LINE",
"232 528 LINE",
"283 571 LINE",
"233 619 LINE",
"179 575 LINE",
"149 600 LINE",
"40 600 LINE",
"123 529 LINE",
"56 475 LINE",
"104 420 LINE",
"178 482 LINE",
"221 445 LINE",
"58 311 LINE",
"221 164 LINE",
"42 0 LINE"
);
},
{
closed = 1;
nodes = (
"173 310 LINE",
"276 397 LINE",
"381 310 LINE",
"276 215 LINE"
);
}
);
vertWidth = 0;
width = 552;
}
);
note = "";
},
{
glyphname = uni10CDE.ltr;
layers = (
{
layerId = "1726D991-AB6C-46C4-B949-411F6BDA7822";
paths = (
{
closed = 1;
nodes = (
"120 0 LINE",
"310 300 LINE",
"310 0 LINE",
"397 0 LINE",
"397 600 LINE",
"310 600 LINE",
"310 308 LINE",
"122 600 LINE",
"25 600 LINE",
"223 307 LINE",
"18 0 LINE"
);
}
);
vertWidth = 0;
width = 492;
}
);
rightKerningGroup = uni10CC2;
note = "";
},
{
glyphname = uni10CD0_10CE6;
layers = (
{
layerId = "1726D991-AB6C-46C4-B949-411F6BDA7822";
paths = (
{
closed = 1;
nodes = (
"412 0 LINE",
"412 451 LINE",
"528 483 LINE",
"513 549 LINE",
"412 521 LINE",
"412 600 LINE",
"325 600 LINE",
"325 497 LINE",
"227 470 LINE",
"244 404 LINE",
"325 427 LINE",
"325 251 LINE",
"86 526 LINE",
"18 477 LINE",
"325 130 LINE",
"325 0 LINE"
);
}
);
vertWidth = 0;
width = 559;
}
);
note = "";
},
{
glyphname = uni10C93.ltr;
layers = (
{
layerId = "1726D991-AB6C-46C4-B949-411F6BDA7822";
paths = (
{
closed = 1;
nodes = (
"387 0 LINE",
"628 430 LINE",
"387 849 LINE",
"295 849 LINE",
"55 430 LINE",
"295 0 LINE"
);
},
{
closed = 1;
nodes = (
"156 430 LINE",
"341 764 LINE",
"528 430 LINE",
"341 86 LINE"
);
}
);
vertWidth = 0;
width = 684;
}
);
note = "";
},
{
glyphname = uni10C9F;
layers = (
{
layerId = "1726D991-AB6C-46C4-B949-411F6BDA7822";
paths = (
{
closed = 1;
nodes = (
"385 37 OFFCURVE",
"443 92 OFFCURVE",
"486 148 CURVE",
"579 65 LINE",
"627 120 LINE",
"527 209 LINE",
"562 271 OFFCURVE",
"579 337 OFFCURVE",
"579 414 CURVE SMOOTH",
"579 491 OFFCURVE",
"564 558 OFFCURVE",
"528 624 CURVE",
"624 710 LINE",
"576 767 LINE",
"488 688 LINE",
"446 745 OFFCURVE",
"388 803 OFFCURVE",
"311 868 CURVE",
"251 794 LINE",
"327 730 OFFCURVE",
"381 676 OFFCURVE",
"418 625 CURVE",
"364 577 LINE",
"412 521 LINE",
"456 560 LINE",
"476 514 OFFCURVE",
"485 468 OFFCURVE",
"485 414 CURVE SMOOTH",
"485 362 OFFCURVE",
"476 316 OFFCURVE",
"458 272 CURVE",
"412 313 LINE",
"364 257 LINE",
"421 206 LINE",
"396 169 OFFCURVE",
"362 133 OFFCURVE",
"320 94 CURVE",
"163 251 LINE",
"305 405 LINE",
"241 469 LINE",
"37 246 LINE",
"42 243 LINE",
"39 242 LINE",
"311 -21 LINE"
);
}
);
vertWidth = 0;
width = 724;
}
);
note = "";
unicode = 10C9F;
},
{
glyphname = uni10CE6_10CD0.ltr;
layers = (
{
layerId = "1726D991-AB6C-46C4-B949-411F6BDA7822";
paths = (
{
closed = 1;
nodes = (
"422 0 LINE",
"422 483 LINE",
"540 428 LINE",
"570 493 LINE",
"422 562 LINE",
"422 600 LINE",
"341 600 LINE",
"224 655 LINE",
"194 590 LINE",
"335 524 LINE",
"335 331 LINE",
"60 621 LINE",
"-2 567 LINE",
"335 215 LINE",
"335 0 LINE"
);
}
);
vertWidth = 0;
width = 600;
}
);
note = "";
},
{
glyphname = uni10CA2;
layers = (
{
layerId = "1726D991-AB6C-46C4-B949-411F6BDA7822";
paths = (
{
closed = 1;
nodes = (
"220 0 LINE",
"220 249 LINE",
"613 507 LINE",
"613 0 LINE",
"703 0 LINE",
"703 849 LINE",
"613 849 LINE",
"613 606 LINE",
"220 343 LINE",
"220 849 LINE",
"130 849 LINE",
"130 0 LINE"
);
}
);
vertWidth = 0;
width = 832;
}
);
note = "";
unicode = 10CA2;
},
{
glyphname = uni10CCF_10CC9;
layers = (
{
layerId = "1726D991-AB6C-46C4-B949-411F6BDA7822";
paths = (
{
closed = 1;
nodes = (
"271 28 LINE",
"218 73 LINE",
"264 115 LINE",
"391 0 LINE",
"498 0 LINE",
"319 164 LINE",
"482 311 LINE",
"320 445 LINE",
"500 600 LINE",
"392 600 LINE",
"264 491 LINE",
"220 528 LINE",
"271 571 LINE",
"221 619 LINE",
"167 575 LINE",
"137 600 LINE",
"28 600 LINE",
"111 529 LINE",
"44 475 LINE",
"92 420 LINE",
"166 482 LINE",
"209 445 LINE",
"46 311 LINE",
"209 164 LINE",
"161 120 LINE",
"92 179 LINE",
"44 124 LINE",
"108 72 LINE",
"30 0 LINE",
"138 0 LINE",
"166 25 LINE",
"221 -20 LINE"
);
},
{
closed = 1;
nodes = (
"161 310 LINE",
"264 397 LINE",
"369 310 LINE",
"264 215 LINE"
);
}
);
vertWidth = 0;
width = 528;
}
);
note = "";
},
{
glyphname = uni10CA4.ltr;
layers = (
{
layerId = "1726D991-AB6C-46C4-B949-411F6BDA7822";
paths = (
{
closed = 1;
nodes = (
"107 0 LINE",
"300 548 LINE SMOOTH",
"324 616 OFFCURVE",
"347 682 OFFCURVE",
"360 736 CURVE",
"364 736 LINE",
"377 682 OFFCURVE",
"400 616 OFFCURVE",
"425 546 CURVE SMOOTH",
"616 0 LINE",
"711 0 LINE",
"404 849 LINE",
"313 849 LINE",
"12 0 LINE"
);
}
);
vertWidth = 0;
width = 724;
}
);
note = "";
},
{
glyphname = uni10C8E;
layers = (
{
layerId = "1726D991-AB6C-46C4-B949-411F6BDA7822";
paths = (
{
closed = 1;
nodes = (
"361 0 LINE",
"361 266 LINE",
"569 378 LINE",
"530 452 LINE",
"361 361 LINE",
"361 523 LINE",
"569 635 LINE",
"530 709 LINE",
"361 618 LINE",
"361 849 LINE",
"265 849 LINE",
"265 566 LINE",
"57 453 LINE",
"96 381 LINE",
"265 472 LINE",
"265 309 LINE",
"57 196 LINE",
"96 124 LINE",
"265 215 LINE",
"265 0 LINE"
);
}
);
vertWidth = 0;
width = 624;
}
);
note = "";
unicode = 10C8E;
},
{
glyphname = uni10CDF.ltr;
layers = (
{
layerId = "1726D991-AB6C-46C4-B949-411F6BDA7822";
paths = (
{
closed = 1;
nodes = (
"513 182 LINE",
"359 348 LINE",
"302 290 LINE",
"400 187 LINE",
"291 80 LINE",
"263 103 OFFCURVE",
"241 125 OFFCURVE",
"224 147 CURVE",
"272 187 LINE",
"226 236 LINE",
"190 206 LINE",
"180 233 OFFCURVE",
"175 261 OFFCURVE",
"175 293 CURVE SMOOTH",
"175 326 OFFCURVE",
"180 356 OFFCURVE",
"193 385 CURVE",
"227 356 LINE",
"273 406 LINE",
"230 442 LINE",
"258 476 OFFCURVE",
"298 512 OFFCURVE",
"354 554 CURVE",
"300 618 LINE",
"242 574 OFFCURVE",
"198 535 OFFCURVE",
"166 496 CURVE",
"99 552 LINE",
"54 503 LINE",
"127 441 LINE",
"100 394 OFFCURVE",
"89 347 OFFCURVE",
"89 293 CURVE SMOOTH",
"89 240 OFFCURVE",
"101 194 OFFCURVE",
"125 151 CURVE",
"51 88 LINE",
"96 38 LINE",
"165 96 LINE",
"198 57 OFFCURVE",
"243 19 OFFCURVE",
"300 -21 CURVE"
);
}
);
vertWidth = 0;
width = 541;
}
);
note = "";
},
{
glyphname = uni10CD2;
layers = (
{
layerId = "1726D991-AB6C-46C4-B949-411F6BDA7822";
paths = (
{
closed = 1;
nodes = (
"312 0 LINE",
"312 600 LINE",
"235 600 LINE",
"11 383 LINE",
"65 331 LINE",
"225 485 LINE",
"225 0 LINE"
);
}
);
vertWidth = 0;
width = 407;
}
);
note = "";
unicode = 10CD2;
},
{
glyphname = uni10CD9_10CC7.ltr;
layers = (
{
layerId = "1726D991-AB6C-46C4-B949-411F6BDA7822";
paths = (
{
closed = 1;
nodes = (
"494 47 LINE",
"323 124 OFFCURVE",
"264 182 OFFCURVE",
"255 274 CURVE",
"395 236 LINE",
"415 305 LINE",
"258 346 LINE",
"274 423 OFFCURVE",
"337 475 OFFCURVE",
"498 551 CURVE",
"453 618 LINE",
"283 539 OFFCURVE",
"198 468 OFFCURVE",
"173 369 CURVE",
"39 404 LINE",
"25 336 LINE",
"165 298 LINE",
"166 159 OFFCURVE",
"247 76 OFFCURVE",
"457 -20 CURVE"
);
}
);
vertWidth = 0;
width = 548;
}
);
note = "";
},
{
glyphname = uni10CD9_10CC0.ltr;
layers = (
{
layerId = "1726D991-AB6C-46C4-B949-411F6BDA7822";
paths = (
{
closed = 1;
nodes = (
"384 47 LINE",
"197 131 OFFCURVE",
"144 193 OFFCURVE",
"144 300 CURVE SMOOTH",
"144 333 OFFCURVE",
"149 362 OFFCURVE",
"163 388 CURVE",
"386 254 LINE",
"460 301 LINE",
"401 600 LINE",
"343 618 LINE",
"136 522 OFFCURVE",
"55 438 OFFCURVE",
"55 300 CURVE SMOOTH",
"55 160 OFFCURVE",
"136 76 OFFCURVE",
"347 -20 CURVE"
);
},
{
closed = 1;
nodes = (
"214 449 LINE",
"243 473 OFFCURVE",
"282 498 OFFCURVE",
"334 524 CURVE",
"369 350 LINE"
);
}
);
vertWidth = 0;
width = 503;
}
);
rightKerningGroup = uni10CD9;
note = "";
},
{
glyphname = uni10CCD_10CDB;
layers = (
{
layerId = "1726D991-AB6C-46C4-B949-411F6BDA7822";
paths = (
{
closed = 1;
nodes = (
"349 80 OFFCURVE",
"418 168 OFFCURVE",
"418 295 CURVE SMOOTH",
"418 303 OFFCURVE",
"418 311 OFFCURVE",
"417 319 CURVE",
"438 373 LINE SMOOTH",
"461 431 OFFCURVE",
"473 464 OFFCURVE",
"481 496 CURVE",
"485 496 LINE",
"493 463 OFFCURVE",
"506 420 OFFCURVE",
"525 371 CURVE SMOOTH",
"541 330 LINE",
"413 0 LINE",
"500 0 LINE",
"583 225 LINE",
"672 0 LINE",
"761 0 LINE",
"518 600 LINE",
"451 600 LINE",
"384 437 LINE",
"353 497 OFFCURVE",
"298 555 OFFCURVE",
"211 624 CURVE",
"32 455 LINE",
"90 397 LINE",
"212 514 LINE",
"302 435 OFFCURVE",
"331 377 OFFCURVE",
"331 295 CURVE SMOOTH",
"331 214 OFFCURVE",
"301 152 OFFCURVE",
"219 81 CURVE",
"90 204 LINE",
"32 146 LINE",
"211 -22 LINE"
);
}
);
vertWidth = 0;
width = 765;
}
);
rightKerningGroup = uni10CE4;
note = "";
},
{
glyphname = uni10CCF_10CC9.ltr;
layers = (
{
layerId = "1726D991-AB6C-46C4-B949-411F6BDA7822";
paths = (
{
closed = 1;
nodes = (
"362 25 LINE",
"390 0 LINE",
"498 0 LINE",
"420 72 LINE",
"484 124 LINE",
"436 179 LINE",
"367 120 LINE",
"319 164 LINE",
"482 311 LINE",
"319 445 LINE",
"362 482 LINE",
"436 420 LINE",
"484 475 LINE",
"417 529 LINE",
"500 600 LINE",
"391 600 LINE",
"361 575 LINE",
"307 619 LINE",
"257 571 LINE",
"308 528 LINE",
"264 491 LINE",
"136 600 LINE",
"28 600 LINE",
"208 445 LINE",
"46 311 LINE",
"209 164 LINE",
"30 0 LINE",
"137 0 LINE",
"264 115 LINE",
"310 73 LINE",
"257 28 LINE",
"307 -20 LINE"
);
},
{
closed = 1;
nodes = (
"159 310 LINE",
"264 397 LINE",
"367 310 LINE",
"264 215 LINE"
);
}
);
vertWidth = 0;
width = 528;
}
);
note = "";
},
{
glyphname = uni10CEB;
layers = (
{
layerId = "1726D991-AB6C-46C4-B949-411F6BDA7822";
paths = (
{
closed = 1;
nodes = (
"173 0 LINE",
"356 243 LINE",
"542 0 LINE",
"615 0 LINE",
"615 600 LINE",
"542 600 LINE",
"356 355 LINE",
"173 600 LINE",
"95 600 LINE",
"95 0 LINE"
);
},
{
closed = 1;
nodes = (
"175 467 LINE",
"178 467 LINE",
"309 300 LINE",
"178 131 LINE",
"175 131 LINE"
);
},
{
closed = 1;
nodes = (
"403 300 LINE",
"537 472 LINE",
"540 472 LINE",
"540 126 LINE",
"537 126 LINE"
);
}
);
vertWidth = 0;
width = 710;
}
);
note = "";
unicode = 10CEB;
},
{
glyphname = uni10CD9_10CC0;
layers = (
{
layerId = "1726D991-AB6C-46C4-B949-411F6BDA7822";
paths = (
{
closed = 1;
nodes = (
"367 76 OFFCURVE",
"448 160 OFFCURVE",
"448 300 CURVE SMOOTH",
"448 438 OFFCURVE",
"367 522 OFFCURVE",
"160 618 CURVE",
"102 600 LINE",
"43 301 LINE",
"117 254 LINE",
"340 388 LINE",
"354 362 OFFCURVE",
"359 333 OFFCURVE",
"359 300 CURVE SMOOTH",
"359 193 OFFCURVE",
"306 131 OFFCURVE",
"119 47 CURVE",
"156 -20 LINE"
);
},
{
closed = 1;
nodes = (
"169 524 LINE",
"221 498 OFFCURVE",
"260 473 OFFCURVE",
"289 449 CURVE",
"134 350 LINE"
);
}
);
vertWidth = 0;
width = 503;
}
);
rightKerningGroup = uni10CD9;
note = "";
},
{
glyphname = uni10CEE.ltr;
layers = (
{
layerId = "1726D991-AB6C-46C4-B949-411F6BDA7822";
paths = (
{
closed = 1;
nodes = (
"180 0 LINE",
"180 499 LINE",
"331 394 LINE",
"482 499 LINE",
"482 0 LINE",
"567 0 LINE",
"567 600 LINE",
"490 600 LINE",
"331 486 LINE",
"174 600 LINE",
"95 600 LINE",
"95 0 LINE"
);
}
);
vertWidth = 0;
width = 662;
}
);
note = "";
},
{
glyphname = uni10CA5.ltr;
layers = (
{
layerId = "1726D991-AB6C-46C4-B949-411F6BDA7822";
paths = (
{
closed = 1;
nodes = (
"217 0 LINE",
"217 849 LINE",
"127 849 LINE",
"127 0 LINE"
);
}
);
vertWidth = 0;
width = 341;
}
);
note = "";
},
{
glyphname = uni10CD8;
layers = (
{
layerId = "1726D991-AB6C-46C4-B949-411F6BDA7822";
paths = (
{
closed = 1;
nodes = (
"386 0 LINE",
"386 600 LINE",
"303 600 LINE",
"48 479 LINE",
"48 380 LINE",
"190 303 LINE",
"48 231 LINE",
"48 132 LINE",
"307 0 LINE"
);
},
{
closed = 1;
nodes = (
"121 185 LINE",
"306 284 LINE",
"306 93 LINE"
);
},
{
closed = 1;
nodes = (
"121 426 LINE",
"306 514 LINE",
"306 320 LINE"
);
}
);
vertWidth = 0;
width = 481;
}
);
note = "";
unicode = 10CD8;
},
{
glyphname = uni10CEF.ltr;
layers = (
{
layerId = "1726D991-AB6C-46C4-B949-411F6BDA7822";
paths = (
{
closed = 1;
nodes = (
"180 0 LINE",
"180 173 LINE",
"435 0 LINE",
"520 0 LINE",
"520 600 LINE",
"435 600 LINE",
"435 427 LINE",
"180 600 LINE",
"95 600 LINE",
"95 0 LINE"
);
},
{
closed = 1;
nodes = (
"180 254 LINE",
"180 346 LINE",
"435 173 LINE",
"435 81 LINE"
);
},
{
closed = 1;
nodes = (
"180 427 LINE",
"180 519 LINE",
"435 346 LINE",
"435 254 LINE"
);
}
);
vertWidth = 0;
width = 615;
}
);
note = "";
},
{
glyphname = uni10C93;
layers = (
{
layerId = "1726D991-AB6C-46C4-B949-411F6BDA7822";
paths = (
{
closed = 1;
nodes = (
"389 0 LINE",
"629 430 LINE",
"389 849 LINE",
"297 849 LINE",
"56 430 LINE",
"297 0 LINE"
);
},
{
closed = 1;
nodes = (
"156 430 LINE",
"343 764 LINE",
"528 430 LINE",
"343 86 LINE"
);
}
);
vertWidth = 0;
width = 684;
}
);
note = "";
unicode = 10C93;
},
{
glyphname = uni10CEA_10CD8.ltr;
layers = (
{
layerId = "1726D991-AB6C-46C4-B949-411F6BDA7822";
paths = (
{
closed = 1;
nodes = (
"174 0 LINE",
"331 114 LINE",
"490 0 LINE",
"569 0 LINE",
"824 132 LINE",
"824 231 LINE",
"682 303 LINE",
"824 380 LINE",
"824 479 LINE",
"569 600 LINE",
"490 600 LINE",
"331 486 LINE",
"174 600 LINE",
"95 600 LINE",
"95 0 LINE"
);
},
{
closed = 1;
nodes = (
"180 499 LINE",
"331 394 LINE",
"482 499 LINE",
"482 100 LINE",
"331 206 LINE",
"180 100 LINE"
);
},
{
closed = 1;
nodes = (
"567 283 LINE",
"751 185 LINE",
"567 93 LINE"
);
},
{
closed = 1;
nodes = (
"567 514 LINE",
"751 426 LINE",
"567 321 LINE"
);
}
);
vertWidth = 0;
width = 872;
}
);
note = "";
},
{
glyphname = uni10CCF_10CC0.ltr;
layers = (
{
layerId = "1726D991-AB6C-46C4-B949-411F6BDA7822";
paths = (
{
closed = 1;
nodes = (
"160 0 LINE",
"278 108 LINE",
"403 0 LINE",
"511 0 LINE",
"332 154 LINE",
"477 274 LINE",
"320 418 LINE",
"370 463 LINE",
"560 363 LINE",
"625 414 LINE",
"558 600 LINE",
"414 600 LINE",
"266 470 LINE",
"148 600 LINE",
"40 600 LINE",
"214 422 LINE",
"56 292 LINE",
"221 152 LINE",
"53 0 LINE"
);
},
{
closed = 1;
nodes = (
"169 291 LINE",
"265 370 LINE",
"363 277 LINE",
"274 203 LINE"
);
},
{
closed = 1;
nodes = (
"415 503 LINE",
"497 577 LINE",
"549 437 LINE"
);
}
);
vertWidth = 0;
width = 645;
}
);
note = "";
},
{
glyphname = uni10C80.ltr;
layers = (
{
layerId = "1726D991-AB6C-46C4-B949-411F6BDA7822";
paths = (
{
closed = 1;
nodes = (
"219 0 LINE",
"219 474 LINE",
"519 506 LINE",
"519 611 LINE",
"226 849 LINE",
"129 849 LINE",
"129 0 LINE"
);
},
{
closed = 1;
nodes = (
"219 754 LINE",
"437 577 LINE",
"219 557 LINE"
);
}
);
vertWidth = 0;
width = 529;
}
);
note = "";
},
{
glyphname = uni10CCD_10CD0;
layers = (
{
layerId = "1726D991-AB6C-46C4-B949-411F6BDA7822";
paths = (
{
closed = 1;
nodes = (
"152 0 LINE",
"250 248 LINE",
"350 270 LINE",
"338 338 LINE",
"281 325 LINE",
"299 371 LINE SMOOTH",
"322 429 OFFCURVE",
"333 461 OFFCURVE",
"341 496 CURVE",
"345 496 LINE",
"353 463 OFFCURVE",
"366 420 OFFCURVE",
"385 371 CURVE SMOOTH",
"401 330 LINE",
"273 0 LINE",
"360 0 LINE",
"443 225 LINE",
"532 0 LINE",
"621 0 LINE",
"378 600 LINE",
"307 600 LINE",
"188 304 LINE",
"62 276 LINE",
"75 209 LINE",
"157 227 LINE",
"65 0 LINE"
);
}
);
vertWidth = 0;
width = 625;
}
);
leftKerningGroup = uni10CE4;
rightKerningGroup = uni10CE4;
note = "";
},
{
glyphname = uni10CEF_10CC0;
layers = (
{
layerId = "1726D991-AB6C-46C4-B949-411F6BDA7822";
paths = (
{
closed = 1;
nodes = (
"347 0 LINE",
"602 173 LINE",
"602 0 LINE",
"687 0 LINE",
"687 600 LINE",
"602 600 LINE",
"347 427 LINE",
"347 600 LINE",
"230 600 LINE",
"32 409 LINE",
"32 320 LINE",
"262 232 LINE",
"262 0 LINE"
);
},
{
closed = 1;
nodes = (
"108 373 LINE",
"262 523 LINE",
"262 316 LINE"
);
},
{
closed = 1;
nodes = (
"347 173 LINE",
"602 346 LINE",
"602 254 LINE",
"347 81 LINE"
);
},
{
closed = 1;
nodes = (
"347 346 LINE",
"602 519 LINE",
"602 427 LINE",
"347 254 LINE"
);
}
);
vertWidth = 0;
width = 782;
}
);
leftKerningGroup = uni10CC0;
note = "";
},
{
glyphname = uni10CC9.ltr;
layers = (
{
layerId = "1726D991-AB6C-46C4-B949-411F6BDA7822";
paths = (
{
closed = 1;
nodes = (
"185 51 LINE",
"223 27 OFFCURVE",
"267 4 OFFCURVE",
"320 -20 CURVE",
"357 47 LINE",
"312 67 OFFCURVE",
"275 86 OFFCURVE",
"245 104 CURVE",
"321 174 LINE",
"273 229 LINE",
"184 148 LINE",
"134 192 OFFCURVE",
"117 239 OFFCURVE",
"117 300 CURVE SMOOTH",
"117 359 OFFCURVE",
"134 403 OFFCURVE",
"184 446 CURVE",
"273 365 LINE",
"321 420 LINE",
"244 490 LINE",
"276 509 OFFCURVE",
"314 529 OFFCURVE",
"361 551 CURVE",
"316 618 LINE",
"264 594 OFFCURVE",
"219 570 OFFCURVE",
"182 546 CURVE",
"100 621 LINE",
"57 561 LINE",
"122 502 LINE",
"56 444 OFFCURVE",
"28 382 OFFCURVE",
"28 300 CURVE SMOOTH",
"28 216 OFFCURVE",
"57 153 OFFCURVE",
"125 95 CURVE",
"57 33 LINE",
"100 -27 LINE"
);
}
);
vertWidth = 0;
width = 411;
}
);
note = "";
},
{
glyphname = uni10CA7.ltr;
layers = (
{
layerId = "1726D991-AB6C-46C4-B949-411F6BDA7822";
paths = (
{
closed = 1;
nodes = (
"478 0 LINE",
"478 529 LINE",
"681 744 LINE",
"790 631 LINE",
"846 690 LINE",
"678 861 LINE",
"478 646 LINE",
"478 849 LINE",
"388 849 LINE",
"388 645 LINE",
"187 861 LINE",
"19 690 LINE",
"76 631 LINE",
"185 744 LINE",
"388 528 LINE",
"388 0 LINE"
);
}
);
vertWidth = 0;
width = 866;
}
);
note = "";
},
{
glyphname = uni10CD3_10CEE.ltr;
layers = (
{
layerId = "1726D991-AB6C-46C4-B949-411F6BDA7822";
paths = (
{
closed = 1;
nodes = (
"180 0 LINE",
"180 344 LINE",
"297 226 LINE",
"364 226 LINE",
"482 345 LINE",
"482 0 LINE",
"567 0 LINE",
"567 430 LINE",
"371 624 LINE",
"290 624 LINE",
"95 430 LINE",
"95 0 LINE"
);
},
{
closed = 1;
nodes = (
"200 423 LINE",
"331 554 LINE",
"462 423 LINE",
"331 291 LINE"
);
}
);
vertWidth = 0;
width = 662;
}
);
note = "";
},
{
glyphname = uni10C84.ltr;
layers = (
{
layerId = "1726D991-AB6C-46C4-B949-411F6BDA7822";
paths = (
{
closed = 1;
nodes = (
"355 0 LINE",
"355 725 LINE",
"537 562 LINE",
"596 626 LINE",
"347 849 LINE",
"273 849 LINE",
"24 626 LINE",
"83 562 LINE",
"265 725 LINE",
"265 0 LINE"
);
}
);
vertWidth = 0;
width = 620;
}
);
note = "";
},
{
glyphname = uni10CC1;
layers = (
{
layerId = "1726D991-AB6C-46C4-B949-411F6BDA7822";
paths = (
{
closed = 1;
nodes = (
"338 0 LINE",
"338 600 LINE",
"253 600 LINE",
"42 414 LINE",
"42 334 LINE",
"251 164 LINE",
"251 0 LINE"
);
},
{
closed = 1;
nodes = (
"118 375 LINE",
"251 495 LINE",
"251 268 LINE"
);
}
);
vertWidth = 0;
width = 433;
}
);
note = "";
unicode = 10CC1;
},
{
glyphname = uni10CD5.ltr;
layers = (
{
layerId = "1726D991-AB6C-46C4-B949-411F6BDA7822";
paths = (
{
closed = 1;
nodes = (
"342 227 LINE",
"491 -30 LINE",
"657 46 LINE",
"626 113 LINE",
"530 67 LINE",
"390 301 LINE",
"526 526 LINE",
"621 479 LINE",
"652 547 LINE",
"487 624 LINE",
"342 375 LINE",
"199 623 LINE",
"32 547 LINE",
"63 479 LINE",
"159 526 LINE",
"294 301 LINE",
"154 67 LINE",
"59 113 LINE",
"28 46 LINE",
"194 -30 LINE"
);
}
);
vertWidth = 0;
width = 685;
}
);
note = "";
},
{
glyphname = uni10CD9;
layers = (
{
layerId = "1726D991-AB6C-46C4-B949-411F6BDA7822";
paths = (
{
closed = 1;
nodes = (
"284 76 OFFCURVE",
"365 160 OFFCURVE",
"365 300 CURVE SMOOTH",
"365 438 OFFCURVE",
"284 522 OFFCURVE",
"77 618 CURVE",
"32 551 LINE",
"223 461 OFFCURVE",
"276 404 OFFCURVE",
"276 300 CURVE SMOOTH",
"276 193 OFFCURVE",
"223 131 OFFCURVE",
"36 47 CURVE",
"73 -20 LINE"
);
}
);
vertWidth = 0;
width = 420;
}
);
rightKerningGroup = uni10CD9;
note = "";
unicode = 10CD9;
},
{
glyphname = uni10CC7_10CEA.ltr;
layers = (
{
layerId = "1726D991-AB6C-46C4-B949-411F6BDA7822";
paths = (
{
closed = 1;
nodes = (
"238 0 LINE",
"395 114 LINE",
"554 0 LINE",
"631 0 LINE",
"631 600 LINE",
"554 600 LINE",
"395 486 LINE",
"238 600 LINE",
"159 600 LINE",
"159 379 LINE",
"59 415 LINE",
"32 341 LINE",
"159 296 LINE",
"159 0 LINE"
);
},
{
closed = 1;
nodes = (
"244 266 LINE",
"345 231 LINE",
"371 304 LINE",
"244 349 LINE",
"244 499 LINE",
"395 394 LINE",
"546 499 LINE",
"546 100 LINE",
"395 206 LINE",
"244 100 LINE"
);
}
);
vertWidth = 0;
width = 718;
}
);
note = "";
},
{
glyphname = uni10CD4.ltr;
layers = (
{
layerId = "1726D991-AB6C-46C4-B949-411F6BDA7822";
paths = (
{
closed = 1;
nodes = (
"278 0 LINE",
"278 488 LINE",
"405 376 LINE",
"454 434 LINE",
"263 600 LINE",
"191 600 LINE",
"191 112 LINE",
"64 224 LINE",
"15 166 LINE",
"206 0 LINE"
);
}
);
vertWidth = 0;
width = 469;
}
);
note = "";
},
{
glyphname = uni10CA1;
layers = (
{
layerId = "1726D991-AB6C-46C4-B949-411F6BDA7822";
paths = (
{
closed = 1;
nodes = (
"354 98 LINE",
"387 64 OFFCURVE",
"424 33 OFFCURVE",
"465 0 CURVE",
"563 0 LINE",
"603 33 OFFCURVE",
"634 64 OFFCURVE",
"667 98 CURVE",
"792 -35 LINE",
"856 25 LINE",
"720 161 LINE",
"763 218 OFFCURVE",
"791 277 OFFCURVE",
"804 342 CURVE",
"939 260 LINE",
"981 338 LINE",
"812 430 LINE",
"811 513 OFFCURVE",
"794 596 OFFCURVE",
"732 675 CURVE",
"735 678 LINE",
"867 610 LINE",
"906 689 LINE",
"563 849 LINE",
"464 849 LINE",
"121 689 LINE",
"160 610 LINE",
"291 678 LINE",
"293 674 LINE",
"232 595 OFFCURVE",
"209 513 OFFCURVE",
"208 430 CURVE",
"39 338 LINE",
"80 260 LINE",
"215 342 LINE",
"229 276 OFFCURVE",
"258 217 OFFCURVE",
"300 161 CURVE",
"170 25 LINE",
"235 -35 LINE"
);
},
{
closed = 1;
nodes = (
"382 175 OFFCURVE",
"305 280 OFFCURVE",
"305 430 CURVE SMOOTH",
"305 574 OFFCURVE",
"372 688 OFFCURVE",
"513 773 CURVE",
"517 773 LINE",
"659 688 OFFCURVE",
"725 574 OFFCURVE",
"725 430 CURVE SMOOTH",
"725 280 OFFCURVE",
"649 175 OFFCURVE",
"517 72 CURVE",
"513 72 LINE"
);
}
);
vertWidth = 0;
width = 1027;
}
);
note = "";
unicode = 10CA1;
},
{
glyphname = uni10CE5_10CE6.ltr;
layers = (
{
layerId = "1726D991-AB6C-46C4-B949-411F6BDA7822";
paths = (
{
closed = 1;
nodes = (
"182 0 LINE",
"182 241 LINE",
"265 342 LINE",
"523 359 LINE",
"515 432 LINE",
"327 418 LINE",
"449 567 LINE",
"384 624 LINE",
"182 371 LINE",
"182 600 LINE",
"95 600 LINE",
"95 0 LINE"
);
}
);
vertWidth = 0;
width = 557;
}
);
note = "";
},
{
glyphname = uni10CE9;
layers = (
{
layerId = "1726D991-AB6C-46C4-B949-411F6BDA7822";
paths = (
{
closed = 1;
nodes = (
"513 22 LINE",
"321 313 LINE",
"502 584 LINE",
"441 625 LINE",
"243 567 LINE",
"263 499 LINE",
"380 535 LINE",
"270 371 LINE",
"121 600 LINE",
"22 600 LINE",
"217 311 LINE",
"10 0 LINE",
"104 0 LINE",
"267 253 LINE",
"388 63 LINE",
"263 102 LINE",
"241 34 LINE",
"444 -24 LINE"
);
}
);
vertWidth = 0;
width = 517;
}
);
leftKerningGroup = uni10CC2;
rightKerningGroup = uni10CC2;
note = "";
unicode = 10CE9;
},
{
glyphname = uni10CCD_10CDB.ltr;
layers = (
{
layerId = "1726D991-AB6C-46C4-B949-411F6BDA7822";
paths = (
{
closed = 1;
nodes = (
"733 146 LINE",
"675 204 LINE",
"546 81 LINE",
"464 152 OFFCURVE",
"434 214 OFFCURVE",
"434 295 CURVE SMOOTH",
"434 377 OFFCURVE",
"463 435 OFFCURVE",
"553 514 CURVE",
"675 397 LINE",
"733 455 LINE",
"554 624 LINE",
"467 555 OFFCURVE",
"412 497 OFFCURVE",
"381 437 CURVE",
"314 600 LINE",
"247 600 LINE",
"4 0 LINE",
"93 0 LINE",
"182 225 LINE",
"265 0 LINE",
"352 0 LINE",
"224 330 LINE",
"240 371 LINE SMOOTH",
"259 420 OFFCURVE",
"272 463 OFFCURVE",
"280 496 CURVE",
"284 496 LINE",
"292 464 OFFCURVE",
"304 431 OFFCURVE",
"327 373 CURVE SMOOTH",
"348 319 LINE",
"347 311 OFFCURVE",
"347 303 OFFCURVE",
"347 295 CURVE SMOOTH",
"347 168 OFFCURVE",
"416 80 OFFCURVE",
"554 -22 CURVE"
);
}
);
vertWidth = 0;
width = 765;
}
);
rightKerningGroup = uni10CE4;
note = "";
},
{
glyphname = uni10CC7_10CEA;
layers = (
{
layerId = "1726D991-AB6C-46C4-B949-411F6BDA7822";
paths = (
{
closed = 1;
nodes = (
"164 0 LINE",
"323 114 LINE",
"480 0 LINE",
"559 0 LINE",
"559 296 LINE",
"686 341 LINE",
"659 415 LINE",
"559 379 LINE",
"559 600 LINE",
"480 600 LINE",
"323 486 LINE",
"164 600 LINE",
"87 600 LINE",
"87 0 LINE"
);
},
{
closed = 1;
nodes = (
"172 499 LINE",
"323 394 LINE",
"474 499 LINE",
"474 349 LINE",
"347 304 LINE",
"373 231 LINE",
"474 266 LINE",
"474 100 LINE",
"323 206 LINE",
"172 100 LINE"
);
}
);
vertWidth = 0;
width = 718;
}
);
note = "";
},
{
glyphname = uni10C89.ltr;
layers = (
{
layerId = "1726D991-AB6C-46C4-B949-411F6BDA7822";
paths = (
{
closed = 1;
nodes = (
"477 47 LINE",
"420 83 OFFCURVE",
"373 116 OFFCURVE",
"335 148 CURVE",
"465 260 LINE",
"410 319 LINE",
"276 203 LINE",
"214 271 OFFCURVE",
"189 339 OFFCURVE",
"189 424 CURVE SMOOTH",
"189 510 OFFCURVE",
"213 576 OFFCURVE",
"280 647 CURVE",
"410 534 LINE",
"465 594 LINE",
"339 702 LINE",
"378 734 OFFCURVE",
"425 768 OFFCURVE",
"482 806 CURVE",
"421 873 LINE",
"361 834 OFFCURVE",
"311 798 OFFCURVE",
"270 762 CURVE",
"145 870 LINE",
"96 807 LINE",
"211 707 LINE",
"127 618 OFFCURVE",
"95 532 OFFCURVE",
"95 424 CURVE SMOOTH",
"95 317 OFFCURVE",
"126 232 OFFCURVE",
"209 145 CURVE",
"96 47 LINE",
"145 -16 LINE",
"268 90 LINE",
"311 54 OFFCURVE",
"363 16 OFFCURVE",
"426 -24 CURVE"
);
}
);
vertWidth = 0;
width = 563;
}
);
note = "";
},
{
glyphname = uni10CDB_10CE2;
layers = (
{
layerId = "1726D991-AB6C-46C4-B949-411F6BDA7822";
paths = (
{
closed = 1;
nodes = (
"708 147 LINE",
"650 205 LINE",
"528 88 LINE",
"438 167 OFFCURVE",
"409 225 OFFCURVE",
"409 307 CURVE SMOOTH",
"409 388 OFFCURVE",
"439 450 OFFCURVE",
"521 521 CURVE",
"650 398 LINE",
"708 456 LINE",
"529 624 LINE",
"416 540 OFFCURVE",
"349 466 OFFCURVE",
"329 372 CURVE",
"182 264 LINE",
"182 600 LINE",
"95 600 LINE",
"95 0 LINE",
"182 0 LINE",
"182 175 LINE",
"323 279 LINE",
"331 173 OFFCURVE",
"389 89 OFFCURVE",
"529 -22 CURVE"
);
}
);
vertWidth = 0;
width = 740;
}
);
note = "";
},
{
glyphname = uni10CA7;
layers = (
{
layerId = "1726D991-AB6C-46C4-B949-411F6BDA7822";
paths = (
{
closed = 1;
nodes = (
"478 0 LINE",
"478 528 LINE",
"681 744 LINE",
"790 631 LINE",
"847 690 LINE",
"679 861 LINE",
"478 645 LINE",
"478 849 LINE",
"388 849 LINE",
"388 646 LINE",
"188 861 LINE",
"20 690 LINE",
"76 631 LINE",
"185 744 LINE",
"388 529 LINE",
"388 0 LINE"
);
}
);
vertWidth = 0;
width = 866;
}
);
note = "";
unicode = 10CA7;
},
{
glyphname = uni10C9C;
layers = (
{
layerId = "1726D991-AB6C-46C4-B949-411F6BDA7822";
paths = (
{
closed = 1;
nodes = (
"491 119 OFFCURVE",
"579 238 OFFCURVE",
"579 413 CURVE SMOOTH",
"579 580 OFFCURVE",
"507 702 OFFCURVE",
"311 869 CURVE",
"251 794 LINE",
"426 646 OFFCURVE",
"482 554 OFFCURVE",
"482 413 CURVE SMOOTH",
"482 290 OFFCURVE",
"436 198 OFFCURVE",
"319 91 CURVE",
"159 252 LINE",
"301 406 LINE",
"241 469 LINE",
"37 244 LINE",
"311 -24 LINE"
);
}
);
vertWidth = 0;
width = 658;
}
);
rightKerningGroup = uni10C99;
note = "";
unicode = 10C9C;
},
{
glyphname = uni10CEA_10CD6.ltr;
layers = (
{
layerId = "1726D991-AB6C-46C4-B949-411F6BDA7822";
paths = (
{
closed = 1;
nodes = (
"174 0 LINE",
"331 114 LINE",
"490 0 LINE",
"567 0 LINE",
"567 90 LINE",
"636 0 LINE",
"733 0 LINE",
"567 193 LINE",
"567 293 LINE",
"816 0 LINE",
"913 0 LINE",
"567 394 LINE",
"567 488 LINE",
"1001 0 LINE",
"1099 0 LINE",
"567 600 LINE",
"490 600 LINE",
"331 486 LINE",
"174 600 LINE",
"95 600 LINE",
"95 0 LINE"
);
},
{
closed = 1;
nodes = (
"180 499 LINE",
"331 394 LINE",
"482 499 LINE",
"482 100 LINE",
"331 206 LINE",
"180 100 LINE"
);
}
);
vertWidth = 0;
width = 1099;
}
);
note = "";
},
{
glyphname = uni10CCC.ltr;
layers = (
{
layerId = "1726D991-AB6C-46C4-B949-411F6BDA7822";
paths = (
{
closed = 1;
nodes = (
"313 0 LINE",
"426 85 OFFCURVE",
"501 174 OFFCURVE",
"501 300 CURVE SMOOTH",
"501 425 OFFCURVE",
"426 514 OFFCURVE",
"313 600 CURVE",
"244 600 LINE",
"131 514 OFFCURVE",
"55 425 OFFCURVE",
"55 300 CURVE SMOOTH",
"55 174 OFFCURVE",
"131 85 OFFCURVE",
"244 0 CURVE"
);
},
{
closed = 1;
nodes = (
"242 93 OFFCURVE",
"214 120 OFFCURVE",
"192 147 CURVE",
"278 247 LINE",
"364 147 LINE",
"342 120 OFFCURVE",
"314 93 OFFCURVE",
"279 64 CURVE",
"277 64 LINE"
);
},
{
closed = 1;
nodes = (
"142 236 OFFCURVE",
"136 266 OFFCURVE",
"136 300 CURVE SMOOTH",
"136 334 OFFCURVE",
"142 363 OFFCURVE",
"154 391 CURVE",
"234 298 LINE",
"154 208 LINE"
);
},
{
closed = 1;
nodes = (
"322 298 LINE",
"402 392 LINE",
"414 364 OFFCURVE",
"420 334 OFFCURVE",
"420 300 CURVE SMOOTH",
"420 265 OFFCURVE",
"414 235 OFFCURVE",
"402 207 CURVE"
);
},
{
closed = 1;
nodes = (
"190 449 LINE",
"212 477 OFFCURVE",
"241 505 OFFCURVE",
"277 536 CURVE",
"279 536 LINE",
"315 505 OFFCURVE",
"344 477 OFFCURVE",
"366 450 CURVE",
"278 349 LINE"
);
}
);
vertWidth = 0;
width = 556;
}
);
leftKerningGroup = uni10CD7;
note = "";
},
{
glyphname = uni10CDC.ltr;
layers = (
{
layerId = "1726D991-AB6C-46C4-B949-411F6BDA7822";
paths = (
{
closed = 1;
nodes = (
"479 182 LINE",
"325 348 LINE",
"268 290 LINE",
"366 187 LINE",
"257 80 LINE",
"171 151 OFFCURVE",
"141 212 OFFCURVE",
"141 293 CURVE SMOOTH",
"141 387 OFFCURVE",
"182 450 OFFCURVE",
"320 554 CURVE",
"266 618 LINE",
"110 500 OFFCURVE",
"55 412 OFFCURVE",
"55 293 CURVE SMOOTH",
"55 167 OFFCURVE",
"123 80 OFFCURVE",
"266 -21 CURVE"
);
}
);
vertWidth = 0;
width = 507;
}
);
rightKerningGroup = uni10CD9;
note = "";
},
{
glyphname = uni10C96.ltr;
layers = (
{
layerId = "1726D991-AB6C-46C4-B949-411F6BDA7822";
paths = (
{
closed = 1;
nodes = (
"116 0 LINE",
"188 184 LINE",
"260 0 LINE",
"348 0 LINE",
"232 295 LINE",
"292 449 LINE",
"469 0 LINE",
"559 0 LINE",
"338 565 LINE",
"362 630 OFFCURVE",
"382 685 OFFCURVE",
"397 737 CURVE",
"401 737 LINE",
"417 684 OFFCURVE",
"441 620 OFFCURVE",
"469 548 CURVE SMOOTH",
"683 0 LINE",
"783 0 LINE",
"441 849 LINE",
"355 849 LINE",
"17 0 LINE"
);
}
);
vertWidth = 0;
width = 801;
}
);
note = "";
},
{
glyphname = uni10CEB.ltr;
layers = (
{
layerId = "1726D991-AB6C-46C4-B949-411F6BDA7822";
paths = (
{
closed = 1;
nodes = (
"168 0 LINE",
"354 243 LINE",
"537 0 LINE",
"615 0 LINE",
"615 600 LINE",
"537 600 LINE",
"354 355 LINE",
"168 600 LINE",
"95 600 LINE",
"95 0 LINE"
);
},
{
closed = 1;
nodes = (
"170 472 LINE",
"173 472 LINE",
"307 300 LINE",
"173 126 LINE",
"170 126 LINE"
);
},
{
closed = 1;
nodes = (
"401 300 LINE",
"532 467 LINE",
"535 467 LINE",
"535 131 LINE",
"532 131 LINE"
);
}
);
vertWidth = 0;
width = 710;
}
);
note = "";
},
{
glyphname = uni10CE2_10CC9;
layers = (
{
layerId = "1726D991-AB6C-46C4-B949-411F6BDA7822";
paths = (
{
closed = 1;
nodes = (
"354 33 LINE",
"286 95 LINE",
"334 136 OFFCURVE",
"363 180 OFFCURVE",
"375 231 CURVE",
"551 345 LINE",
"551 0 LINE",
"638 0 LINE",
"638 600 LINE",
"551 600 LINE",
"551 434 LINE",
"382 325 LINE",
"377 394 OFFCURVE",
"348 450 OFFCURVE",
"289 502 CURVE",
"354 561 LINE",
"311 621 LINE",
"229 546 LINE",
"192 570 OFFCURVE",
"147 594 OFFCURVE",
"95 618 CURVE",
"50 551 LINE",
"97 529 OFFCURVE",
"135 509 OFFCURVE",
"167 490 CURVE",
"90 420 LINE",
"138 365 LINE",
"227 446 LINE",
"277 403 OFFCURVE",
"294 359 OFFCURVE",
"294 300 CURVE SMOOTH",
"294 239 OFFCURVE",
"277 192 OFFCURVE",
"227 148 CURVE",
"138 229 LINE",
"90 174 LINE",
"166 104 LINE",
"136 86 OFFCURVE",
"99 67 OFFCURVE",
"54 47 CURVE",
"91 -20 LINE",
"144 4 OFFCURVE",
"188 27 OFFCURVE",
"226 51 CURVE",
"311 -27 LINE"
);
}
);
vertWidth = 0;
width = 733;
}
);
note = "";
},
{
glyphname = uni10CE6;
layers = (
{
layerId = "1726D991-AB6C-46C4-B949-411F6BDA7822";
paths = (
{
closed = 1;
nodes = (
"372 0 LINE",
"372 600 LINE",
"285 600 LINE",
"285 371 LINE",
"83 624 LINE",
"18 567 LINE",
"285 241 LINE",
"285 0 LINE"
);
}
);
vertWidth = 0;
width = 467;
}
);
leftKerningGroup = uni10CE6;
note = "";
unicode = 10CE6;
},
{
glyphname = uni10CED;
layers = (
{
layerId = "1726D991-AB6C-46C4-B949-411F6BDA7822";
paths = (
{
closed = 1;
nodes = (
"491 0 LINE",
"491 457 LINE",
"406 457 LINE",
"173 272 LINE",
"173 600 LINE",
"86 600 LINE",
"86 169 LINE",
"170 169 LINE",
"404 354 LINE",
"404 0 LINE"
);
}
);
vertWidth = 0;
width = 577;
}
);
note = "";
unicode = 10CED;
},
{
glyphname = uni10CD9_10CD0.ltr;
layers = (
{
layerId = "1726D991-AB6C-46C4-B949-411F6BDA7822";
paths = (
{
closed = 1;
nodes = (
"394 47 LINE",
"207 131 OFFCURVE",
"154 193 OFFCURVE",
"154 300 CURVE SMOOTH",
"154 367 OFFCURVE",
"176 415 OFFCURVE",
"244 465 CURVE",
"329 367 LINE",
"383 414 LINE",
"305 504 LINE",
"332 519 OFFCURVE",
"363 534 OFFCURVE",
"398 551 CURVE",
"353 618 LINE",
"315 600 OFFCURVE",
"281 583 OFFCURVE",
"252 566 CURVE",
"180 649 LINE",
"125 600 LINE",
"190 526 LINE",
"102 462 OFFCURVE",
"65 393 OFFCURVE",
"65 300 CURVE SMOOTH",
"65 160 OFFCURVE",
"146 76 OFFCURVE",
"357 -20 CURVE"
);
}
);
vertWidth = 0;
width = 448;
}
);
note = "";
},
{
glyphname = uni10CC2.ltr;
layers = (
{
layerId = "1726D991-AB6C-46C4-B949-411F6BDA7822";
paths = (
{
closed = 1;
nodes = (
"111 0 LINE",
"271 253 LINE",
"434 0 LINE",
"528 0 LINE",
"321 311 LINE",
"516 600 LINE",
"417 600 LINE",
"268 371 LINE",
"119 600 LINE",
"25 600 LINE",
"217 313 LINE",
"10 0 LINE"
);
}
);
vertWidth = 0;
width = 538;
}
);
leftKerningGroup = uni10CC2;
rightKerningGroup = uni10CC2;
note = "";
},
{
glyphname = uni10CE3;
layers = (
{
layerId = "1726D991-AB6C-46C4-B949-411F6BDA7822";
paths = (
{
closed = 1;
nodes = (
"409 372 LINE",
"369 440 LINE",
"27 245 LINE",
"66 177 LINE"
);
}
);
vertWidth = 0;
width = 441;
}
);
note = "";
unicode = 10CE3;
},
{
glyphname = uni10CE4.ltr;
layers = (
{
layerId = "1726D991-AB6C-46C4-B949-411F6BDA7822";
paths = (
{
closed = 1;
nodes = (
"94 0 LINE",
"241 371 LINE SMOOTH",
"260 420 OFFCURVE",
"273 463 OFFCURVE",
"281 496 CURVE",
"285 496 LINE",
"293 461 OFFCURVE",
"304 429 OFFCURVE",
"327 371 CURVE SMOOTH",
"474 0 LINE",
"561 0 LINE",
"319 600 LINE",
"248 600 LINE",
"5 0 LINE"
);
}
);
vertWidth = 0;
width = 566;
}
);
leftKerningGroup = uni10CE4;
rightKerningGroup = uni10CE4;
note = "";
},
{
glyphname = uni10C9B.ltr;
layers = (
{
layerId = "1726D991-AB6C-46C4-B949-411F6BDA7822";
paths = (
{
closed = 1;
nodes = (
"579 198 LINE",
"517 259 LINE",
"335 90 LINE",
"215 193 OFFCURVE",
"169 282 OFFCURVE",
"169 419 CURVE SMOOTH",
"169 551 OFFCURVE",
"214 634 OFFCURVE",
"345 749 CURVE",
"517 590 LINE",
"579 651 LINE",
"343 869 LINE",
"147 708 OFFCURVE",
"75 590 OFFCURVE",
"75 419 CURVE SMOOTH",
"75 233 OFFCURVE",
"163 118 OFFCURVE",
"343 -20 CURVE"
);
}
);
vertWidth = 0;
width = 634;
}
);
rightKerningGroup = uni10C99;
note = "";
},
{
glyphname = uni10C9B;
layers = (
{
layerId = "1726D991-AB6C-46C4-B949-411F6BDA7822";
paths = (
{
closed = 1;
nodes = (
"471 118 OFFCURVE",
"559 233 OFFCURVE",
"559 419 CURVE SMOOTH",
"559 590 OFFCURVE",
"487 708 OFFCURVE",
"291 869 CURVE",
"55 651 LINE",
"117 590 LINE",
"289 749 LINE",
"420 634 OFFCURVE",
"465 551 OFFCURVE",
"465 419 CURVE SMOOTH",
"465 282 OFFCURVE",
"419 193 OFFCURVE",
"299 90 CURVE",
"117 259 LINE",
"55 198 LINE",
"291 -20 LINE"
);
}
);
vertWidth = 0;
width = 634;
}
);
rightKerningGroup = uni10C99;
note = "";
unicode = 10C9B;
},
{
glyphname = uni10C88;
layers = (
{
components = (
{
name = uni10C82;
}
);
layerId = "1726D991-AB6C-46C4-B949-411F6BDA7822";
paths = (
{
closed = 1;
nodes = (
"652 499 LINE",
"636 569 LINE",
"30 389 LINE",
"54 322 LINE"
);
}
);
vertWidth = 0;
width = 691;
}
);
note = "";
unicode = 10C88;
},
{
glyphname = uni10CC8.ltr;
layers = (
{
layerId = "1726D991-AB6C-46C4-B949-411F6BDA7822";
paths = (
{
closed = 1;
nodes = (
"111 0 LINE",
"271 253 LINE",
"434 0 LINE",
"528 0 LINE",
"360 252 LINE",
"482 217 LINE",
"505 278 LINE",
"332 328 LINE",
"516 600 LINE",
"417 600 LINE",
"268 371 LINE",
"119 600 LINE",
"25 600 LINE",
"177 372 LINE",
"57 407 LINE",
"42 343 LINE",
"206 296 LINE",
"10 0 LINE"
);
}
);
vertWidth = 0;
width = 538;
}
);
note = "";
},
{
glyphname = uni10CD6_10CC0.ltr;
layers = (
{
layerId = "1726D991-AB6C-46C4-B949-411F6BDA7822";
paths = (
{
closed = 1;
nodes = (
"93 0 LINE",
"144 117 LINE",
"189 0 LINE",
"273 0 LINE",
"186 212 LINE",
"227 305 LINE",
"355 0 LINE",
"439 0 LINE",
"268 399 LINE",
"283 437 OFFCURVE",
"296 472 OFFCURVE",
"304 498 CURVE",
"308 498 LINE",
"318 466 OFFCURVE",
"332 428 OFFCURVE",
"357 371 CURVE SMOOTH",
"522 0 LINE",
"607 0 LINE",
"481 285 LINE",
"676 417 LINE",
"635 505 LINE",
"377 600 LINE",
"271 600 LINE",
"5 0 LINE"
);
},
{
closed = 1;
nodes = (
"379 516 LINE",
"580 441 LINE",
"450 354 LINE"
);
}
);
vertWidth = 0;
width = 700;
}
);
rightKerningGroup = uni10CE4;
note = "";
},
{
glyphname = uni10CEE_10CEE.ltr;
layers = (
{
layerId = "1726D991-AB6C-46C4-B949-411F6BDA7822";
paths = (
{
closed = 1;
nodes = (
"180 0 LINE",
"180 252 LINE",
"331 144 LINE",
"482 256 LINE",
"482 0 LINE",
"567 0 LINE",
"567 600 LINE",
"490 600 LINE",
"331 486 LINE",
"174 600 LINE",
"95 600 LINE",
"95 0 LINE"
);
},
{
closed = 1;
nodes = (
"180 346 LINE",
"180 499 LINE",
"331 394 LINE",
"482 499 LINE",
"482 344 LINE",
"331 236 LINE"
);
}
);
vertWidth = 0;
width = 662;
}
);
note = "";
},
{
glyphname = uni10CD3.ltr;
layers = (
{
layerId = "1726D991-AB6C-46C4-B949-411F6BDA7822";
paths = (
{
closed = 1;
nodes = (
"284 0 LINE",
"460 304 LINE",
"284 600 LINE",
"208 600 LINE",
"33 304 LINE",
"208 0 LINE"
);
},
{
closed = 1;
nodes = (
"123 303 LINE",
"246 517 LINE",
"370 303 LINE",
"246 83 LINE"
);
}
);
vertWidth = 0;
width = 493;
}
);
note = "";
},
{
glyphname = uni10CD9_10CD0;
layers = (
{
layerId = "1726D991-AB6C-46C4-B949-411F6BDA7822";
paths = (
{
closed = 1;
nodes = (
"302 76 OFFCURVE",
"383 160 OFFCURVE",
"383 300 CURVE SMOOTH",
"383 393 OFFCURVE",
"346 462 OFFCURVE",
"258 526 CURVE",
"323 600 LINE",
"268 649 LINE",
"196 566 LINE",
"167 583 OFFCURVE",
"133 600 OFFCURVE",
"95 618 CURVE",
"50 551 LINE",
"85 534 OFFCURVE",
"116 519 OFFCURVE",
"143 504 CURVE",
"65 414 LINE",
"119 367 LINE",
"204 465 LINE",
"272 415 OFFCURVE",
"294 367 OFFCURVE",
"294 300 CURVE SMOOTH",
"294 193 OFFCURVE",
"241 131 OFFCURVE",
"54 47 CURVE",
"91 -20 LINE"
);
}
);
vertWidth = 0;
width = 448;
}
);
note = "";
},
{
glyphname = uni10CCC;
layers = (
{
layerId = "1726D991-AB6C-46C4-B949-411F6BDA7822";
paths = (
{
closed = 1;
nodes = (
"312 0 LINE",
"425 85 OFFCURVE",
"501 174 OFFCURVE",
"501 300 CURVE SMOOTH",
"501 425 OFFCURVE",
"425 514 OFFCURVE",
"312 600 CURVE",
"243 600 LINE",
"130 514 OFFCURVE",
"55 425 OFFCURVE",
"55 300 CURVE SMOOTH",
"55 174 OFFCURVE",
"130 85 OFFCURVE",
"243 0 CURVE"
);
},
{
closed = 1;
nodes = (
"242 93 OFFCURVE",
"214 120 OFFCURVE",
"192 147 CURVE",
"278 247 LINE",
"364 147 LINE",
"342 120 OFFCURVE",
"314 93 OFFCURVE",
"279 64 CURVE",
"277 64 LINE"
);
},
{
closed = 1;
nodes = (
"142 235 OFFCURVE",
"136 265 OFFCURVE",
"136 300 CURVE SMOOTH",
"136 334 OFFCURVE",
"142 364 OFFCURVE",
"154 392 CURVE",
"234 298 LINE",
"154 207 LINE"
);
},
{
closed = 1;
nodes = (
"322 298 LINE",
"402 391 LINE",
"414 363 OFFCURVE",
"420 334 OFFCURVE",
"420 300 CURVE SMOOTH",
"420 266 OFFCURVE",
"414 236 OFFCURVE",
"402 208 CURVE"
);
},
{
closed = 1;
nodes = (
"190 450 LINE",
"212 477 OFFCURVE",
"241 505 OFFCURVE",
"277 536 CURVE",
"279 536 LINE",
"315 505 OFFCURVE",
"344 477 OFFCURVE",
"366 449 CURVE",
"278 349 LINE"
);
}
);
vertWidth = 0;
width = 556;
}
);
leftKerningGroup = uni10CD7;
note = "";
unicode = 10CCC;
},
{
glyphname = uni10CAE.ltr;
layers = (
{
layerId = "1726D991-AB6C-46C4-B949-411F6BDA7822";
paths = (
{
closed = 1;
nodes = (
"228 0 LINE",
"228 742 LINE",
"451 574 LINE",
"674 742 LINE",
"674 0 LINE",
"764 0 LINE",
"764 849 LINE",
"676 849 LINE",
"451 675 LINE",
"226 849 LINE",
"138 849 LINE",
"138 0 LINE"
);
}
);
vertWidth = 0;
width = 888;
}
);
note = "";
},
{
glyphname = uni10CCF;
layers = (
{
layerId = "1726D991-AB6C-46C4-B949-411F6BDA7822";
paths = (
{
closed = 1;
nodes = (
"152 0 LINE",
"268 105 LINE",
"385 0 LINE",
"492 0 LINE",
"323 154 LINE",
"496 311 LINE",
"324 455 LINE",
"494 600 LINE",
"386 600 LINE",
"268 501 LINE",
"151 600 LINE",
"42 600 LINE",
"213 455 LINE",
"40 311 LINE",
"213 154 LINE",
"44 0 LINE"
);
},
{
closed = 1;
nodes = (
"155 310 LINE",
"268 407 LINE",
"383 310 LINE",
"268 205 LINE"
);
}
);
vertWidth = 0;
width = 536;
}
);
note = "";
unicode = 10CCF;
},
{
glyphname = uni10CA6;
layers = (
{
layerId = "1726D991-AB6C-46C4-B949-411F6BDA7822";
paths = (
{
closed = 1;
nodes = (
"446 0 LINE",
"446 849 LINE",
"356 849 LINE",
"356 491 LINE",
"82 875 LINE",
"10 826 LINE",
"356 351 LINE",
"356 0 LINE"
);
}
);
vertWidth = 0;
width = 567;
}
);
note = "";
unicode = 10CA6;
},
{
glyphname = uni10CC6.ltr;
layers = (
{
layerId = "1726D991-AB6C-46C4-B949-411F6BDA7822";
paths = (
{
closed = 1;
nodes = (
"180 0 LINE",
"180 170 LINE",
"444 0 LINE",
"520 0 LINE",
"520 600 LINE",
"435 600 LINE",
"435 428 LINE",
"171 600 LINE",
"95 600 LINE",
"95 0 LINE"
);
},
{
closed = 1;
nodes = (
"180 255 LINE",
"180 510 LINE",
"435 343 LINE",
"435 91 LINE"
);
}
);
vertWidth = 0;
width = 615;
}
);
note = "";
},
{
glyphname = uni10CAB.ltr;
layers = (
{
layerId = "1726D991-AB6C-46C4-B949-411F6BDA7822";
paths = (
{
closed = 1;
nodes = (
"198 0 LINE",
"475 358 LINE",
"749 0 LINE",
"831 0 LINE",
"831 849 LINE",
"749 849 LINE",
"475 493 LINE",
"198 849 LINE",
"116 849 LINE",
"116 0 LINE"
);
},
{
closed = 1;
nodes = (
"205 704 LINE",
"209 704 LINE",
"425 424 LINE",
"209 146 LINE",
"205 146 LINE"
);
},
{
closed = 1;
nodes = (
"527 424 LINE",
"738 696 LINE",
"742 696 LINE",
"742 154 LINE",
"738 154 LINE"
);
}
);
vertWidth = 0;
width = 953;
}
);
note = "";
},
{
glyphname = uni10CE0.ltr;
layers = (
{
layerId = "1726D991-AB6C-46C4-B949-411F6BDA7822";
paths = (
{
closed = 1;
nodes = (
"411 45 LINE",
"180 232 LINE",
"180 322 LINE",
"361 170 LINE",
"411 223 LINE",
"180 411 LINE",
"180 501 LINE",
"361 348 LINE",
"411 401 LINE",
"170 600 LINE",
"95 600 LINE",
"95 0 LINE",
"180 0 LINE",
"180 144 LINE",
"361 -9 LINE"
);
}
);
vertWidth = 0;
width = 453;
}
);
note = "";
},
{
glyphname = uni10C94.ltr;
layers = (
{
layerId = "1726D991-AB6C-46C4-B949-411F6BDA7822";
paths = (
{
closed = 1;
nodes = (
"348 0 LINE",
"348 725 LINE",
"530 562 LINE",
"589 626 LINE",
"340 849 LINE",
"258 849 LINE",
"258 123 LINE",
"76 287 LINE",
"17 223 LINE",
"266 0 LINE"
);
}
);
vertWidth = 0;
width = 613;
}
);
note = "";
},
{
glyphname = uni10CCE.ltr;
layers = (
{
layerId = "1726D991-AB6C-46C4-B949-411F6BDA7822";
paths = (
{
closed = 1;
nodes = (
"267 0 LINE",
"267 141 LINE",
"383 76 LINE",
"418 138 LINE",
"267 223 LINE",
"267 328 LINE",
"383 262 LINE",
"418 324 LINE",
"267 409 LINE",
"267 600 LINE",
"180 600 LINE",
"180 454 LINE",
"58 522 LINE",
"29 459 LINE",
"180 372 LINE",
"180 269 LINE",
"58 336 LINE",
"29 273 LINE",
"180 185 LINE",
"180 0 LINE"
);
}
);
vertWidth = 0;
width = 450;
}
);
note = "";
},
{
glyphname = uni10CEF_10CE2.ltr;
layers = (
{
layerId = "1726D991-AB6C-46C4-B949-411F6BDA7822";
paths = (
{
closed = 1;
nodes = (
"180 0 LINE",
"180 173 LINE",
"435 0 LINE",
"522 0 LINE",
"522 345 LINE",
"785 175 LINE",
"785 0 LINE",
"872 0 LINE",
"872 600 LINE",
"785 600 LINE",
"785 264 LINE",
"522 434 LINE",
"522 600 LINE",
"435 600 LINE",
"435 427 LINE",
"180 600 LINE",
"95 600 LINE",
"95 0 LINE"
);
},
{
closed = 1;
nodes = (
"180 254 LINE",
"180 346 LINE",
"435 173 LINE",
"435 81 LINE"
);
},
{
closed = 1;
nodes = (
"180 427 LINE",
"180 519 LINE",
"435 346 LINE",
"435 254 LINE"
);
}
);
vertWidth = 0;
width = 967;
}
);
note = "";
},
{
glyphname = uni10C90.ltr;
layers = (
{
layerId = "1726D991-AB6C-46C4-B949-411F6BDA7822";
paths = (
{
closed = 1;
nodes = (
"362 0 LINE",
"362 472 LINE",
"531 381 LINE",
"570 453 LINE",
"362 566 LINE",
"362 849 LINE",
"266 849 LINE",
"266 618 LINE",
"97 709 LINE",
"58 635 LINE",
"266 523 LINE",
"266 0 LINE"
);
}
);
vertWidth = 0;
width = 627;
}
);
note = "";
},
{
glyphname = uni10C81;
layers = (
{
layerId = "1726D991-AB6C-46C4-B949-411F6BDA7822";
paths = (
{
closed = 1;
nodes = (
"400 0 LINE",
"400 849 LINE",
"307 849 LINE",
"23 573 LINE",
"23 497 LINE",
"310 252 LINE",
"310 0 LINE"
);
},
{
closed = 1;
nodes = (
"107 536 LINE",
"310 744 LINE",
"310 367 LINE"
);
}
);
vertWidth = 0;
width = 529;
}
);
note = "";
unicode = 10C81;
},
{
glyphname = uni10CB1.ltr;
layers = (
{
layerId = "1726D991-AB6C-46C4-B949-411F6BDA7822";
paths = (
{
closed = 1;
nodes = (
"479 0 LINE",
"681 212 LINE",
"790 98 LINE",
"846 158 LINE",
"678 326 LINE",
"479 112 LINE",
"479 266 LINE",
"681 478 LINE",
"790 364 LINE",
"846 423 LINE",
"678 592 LINE",
"479 378 LINE",
"479 532 LINE",
"681 744 LINE",
"790 631 LINE",
"846 690 LINE",
"678 859 LINE",
"479 645 LINE",
"479 849 LINE",
"389 849 LINE",
"389 645 LINE",
"189 859 LINE",
"21 690 LINE",
"78 631 LINE",
"187 744 LINE",
"389 532 LINE",
"389 378 LINE",
"189 592 LINE",
"21 423 LINE",
"78 364 LINE",
"187 478 LINE",
"389 266 LINE",
"389 112 LINE",
"189 326 LINE",
"21 158 LINE",
"78 98 LINE",
"187 212 LINE",
"389 0 LINE"
);
}
);
vertWidth = 0;
width = 866;
}
);
note = "";
},
{
glyphname = uni10CD1_10CE6.ltr;
layers = (
{
layerId = "1726D991-AB6C-46C4-B949-411F6BDA7822";
paths = (
{
closed = 1;
nodes = (
"199 0 LINE",
"199 204 LINE",
"536 567 LINE",
"471 624 LINE",
"199 334 LINE",
"199 546 LINE",
"287 510 LINE",
"312 573 LINE",
"37 685 LINE",
"14 621 LINE",
"112 581 LINE",
"112 0 LINE"
);
}
);
vertWidth = 0;
width = 541;
}
);
leftKerningGroup = uni10CE6;
note = "";
},
{
glyphname = uni10C84;
layers = (
{
layerId = "1726D991-AB6C-46C4-B949-411F6BDA7822";
paths = (
{
closed = 1;
nodes = (
"355 0 LINE",
"355 725 LINE",
"537 562 LINE",
"596 626 LINE",
"347 849 LINE",
"273 849 LINE",
"24 626 LINE",
"83 562 LINE",
"265 725 LINE",
"265 0 LINE"
);
}
);
vertWidth = 0;
width = 620;
}
);
note = "";
unicode = 10C84;
},
{
glyphname = uni10C9E.ltr;
layers = (
{
layerId = "1726D991-AB6C-46C4-B949-411F6BDA7822";
paths = (
{
closed = 1;
nodes = (
"132 0 LINE",
"411 431 LINE",
"411 0 LINE",
"501 0 LINE",
"501 849 LINE",
"411 849 LINE",
"411 433 LINE",
"136 849 LINE",
"27 849 LINE",
"307 437 LINE",
"18 0 LINE"
);
}
);
vertWidth = 0;
width = 624;
}
);
note = "";
},
{
glyphname = uni10CE5.ltr;
layers = (
{
layerId = "1726D991-AB6C-46C4-B949-411F6BDA7822";
paths = (
{
closed = 1;
nodes = (
"182 0 LINE",
"182 600 LINE",
"95 600 LINE",
"95 0 LINE"
);
}
);
vertWidth = 0;
width = 277;
}
);
note = "";
},
{
glyphname = uni10CCE;
layers = (
{
layerId = "1726D991-AB6C-46C4-B949-411F6BDA7822";
paths = (
{
closed = 1;
nodes = (
"270 0 LINE",
"270 185 LINE",
"421 273 LINE",
"392 336 LINE",
"270 269 LINE",
"270 372 LINE",
"421 459 LINE",
"392 522 LINE",
"270 454 LINE",
"270 600 LINE",
"183 600 LINE",
"183 409 LINE",
"32 324 LINE",
"67 262 LINE",
"183 328 LINE",
"183 223 LINE",
"32 138 LINE",
"67 76 LINE",
"183 141 LINE",
"183 0 LINE"
);
}
);
vertWidth = 0;
width = 450;
}
);
note = "";
unicode = 10CCE;
},
{
glyphname = uni10CC2_10CC0.ltr;
layers = (
{
layerId = "1726D991-AB6C-46C4-B949-411F6BDA7822";
paths = (
{
closed = 1;
nodes = (
"111 0 LINE",
"271 253 LINE",
"434 0 LINE",
"528 0 LINE",
"321 311 LINE",
"346 348 LINE",
"548 246 LINE",
"616 302 LINE",
"537 600 LINE",
"417 600 LINE",
"268 371 LINE",
"119 600 LINE",
"25 600 LINE",
"217 313 LINE",
"10 0 LINE"
);
},
{
closed = 1;
nodes = (
"387 408 LINE",
"473 536 LINE",
"525 342 LINE"
);
}
);
vertWidth = 0;
width = 646;
}
);
rightKerningGroup = uni10CC2;
note = "";
},
{
glyphname = uni10CEE_10CC1_10CE2.ltr;
layers = (
{
layerId = "1726D991-AB6C-46C4-B949-411F6BDA7822";
paths = (
{
closed = 1;
nodes = (
"180 0 LINE",
"180 499 LINE",
"331 394 LINE",
"482 499 LINE",
"482 317 LINE",
"292 245 LINE",
"320 178 LINE",
"482 240 LINE",
"482 0 LINE",
"567 0 LINE",
"567 192 LINE",
"867 71 LINE",
"867 0 LINE",
"954 0 LINE",
"954 600 LINE",
"867 600 LINE",
"867 154 LINE",
"580 270 LINE",
"817 361 LINE",
"817 449 LINE",
"599 600 LINE",
"490 600 LINE",
"331 486 LINE",
"174 600 LINE",
"95 600 LINE",
"95 0 LINE"
);
},
{
closed = 1;
nodes = (
"567 523 LINE",
"741 413 LINE",
"567 346 LINE"
);
}
);
vertWidth = 0;
width = 1049;
}
);
note = "";
},
{
glyphname = uni10CC7;
layers = (
{
layerId = "1726D991-AB6C-46C4-B949-411F6BDA7822";
paths = (
{
closed = 1;
nodes = (
"262 0 LINE",
"262 290 LINE",
"411 366 LINE",
"378 434 LINE",
"262 374 LINE",
"262 600 LINE",
"175 600 LINE",
"175 328 LINE",
"26 251 LINE",
"60 186 LINE",
"175 245 LINE",
"175 0 LINE"
);
}
);
vertWidth = 0;
width = 437;
}
);
note = "";
unicode = 10CC7;
},
{
glyphname = uni10CD3_10CE5;
layers = (
{
layerId = "1726D991-AB6C-46C4-B949-411F6BDA7822";
paths = (
{
closed = 1;
nodes = (
"331 0 LINE",
"516 304 LINE",
"331 600 LINE",
"219 600 LINE",
"33 304 LINE",
"219 0 LINE"
);
},
{
closed = 1;
nodes = (
"126 303 LINE",
"238 496 LINE",
"238 104 LINE"
);
},
{
closed = 1;
nodes = (
"314 493 LINE",
"423 303 LINE",
"314 107 LINE"
);
}
);
vertWidth = 0;
width = 549;
}
);
note = "";
},
{
glyphname = uni10CEC;
layers = (
{
layerId = "1726D991-AB6C-46C4-B949-411F6BDA7822";
paths = (
{
closed = 1;
nodes = (
"176 71 LINE",
"200 47 OFFCURVE",
"228 23 OFFCURVE",
"259 0 CURVE",
"328 0 LINE",
"359 23 OFFCURVE",
"387 47 OFFCURVE",
"412 71 CURVE",
"492 -15 LINE",
"551 38 LINE",
"461 129 LINE",
"496 179 OFFCURVE",
"517 235 OFFCURVE",
"517 300 CURVE SMOOTH",
"517 365 OFFCURVE",
"496 420 OFFCURVE",
"461 471 CURVE",
"551 560 LINE",
"492 613 LINE",
"412 528 LINE",
"387 552 OFFCURVE",
"359 576 OFFCURVE",
"328 600 CURVE",
"259 600 LINE",
"228 577 OFFCURVE",
"200 553 OFFCURVE",
"176 528 CURVE",
"97 613 LINE",
"38 560 LINE",
"127 471 LINE",
"91 421 OFFCURVE",
"71 365 OFFCURVE",
"71 300 CURVE SMOOTH",
"71 234 OFFCURVE",
"91 179 OFFCURVE",
"127 129 CURVE",
"38 38 LINE",
"97 -15 LINE"
);
},
{
closed = 1;
nodes = (
"197 145 OFFCURVE",
"154 205 OFFCURVE",
"154 300 CURVE SMOOTH",
"154 393 OFFCURVE",
"196 454 OFFCURVE",
"293 536 CURVE",
"295 536 LINE",
"390 454 OFFCURVE",
"434 393 OFFCURVE",
"434 300 CURVE SMOOTH",
"434 206 OFFCURVE",
"391 145 OFFCURVE",
"295 64 CURVE",
"293 64 LINE"
);
}
);
vertWidth = 0;
width = 589;
}
);
note = "";
unicode = 10CEC;
},
{
glyphname = uni10CA9.ltr;
layers = (
{
layerId = "1726D991-AB6C-46C4-B949-411F6BDA7822";
paths = (
{
closed = 1;
nodes = (
"404 50 LINE",
"379 124 LINE",
"176 65 LINE",
"372 373 LINE",
"620 0 LINE",
"720 0 LINE",
"426 436 LINE",
"690 849 LINE",
"583 849 LINE",
"368 500 LINE",
"177 789 LINE",
"380 729 LINE",
"401 802 LINE",
"115 883 LINE",
"54 828 LINE",
"317 441 LINE",
"53 37 LINE",
"117 -28 LINE"
);
}
);
vertWidth = 0;
width = 724;
}
);
note = "";
},
{
glyphname = uni10CAB;
layers = (
{
layerId = "1726D991-AB6C-46C4-B949-411F6BDA7822";
paths = (
{
closed = 1;
nodes = (
"204 0 LINE",
"478 358 LINE",
"755 0 LINE",
"837 0 LINE",
"837 849 LINE",
"755 849 LINE",
"478 493 LINE",
"204 849 LINE",
"122 849 LINE",
"122 0 LINE"
);
},
{
closed = 1;
nodes = (
"211 696 LINE",
"215 696 LINE",
"426 424 LINE",
"215 154 LINE",
"211 154 LINE"
);
},
{
closed = 1;
nodes = (
"528 424 LINE",
"744 704 LINE",
"748 704 LINE",
"748 146 LINE",
"744 146 LINE"
);
}
);
vertWidth = 0;
width = 953;
}
);
note = "";
unicode = 10CAB;
},
{
glyphname = uni10CCD.ltr;
layers = (
{
layerId = "1726D991-AB6C-46C4-B949-411F6BDA7822";
paths = (
{
closed = 1;
nodes = (
"93 0 LINE",
"182 225 LINE",
"265 0 LINE",
"352 0 LINE",
"224 330 LINE",
"240 371 LINE SMOOTH",
"259 420 OFFCURVE",
"272 463 OFFCURVE",
"280 496 CURVE",
"284 496 LINE",
"292 461 OFFCURVE",
"303 429 OFFCURVE",
"326 371 CURVE SMOOTH",
"473 0 LINE",
"560 0 LINE",
"318 600 LINE",
"247 600 LINE",
"4 0 LINE"
);
}
);
vertWidth = 0;
width = 565;
}
);
leftKerningGroup = uni10CE4;
rightKerningGroup = uni10CE4;
note = "";
},
{
glyphname = uni10CC2_10CE6.ltr;
layers = (
{
layerId = "1726D991-AB6C-46C4-B949-411F6BDA7822";
paths = (
{
closed = 1;
nodes = (
"111 0 LINE",
"271 253 LINE",
"434 0 LINE",
"528 0 LINE",
"321 311 LINE",
"353 359 LINE",
"600 381 LINE",
"594 458 LINE",
"408 440 LINE",
"516 600 LINE",
"417 600 LINE",
"268 371 LINE",
"119 600 LINE",
"25 600 LINE",
"217 313 LINE",
"10 0 LINE"
);
}
);
vertWidth = 0;
width = 646;
}
);
rightKerningGroup = uni10CC2;
note = "";
},
{
glyphname = uni10CE2_10CD0;
layers = (
{
layerId = "1726D991-AB6C-46C4-B949-411F6BDA7822";
paths = (
{
closed = 1;
nodes = (
"227 0 LINE",
"227 175 LINE",
"490 345 LINE",
"490 0 LINE",
"577 0 LINE",
"577 600 LINE",
"490 600 LINE",
"490 434 LINE",
"227 264 LINE",
"227 455 LINE",
"328 483 LINE",
"313 549 LINE",
"227 525 LINE",
"227 600 LINE",
"140 600 LINE",
"140 501 LINE",
"27 470 LINE",
"44 404 LINE",
"140 431 LINE",
"140 0 LINE"
);
}
);
vertWidth = 0;
width = 672;
}
);
note = "";
},
{
glyphname = uni10CE4_10CD0;
layers = (
{
layerId = "1726D991-AB6C-46C4-B949-411F6BDA7822";
paths = (
{
closed = 1;
nodes = (
"109 0 LINE",
"256 371 LINE SMOOTH",
"279 429 OFFCURVE",
"290 461 OFFCURVE",
"298 496 CURVE",
"302 496 LINE",
"310 463 OFFCURVE",
"323 420 OFFCURVE",
"342 371 CURVE SMOOTH",
"489 0 LINE",
"578 0 LINE",
"335 600 LINE",
"264 600 LINE",
"231 519 LINE",
"45 483 LINE",
"57 418 LINE",
"202 447 LINE",
"22 0 LINE"
);
}
);
vertWidth = 0;
width = 582;
}
);
rightKerningGroup = uni10CE4;
note = "";
},
{
glyphname = uni10CCB;
layers = (
{
layerId = "1726D991-AB6C-46C4-B949-411F6BDA7822";
paths = (
{
closed = 1;
nodes = (
"247 20 LINE",
"167 86 LINE",
"270 154 OFFCURVE",
"309 217 OFFCURVE",
"309 300 CURVE SMOOTH",
"309 382 OFFCURVE",
"270 445 OFFCURVE",
"166 514 CURVE",
"247 580 LINE",
"196 639 LINE",
"34 502 LINE",
"90 471 LINE",
"185 413 OFFCURVE",
"223 361 OFFCURVE",
"223 300 CURVE SMOOTH",
"223 241 OFFCURVE",
"189 191 OFFCURVE",
"104 137 CURVE",
"34 97 LINE",
"196 -41 LINE"
);
}
);
vertWidth = 0;
width = 354;
}
);
note = "";
unicode = 10CCB;
},
{
glyphname = uni10CE2_10CC0.ltr;
layers = (
{
layerId = "1726D991-AB6C-46C4-B949-411F6BDA7822";
paths = (
{
closed = 1;
nodes = (
"182 0 LINE",
"182 345 LINE",
"445 175 LINE",
"445 0 LINE",
"532 0 LINE",
"532 232 LINE",
"762 320 LINE",
"762 409 LINE",
"564 600 LINE",
"445 600 LINE",
"445 264 LINE",
"182 434 LINE",
"182 600 LINE",
"95 600 LINE",
"95 0 LINE"
);
},
{
closed = 1;
nodes = (
"532 523 LINE",
"686 373 LINE",
"532 316 LINE"
);
}
);
vertWidth = 0;
width = 794;
}
);
leftKerningGroup = uni10CC0;
note = "";
},
{
glyphname = uni10C90;
layers = (
{
layerId = "1726D991-AB6C-46C4-B949-411F6BDA7822";
paths = (
{
closed = 1;
nodes = (
"361 0 LINE",
"361 523 LINE",
"569 635 LINE",
"530 709 LINE",
"361 618 LINE",
"361 849 LINE",
"265 849 LINE",
"265 566 LINE",
"57 453 LINE",
"96 381 LINE",
"265 472 LINE",
"265 0 LINE"
);
}
);
vertWidth = 0;
width = 627;
}
);
note = "";
unicode = 10C90;
},
{
glyphname = uni10CC5.ltr;
layers = (
{
layerId = "1726D991-AB6C-46C4-B949-411F6BDA7822";
paths = (
{
closed = 1;
nodes = (
"252 0 LINE",
"443 166 LINE",
"394 224 LINE",
"267 112 LINE",
"267 488 LINE",
"394 376 LINE",
"443 434 LINE",
"252 600 LINE",
"195 600 LINE",
"4 434 LINE",
"53 376 LINE",
"180 488 LINE",
"180 112 LINE",
"53 224 LINE",
"4 166 LINE",
"195 0 LINE"
);
}
);
vertWidth = 0;
width = 447;
}
);
note = "";
},
{
glyphname = uni10CCF.ltr;
layers = (
{
layerId = "1726D991-AB6C-46C4-B949-411F6BDA7822";
paths = (
{
closed = 1;
nodes = (
"151 0 LINE",
"268 105 LINE",
"384 0 LINE",
"492 0 LINE",
"323 154 LINE",
"496 311 LINE",
"323 455 LINE",
"494 600 LINE",
"385 600 LINE",
"268 501 LINE",
"150 600 LINE",
"42 600 LINE",
"212 455 LINE",
"40 311 LINE",
"213 154 LINE",
"44 0 LINE"
);
},
{
closed = 1;
nodes = (
"153 310 LINE",
"268 407 LINE",
"381 310 LINE",
"268 205 LINE"
);
}
);
vertWidth = 0;
width = 536;
}
);
note = "";
},
{
glyphname = uni10CE2;
layers = (
{
layerId = "1726D991-AB6C-46C4-B949-411F6BDA7822";
paths = (
{
closed = 1;
nodes = (
"182 0 LINE",
"182 175 LINE",
"445 345 LINE",
"445 0 LINE",
"532 0 LINE",
"532 600 LINE",
"445 600 LINE",
"445 434 LINE",
"182 264 LINE",
"182 600 LINE",
"95 600 LINE",
"95 0 LINE"
);
}
);
vertWidth = 0;
width = 627;
}
);
note = "";
unicode = 10CE2;
},
{
glyphname = uni10CDE;
layers = (
{
layerId = "1726D991-AB6C-46C4-B949-411F6BDA7822";
paths = (
{
closed = 1;
nodes = (
"182 0 LINE",
"182 300 LINE",
"372 0 LINE",
"474 0 LINE",
"269 307 LINE",
"467 600 LINE",
"370 600 LINE",
"182 308 LINE",
"182 600 LINE",
"95 600 LINE",
"95 0 LINE"
);
}
);
vertWidth = 0;
width = 492;
}
);
rightKerningGroup = uni10CC2;
note = "";
unicode = 10CDE;
},
{
glyphname = uni10C8B;
layers = (
{
layerId = "1726D991-AB6C-46C4-B949-411F6BDA7822";
paths = (
{
closed = 1;
nodes = (
"338 30 LINE",
"231 119 LINE",
"372 218 OFFCURVE",
"430 306 OFFCURVE",
"430 424 CURVE SMOOTH",
"430 544 OFFCURVE",
"372 632 OFFCURVE",
"231 730 CURVE",
"338 819 LINE",
"280 887 LINE",
"88 721 LINE",
"260 617 OFFCURVE",
"336 541 OFFCURVE",
"336 424 CURVE SMOOTH",
"336 308 OFFCURVE",
"259 231 OFFCURVE",
"88 128 CURVE",
"280 -39 LINE"
);
}
);
vertWidth = 0;
width = 512;
}
);
note = "";
unicode = 10C8B;
},
{
glyphname = uni10CD8.ltr;
layers = (
{
layerId = "1726D991-AB6C-46C4-B949-411F6BDA7822";
paths = (
{
closed = 1;
nodes = (
"174 0 LINE",
"433 132 LINE",
"433 231 LINE",
"291 303 LINE",
"433 380 LINE",
"433 479 LINE",
"178 600 LINE",
"95 600 LINE",
"95 0 LINE"
);
},
{
closed = 1;
nodes = (
"175 284 LINE",
"360 185 LINE",
"175 93 LINE"
);
},
{
closed = 1;
nodes = (
"175 514 LINE",
"360 426 LINE",
"175 320 LINE"
);
}
);
vertWidth = 0;
width = 481;
}
);
note = "";
},
{
glyphname = uni10CEF_10CC0.ltr;
layers = (
{
layerId = "1726D991-AB6C-46C4-B949-411F6BDA7822";
paths = (
{
closed = 1;
nodes = (
"180 0 LINE",
"180 173 LINE",
"435 0 LINE",
"520 0 LINE",
"520 232 LINE",
"750 320 LINE",
"750 409 LINE",
"552 600 LINE",
"435 600 LINE",
"435 427 LINE",
"180 600 LINE",
"95 600 LINE",
"95 0 LINE"
);
},
{
closed = 1;
nodes = (
"180 254 LINE",
"180 346 LINE",
"435 173 LINE",
"435 81 LINE"
);
},
{
closed = 1;
nodes = (
"180 427 LINE",
"180 519 LINE",
"435 346 LINE",
"435 254 LINE"
);
},
{
closed = 1;
nodes = (
"520 523 LINE",
"674 373 LINE",
"520 316 LINE"
);
}
);
vertWidth = 0;
width = 782;
}
);
leftKerningGroup = uni10CC0;
note = "";
},
{
glyphname = uni10CD7;
layers = (
{
layerId = "1726D991-AB6C-46C4-B949-411F6BDA7822";
paths = (
{
closed = 1;
nodes = (
"312 0 LINE",
"425 85 OFFCURVE",
"501 174 OFFCURVE",
"501 300 CURVE SMOOTH",
"501 425 OFFCURVE",
"425 514 OFFCURVE",
"312 600 CURVE",
"243 600 LINE",
"130 514 OFFCURVE",
"55 425 OFFCURVE",
"55 300 CURVE SMOOTH",
"55 174 OFFCURVE",
"130 85 OFFCURVE",
"243 0 CURVE"
);
},
{
closed = 1;
nodes = (
"242 93 OFFCURVE",
"214 120 OFFCURVE",
"193 147 CURVE",
"401 389 LINE",
"412 362 OFFCURVE",
"418 333 OFFCURVE",
"418 300 CURVE SMOOTH",
"418 206 OFFCURVE",
"375 145 OFFCURVE",
"279 64 CURVE",
"277 64 LINE"
);
},
{
closed = 1;
nodes = (
"144 236 OFFCURVE",
"138 266 OFFCURVE",
"138 300 CURVE SMOOTH",
"138 393 OFFCURVE",
"180 454 OFFCURVE",
"277 536 CURVE",
"279 536 LINE",
"315 505 OFFCURVE",
"344 476 OFFCURVE",
"366 448 CURVE",
"155 208 LINE"
);
}
);
vertWidth = 0;
width = 556;
}
);
leftKerningGroup = uni10CD7;
rightKerningGroup = uni10CD9;
note = "";
unicode = 10CD7;
},
{
glyphname = uni10CF1;
layers = (
{
layerId = "1726D991-AB6C-46C4-B949-411F6BDA7822";
paths = (
{
closed = 1;
nodes = (
"395 0 LINE",
"540 152 LINE",
"629 85 LINE",
"676 140 LINE",
"537 246 LINE",
"395 98 LINE",
"395 192 LINE",
"540 336 LINE",
"629 268 LINE",
"676 324 LINE",
"537 429 LINE",
"395 285 LINE",
"395 375 LINE",
"540 519 LINE",
"629 452 LINE",
"676 507 LINE",
"537 613 LINE",
"395 469 LINE",
"395 600 LINE",
"310 600 LINE",
"310 469 LINE",
"169 613 LINE",
"30 507 LINE",
"77 452 LINE",
"166 519 LINE",
"310 375 LINE",
"310 285 LINE",
"169 429 LINE",
"30 324 LINE",
"77 268 LINE",
"166 336 LINE",
"310 192 LINE",
"310 98 LINE",
"169 246 LINE",
"30 140 LINE",
"77 85 LINE",
"166 152 LINE",
"310 0 LINE"
);
}
);
vertWidth = 0;
width = 706;
}
);
note = "";
unicode = 10CF1;
},
{
glyphname = uni10CB1;
layers = (
{
layerId = "1726D991-AB6C-46C4-B949-411F6BDA7822";
paths = (
{
closed = 1;
nodes = (
"477 -1 LINE",
"679 211 LINE",
"788 97 LINE",
"845 157 LINE",
"677 325 LINE",
"477 111 LINE",
"477 265 LINE",
"679 478 LINE",
"788 364 LINE",
"845 423 LINE",
"677 592 LINE",
"477 378 LINE",
"477 532 LINE",
"679 744 LINE",
"788 631 LINE",
"845 690 LINE",
"677 859 LINE",
"477 645 LINE",
"477 849 LINE",
"387 849 LINE",
"387 645 LINE",
"188 859 LINE",
"20 690 LINE",
"76 631 LINE",
"185 744 LINE",
"387 532 LINE",
"387 378 LINE",
"188 592 LINE",
"20 423 LINE",
"76 364 LINE",
"185 478 LINE",
"387 265 LINE",
"387 111 LINE",
"188 325 LINE",
"20 157 LINE",
"76 97 LINE",
"185 211 LINE",
"387 -1 LINE"
);
}
);
vertWidth = 0;
width = 866;
}
);
note = "";
unicode = 10CB1;
},
{
glyphname = uni10CC6_10CD0_10CD9.ltr;
layers = (
{
layerId = "1726D991-AB6C-46C4-B949-411F6BDA7822";
paths = (
{
closed = 1;
nodes = (
"939 47 LINE",
"752 131 OFFCURVE",
"699 193 OFFCURVE",
"699 300 CURVE SMOOTH",
"699 404 OFFCURVE",
"752 461 OFFCURVE",
"943 551 CURVE",
"898 618 LINE",
"806 575 OFFCURVE",
"739 535 OFFCURVE",
"693 492 CURVE",
"520 600 LINE",
"435 600 LINE",
"435 428 LINE",
"171 600 LINE",
"95 600 LINE",
"95 0 LINE",
"180 0 LINE",
"180 170 LINE",
"444 0 LINE",
"520 0 LINE",
"520 513 LINE",
"645 434 LINE",
"621 395 OFFCURVE",
"610 351 OFFCURVE",
"610 300 CURVE SMOOTH",
"610 160 OFFCURVE",
"691 76 OFFCURVE",
"902 -20 CURVE"
);
},
{
closed = 1;
nodes = (
"180 255 LINE",
"180 510 LINE",
"435 343 LINE",
"435 91 LINE"
);
}
);
vertWidth = 0;
width = 975;
}
);
note = "";
},
{
glyphname = uni10C98.ltr;
layers = (
{
layerId = "1726D991-AB6C-46C4-B949-411F6BDA7822";
paths = (
{
closed = 1;
nodes = (
"225 0 LINE",
"555 198 LINE",
"555 285 LINE",
"339 428 LINE",
"555 572 LINE",
"555 660 LINE",
"225 849 LINE",
"130 849 LINE",
"130 0 LINE"
);
},
{
closed = 1;
nodes = (
"220 412 LINE",
"471 246 LINE",
"220 100 LINE"
);
},
{
closed = 1;
nodes = (
"220 757 LINE",
"471 614 LINE",
"220 445 LINE"
);
}
);
vertWidth = 0;
width = 627;
}
);
note = "";
},
{
glyphname = uni10CEF_10CE2;
layers = (
{
layerId = "1726D991-AB6C-46C4-B949-411F6BDA7822";
paths = (
{
closed = 1;
nodes = (
"182 0 LINE",
"182 175 LINE",
"445 345 LINE",
"445 0 LINE",
"532 0 LINE",
"787 173 LINE",
"787 0 LINE",
"872 0 LINE",
"872 600 LINE",
"787 600 LINE",
"532 427 LINE",
"532 600 LINE",
"445 600 LINE",
"445 434 LINE",
"182 264 LINE",
"182 600 LINE",
"95 600 LINE",
"95 0 LINE"
);
},
{
closed = 1;
nodes = (
"532 173 LINE",
"787 346 LINE",
"787 254 LINE",
"532 81 LINE"
);
},
{
closed = 1;
nodes = (
"532 346 LINE",
"787 519 LINE",
"787 427 LINE",
"532 254 LINE"
);
}
);
vertWidth = 0;
width = 967;
}
);
note = "";
},
{
glyphname = uni10CFA;
layers = (
{
layerId = "1726D991-AB6C-46C4-B949-411F6BDA7822";
paths = (
{
closed = 1;
nodes = (
"182 0 LINE",
"182 600 LINE",
"95 600 LINE",
"95 0 LINE"
);
}
);
vertWidth = 0;
width = 277;
}
);
note = "";
unicode = 10CFA;
},
{
glyphname = uni10CC6_10CD0_10CD9;
layers = (
{
layerId = "1726D991-AB6C-46C4-B949-411F6BDA7822";
paths = (
{
closed = 1;
nodes = (
"284 76 OFFCURVE",
"365 160 OFFCURVE",
"365 300 CURVE SMOOTH",
"365 351 OFFCURVE",
"354 395 OFFCURVE",
"330 434 CURVE",
"455 513 LINE",
"455 0 LINE",
"531 0 LINE",
"795 170 LINE",
"795 0 LINE",
"880 0 LINE",
"880 600 LINE",
"804 600 LINE",
"540 428 LINE",
"540 600 LINE",
"455 600 LINE",
"282 492 LINE",
"236 535 OFFCURVE",
"169 575 OFFCURVE",
"77 618 CURVE",
"32 551 LINE",
"223 461 OFFCURVE",
"276 404 OFFCURVE",
"276 300 CURVE SMOOTH",
"276 193 OFFCURVE",
"223 131 OFFCURVE",
"36 47 CURVE",
"73 -20 LINE"
);
},
{
closed = 1;
nodes = (
"540 343 LINE",
"795 510 LINE",
"795 255 LINE",
"540 91 LINE"
);
}
);
vertWidth = 0;
width = 975;
}
);
note = "";
},
{
glyphname = uni10CEF_10CE6.ltr;
layers = (
{
layerId = "1726D991-AB6C-46C4-B949-411F6BDA7822";
paths = (
{
closed = 1;
nodes = (
"180 0 LINE",
"180 173 LINE",
"435 0 LINE",
"522 0 LINE",
"522 241 LINE",
"789 567 LINE",
"724 624 LINE",
"522 371 LINE",
"522 600 LINE",
"435 600 LINE",
"435 427 LINE",
"180 600 LINE",
"95 600 LINE",
"95 0 LINE"
);
},
{
closed = 1;
nodes = (
"180 254 LINE",
"180 346 LINE",
"435 173 LINE",
"435 81 LINE"
);
},
{
closed = 1;
nodes = (
"180 427 LINE",
"180 519 LINE",
"435 346 LINE",
"435 254 LINE"
);
}
);
vertWidth = 0;
width = 807;
}
);
leftKerningGroup = uni10CE6;
note = "";
},
{
glyphname = uni10CCD_10CC0;
layers = (
{
layerId = "1726D991-AB6C-46C4-B949-411F6BDA7822";
paths = (
{
closed = 1;
nodes = (
"182 0 LINE",
"329 371 LINE SMOOTH",
"352 429 OFFCURVE",
"363 461 OFFCURVE",
"371 496 CURVE",
"375 496 LINE",
"383 463 OFFCURVE",
"396 420 OFFCURVE",
"415 371 CURVE SMOOTH",
"431 330 LINE",
"303 0 LINE",
"390 0 LINE",
"473 225 LINE",
"562 0 LINE",
"651 0 LINE",
"408 600 LINE",
"304 600 LINE",
"35 483 LINE",
"22 388 LINE",
"218 304 LINE",
"95 0 LINE"
);
},
{
closed = 1;
nodes = (
"103 434 LINE",
"302 513 LINE",
"245 372 LINE"
);
}
);
vertWidth = 0;
width = 655;
}
);
rightKerningGroup = uni10CE4;
note = "";
},
{
glyphname = uni10CD0.ltr;
layers = (
{
layerId = "1726D991-AB6C-46C4-B949-411F6BDA7822";
paths = (
{
closed = 1;
nodes = (
"269 0 LINE",
"269 362 LINE",
"385 297 LINE",
"420 359 LINE",
"269 442 LINE",
"269 600 LINE",
"182 600 LINE",
"182 490 LINE",
"60 557 LINE",
"31 494 LINE",
"182 410 LINE",
"182 0 LINE"
);
}
);
vertWidth = 0;
width = 452;
}
);
note = "";
},
{
glyphname = uni10CCA.ltr;
layers = (
{
layerId = "1726D991-AB6C-46C4-B949-411F6BDA7822";
paths = (
{
closed = 1;
nodes = (
"123 4 OFFCURVE",
"167 27 OFFCURVE",
"204 50 CURVE",
"241 27 OFFCURVE",
"285 4 OFFCURVE",
"337 -20 CURVE",
"374 47 LINE",
"334 65 OFFCURVE",
"300 82 OFFCURVE",
"271 99 CURVE",
"336 156 OFFCURVE",
"363 218 OFFCURVE",
"363 300 CURVE SMOOTH",
"363 379 OFFCURVE",
"336 441 OFFCURVE",
"274 497 CURVE",
"303 514 OFFCURVE",
"337 532 OFFCURVE",
"378 551 CURVE",
"333 618 LINE",
"283 595 OFFCURVE",
"240 572 OFFCURVE",
"204 549 CURVE",
"168 572 OFFCURVE",
"125 595 OFFCURVE",
"75 618 CURVE",
"30 551 LINE",
"71 532 OFFCURVE",
"105 514 OFFCURVE",
"134 497 CURVE",
"72 441 OFFCURVE",
"45 379 OFFCURVE",
"45 300 CURVE SMOOTH",
"45 218 OFFCURVE",
"72 156 OFFCURVE",
"137 99 CURVE",
"108 82 OFFCURVE",
"74 65 OFFCURVE",
"34 47 CURVE",
"71 -20 LINE"
);
},
{
closed = 1;
nodes = (
"152 191 OFFCURVE",
"134 238 OFFCURVE",
"134 300 CURVE SMOOTH",
"134 360 OFFCURVE",
"152 405 OFFCURVE",
"204 449 CURVE",
"256 405 OFFCURVE",
"274 360 OFFCURVE",
"274 300 CURVE SMOOTH",
"274 238 OFFCURVE",
"256 191 OFFCURVE",
"204 146 CURVE"
);
}
);
vertWidth = 0;
width = 428;
}
);
note = "";
},
{
glyphname = uni10C8D.ltr;
layers = (
{
layerId = "1726D991-AB6C-46C4-B949-411F6BDA7822";
paths = (
{
closed = 1;
nodes = (
"120 0 LINE",
"277 404 LINE",
"421 0 LINE",
"515 0 LINE",
"321 518 LINE",
"333 548 LINE SMOOTH",
"361 620 OFFCURVE",
"384 681 OFFCURVE",
"398 737 CURVE",
"402 737 LINE",
"416 681 OFFCURVE",
"440 618 OFFCURVE",
"468 546 CURVE SMOOTH",
"680 0 LINE",
"780 0 LINE",
"441 849 LINE",
"354 849 LINE",
"21 0 LINE"
);
}
);
vertWidth = 0;
width = 801;
}
);
note = "";
},
{
glyphname = uni10CAD.ltr;
layers = (
{
layerId = "1726D991-AB6C-46C4-B949-411F6BDA7822";
paths = (
{
closed = 1;
nodes = (
"221 0 LINE",
"221 518 LINE",
"568 262 LINE",
"658 262 LINE",
"658 849 LINE",
"568 849 LINE",
"568 366 LINE",
"221 627 LINE",
"131 627 LINE",
"131 0 LINE"
);
}
);
vertWidth = 0;
width = 788;
}
);
note = "";
},
{
glyphname = uni10CE6.ltr;
layers = (
{
layerId = "1726D991-AB6C-46C4-B949-411F6BDA7822";
paths = (
{
closed = 1;
nodes = (
"182 0 LINE",
"182 241 LINE",
"449 567 LINE",
"384 624 LINE",
"182 371 LINE",
"182 600 LINE",
"95 600 LINE",
"95 0 LINE"
);
}
);
vertWidth = 0;
width = 467;
}
);
leftKerningGroup = uni10CE6;
note = "";
},
{
glyphname = uni10CC4_10CD4;
layers = (
{
layerId = "1726D991-AB6C-46C4-B949-411F6BDA7822";
paths = (
{
closed = 1;
nodes = (
"478 0 LINE",
"478 488 LINE",
"605 376 LINE",
"654 434 LINE",
"463 600 LINE",
"406 600 LINE",
"215 434 LINE",
"264 376 LINE",
"391 488 LINE",
"391 90 LINE",
"163 177 LINE",
"318 226 LINE",
"348 302 LINE",
"114 403 LINE",
"79 328 LINE",
"224 268 LINE",
"70 224 LINE",
"30 149 LINE",
"391 0 LINE"
);
}
);
vertWidth = 0;
width = 658;
}
);
rightKerningGroup = uni10CC4;
note = "";
},
{
glyphname = uni10CE8_10CC0.ltr;
layers = (
{
layerId = "1726D991-AB6C-46C4-B949-411F6BDA7822";
paths = (
{
closed = 1;
nodes = (
"111 0 LINE",
"180 109 LINE",
"248 0 LINE",
"335 0 LINE",
"223 177 LINE",
"271 253 LINE",
"434 0 LINE",
"528 0 LINE",
"321 311 LINE",
"347 349 LINE",
"550 246 LINE",
"618 302 LINE",
"539 600 LINE",
"417 600 LINE",
"356 507 LINE",
"299 600 LINE",
"211 600 LINE",
"313 440 LINE",
"268 371 LINE",
"119 600 LINE",
"25 600 LINE",
"217 313 LINE",
"10 0 LINE"
);
},
{
closed = 1;
nodes = (
"387 409 LINE",
"474 538 LINE",
"527 342 LINE"
);
}
);
vertWidth = 0;
width = 648;
}
);
note = "";
},
{
glyphname = uni10CED.ltr;
layers = (
{
layerId = "1726D991-AB6C-46C4-B949-411F6BDA7822";
paths = (
{
closed = 1;
nodes = (
"173 0 LINE",
"173 354 LINE",
"407 169 LINE",
"491 169 LINE",
"491 600 LINE",
"404 600 LINE",
"404 272 LINE",
"171 457 LINE",
"86 457 LINE",
"86 0 LINE"
);
}
);
vertWidth = 0;
width = 577;
}
);
note = "";
},
{
glyphname = uni10CE3.ltr;
layers = (
{
layerId = "1726D991-AB6C-46C4-B949-411F6BDA7822";
paths = (
{
closed = 1;
nodes = (
"414 245 LINE",
"72 440 LINE",
"32 372 LINE",
"375 177 LINE"
);
}
);
vertWidth = 0;
width = 441;
}
);
note = "";
},
{
glyphname = uni10CE2_10CE6.ltr;
layers = (
{
layerId = "1726D991-AB6C-46C4-B949-411F6BDA7822";
paths = (
{
closed = 1;
nodes = (
"182 0 LINE",
"182 345 LINE",
"445 175 LINE",
"445 0 LINE",
"532 0 LINE",
"532 300 LINE",
"781 565 LINE",
"719 621 LINE",
"532 416 LINE",
"532 600 LINE",
"445 600 LINE",
"445 264 LINE",
"182 434 LINE",
"182 600 LINE",
"95 600 LINE",
"95 0 LINE"
);
}
);
vertWidth = 0;
width = 792;
}
);
leftKerningGroup = uni10CE6;
note = "";
},
{
glyphname = uni10CB0.ltr;
layers = (
{
layerId = "1726D991-AB6C-46C4-B949-411F6BDA7822";
paths = (
{
closed = 1;
nodes = (
"446 0 LINE",
"446 363 LINE",
"786 826 LINE",
"712 877 LINE",
"446 505 LINE",
"446 849 LINE",
"356 849 LINE",
"356 505 LINE",
"90 877 LINE",
"16 826 LINE",
"356 363 LINE",
"356 0 LINE"
);
}
);
vertWidth = 0;
width = 796;
}
);
note = "";
},
{
glyphname = uni10CC0_10CC2;
layers = (
{
layerId = "1726D991-AB6C-46C4-B949-411F6BDA7822";
paths = (
{
closed = 1;
nodes = (
"111 0 LINE",
"271 253 LINE",
"434 0 LINE",
"528 0 LINE",
"321 311 LINE",
"346 348 LINE",
"548 246 LINE",
"616 302 LINE",
"537 600 LINE",
"417 600 LINE",
"268 371 LINE",
"119 600 LINE",
"25 600 LINE",
"217 313 LINE",
"10 0 LINE"
);
},
{
closed = 1;
nodes = (
"387 408 LINE",
"473 536 LINE",
"525 342 LINE"
);
}
);
vertWidth = 0;
width = 646;
}
);
leftKerningGroup = uni10CC2;
note = "";
},
{
glyphname = uni10CC1_10CE2.ltr;
layers = (
{
layerId = "1726D991-AB6C-46C4-B949-411F6BDA7822";
paths = (
{
closed = 1;
nodes = (
"347 0 LINE",
"347 141 LINE",
"488 57 LINE",
"488 143 LINE",
"347 228 LINE",
"347 375 LINE",
"610 205 LINE",
"610 0 LINE",
"697 0 LINE",
"697 600 LINE",
"610 600 LINE",
"610 294 LINE",
"347 464 LINE",
"347 600 LINE",
"228 600 LINE",
"30 409 LINE",
"30 330 LINE",
"260 193 LINE",
"260 0 LINE"
);
},
{
closed = 1;
nodes = (
"106 373 LINE",
"260 523 LINE",
"260 280 LINE"
);
}
);
vertWidth = 0;
width = 792;
}
);
note = "";
},
{
glyphname = uni10CC0;
layers = (
{
layerId = "1726D991-AB6C-46C4-B949-411F6BDA7822";
paths = (
{
closed = 1;
nodes = (
"349 0 LINE",
"349 600 LINE",
"230 600 LINE",
"32 409 LINE",
"32 300 LINE",
"262 289 LINE",
"262 0 LINE"
);
},
{
closed = 1;
nodes = (
"108 373 LINE",
"262 523 LINE",
"262 366 LINE"
);
}
);
vertWidth = 0;
width = 444;
}
);
leftKerningGroup = uni10CC0;
note = "";
unicode = 10CC0;
},
{
glyphname = uni10CA3.ltr;
layers = (
{
layerId = "1726D991-AB6C-46C4-B949-411F6BDA7822";
paths = (
{
closed = 1;
nodes = (
"561 336 LINE",
"99 609 LINE",
"57 535 LINE",
"520 262 LINE"
);
}
);
vertWidth = 0;
width = 613;
}
);
note = "";
},
{
glyphname = uni10CC3.ltr;
layers = (
{
layerId = "1726D991-AB6C-46C4-B949-411F6BDA7822";
paths = (
{
closed = 1;
nodes = (
"254 73 LINE",
"279 48 OFFCURVE",
"308 24 OFFCURVE",
"339 0 CURVE",
"408 0 LINE",
"440 24 OFFCURVE",
"469 49 OFFCURVE",
"494 74 CURVE",
"558 -1 LINE",
"711 65 LINE",
"681 131 LINE",
"581 83 LINE",
"543 132 LINE",
"577 181 OFFCURVE",
"596 236 OFFCURVE",
"596 300 CURVE SMOOTH",
"596 363 OFFCURVE",
"577 418 OFFCURVE",
"543 467 CURVE",
"581 515 LINE",
"681 467 LINE",
"711 535 LINE",
"558 600 LINE",
"495 525 LINE",
"469 551 OFFCURVE",
"440 575 OFFCURVE",
"408 600 CURVE",
"339 600 LINE",
"308 576 OFFCURVE",
"279 552 OFFCURVE",
"254 527 CURVE",
"192 600 LINE",
"40 535 LINE",
"68 467 LINE",
"170 515 LINE",
"206 470 LINE",
"170 420 OFFCURVE",
"150 365 OFFCURVE",
"150 300 CURVE SMOOTH",
"150 235 OFFCURVE",
"170 180 OFFCURVE",
"206 130 CURVE",
"170 83 LINE",
"68 131 LINE",
"40 65 LINE",
"192 -1 LINE"
);
},
{
closed = 1;
nodes = (
"276 145 OFFCURVE",
"233 206 OFFCURVE",
"233 300 CURVE SMOOTH",
"233 393 OFFCURVE",
"277 454 OFFCURVE",
"372 536 CURVE",
"374 536 LINE",
"471 454 OFFCURVE",
"513 393 OFFCURVE",
"513 300 CURVE SMOOTH",
"513 205 OFFCURVE",
"470 145 OFFCURVE",
"374 64 CURVE",
"372 64 LINE"
);
}
);
vertWidth = 0;
width = 751;
}
);
note = "";
},
{
glyphname = uni10CD6_10CC0;
layers = (
{
layerId = "1726D991-AB6C-46C4-B949-411F6BDA7822";
paths = (
{
closed = 1;
nodes = (
"178 0 LINE",
"343 371 LINE SMOOTH",
"368 428 OFFCURVE",
"382 466 OFFCURVE",
"392 498 CURVE",
"396 498 LINE",
"404 472 OFFCURVE",
"417 437 OFFCURVE",
"432 399 CURVE",
"261 0 LINE",
"345 0 LINE",
"473 305 LINE",
"514 212 LINE",
"427 0 LINE",
"511 0 LINE",
"556 117 LINE",
"607 0 LINE",
"695 0 LINE",
"429 600 LINE",
"323 600 LINE",
"65 505 LINE",
"24 417 LINE",
"219 285 LINE",
"93 0 LINE"
);
},
{
closed = 1;
nodes = (
"120 441 LINE",
"321 516 LINE",
"250 354 LINE"
);
}
);
vertWidth = 0;
width = 700;
}
);
rightKerningGroup = uni10CE4;
note = "";
},
{
glyphname = uni10CC2_10CE6;
layers = (
{
layerId = "1726D991-AB6C-46C4-B949-411F6BDA7822";
paths = (
{
closed = 1;
nodes = (
"212 0 LINE",
"375 253 LINE",
"535 0 LINE",
"636 0 LINE",
"429 313 LINE",
"621 600 LINE",
"527 600 LINE",
"378 371 LINE",
"229 600 LINE",
"130 600 LINE",
"238 440 LINE",
"52 458 LINE",
"46 381 LINE",
"293 359 LINE",
"325 311 LINE",
"118 0 LINE"
);
}
);
vertWidth = 0;
width = 646;
}
);
rightKerningGroup = uni10CC2;
note = "";
},
{
glyphname = uni10CA8;
layers = (
{
layerId = "1726D991-AB6C-46C4-B949-411F6BDA7822";
paths = (
{
closed = 1;
nodes = (
"364 -1 LINE",
"468 173 LINE",
"575 0 LINE",
"687 0 LINE",
"404 445 LINE",
"667 849 LINE",
"563 849 LINE",
"346 509 LINE",
"274 623 LINE",
"413 849 LINE",
"317 849 LINE",
"227 699 LINE",
"132 849 LINE",
"22 849 LINE",
"286 443 LINE",
"4 0 LINE",
"108 0 LINE",
"343 375 LINE",
"420 250 LINE",
"268 -1 LINE"
);
}
);
vertWidth = 0;
width = 691;
}
);
note = "";
unicode = 10CA8;
},
{
glyphname = uni10C97;
layers = (
{
layerId = "1726D991-AB6C-46C4-B949-411F6BDA7822";
paths = (
{
closed = 1;
nodes = (
"431 0 LINE",
"586 123 OFFCURVE",
"683 248 OFFCURVE",
"683 424 CURVE SMOOTH",
"683 601 OFFCURVE",
"586 727 OFFCURVE",
"431 849 CURVE",
"337 849 LINE",
"182 727 OFFCURVE",
"85 601 OFFCURVE",
"85 424 CURVE SMOOTH",
"85 248 OFFCURVE",
"182 123 OFFCURVE",
"338 0 CURVE"
);
},
{
closed = 1;
nodes = (
"327 121 OFFCURVE",
"283 164 OFFCURVE",
"250 209 CURVE",
"558 574 LINE",
"580 529 OFFCURVE",
"590 480 OFFCURVE",
"590 424 CURVE SMOOTH",
"590 283 OFFCURVE",
"524 192 OFFCURVE",
"386 72 CURVE",
"382 72 LINE"
);
},
{
closed = 1;
nodes = (
"188 322 OFFCURVE",
"178 369 OFFCURVE",
"178 424 CURVE SMOOTH",
"178 565 OFFCURVE",
"245 658 OFFCURVE",
"382 778 CURVE",
"386 778 LINE",
"442 729 OFFCURVE",
"486 685 OFFCURVE",
"519 641 CURVE",
"208 278 LINE"
);
}
);
vertWidth = 0;
width = 768;
}
);
rightKerningGroup = uni10C99;
note = "";
unicode = 10C97;
},
{
glyphname = uni10CCD_10CC0.ltr;
layers = (
{
layerId = "1726D991-AB6C-46C4-B949-411F6BDA7822";
paths = (
{
closed = 1;
nodes = (
"93 0 LINE",
"182 225 LINE",
"265 0 LINE",
"352 0 LINE",
"224 330 LINE",
"240 371 LINE SMOOTH",
"259 420 OFFCURVE",
"272 463 OFFCURVE",
"280 496 CURVE",
"284 496 LINE",
"292 461 OFFCURVE",
"303 429 OFFCURVE",
"326 371 CURVE SMOOTH",
"473 0 LINE",
"560 0 LINE",
"437 304 LINE",
"633 388 LINE",
"620 483 LINE",
"351 600 LINE",
"247 600 LINE",
"4 0 LINE"
);
},
{
closed = 1;
nodes = (
"353 513 LINE",
"552 434 LINE",
"410 372 LINE"
);
}
);
vertWidth = 0;
width = 655;
}
);
rightKerningGroup = uni10CE4;
note = "";
},
{
glyphname = uni10CC2_10CD0;
layers = (
{
layerId = "1726D991-AB6C-46C4-B949-411F6BDA7822";
paths = (
{
closed = 1;
nodes = (
"182 0 LINE",
"345 253 LINE",
"505 0 LINE",
"606 0 LINE",
"399 313 LINE",
"591 600 LINE",
"497 600 LINE",
"348 371 LINE",
"269 493 LINE",
"344 561 LINE",
"301 621 LINE",
"228 555 LINE",
"199 600 LINE",
"100 600 LINE",
"168 500 LINE",
"80 420 LINE",
"128 365 LINE",
"209 438 LINE",
"295 311 LINE",
"88 0 LINE"
);
}
);
vertWidth = 0;
width = 616;
}
);
rightKerningGroup = uni10CC2;
note = "";
},
{
glyphname = uni10CEF_10CE6;
layers = (
{
layerId = "1726D991-AB6C-46C4-B949-411F6BDA7822";
paths = (
{
closed = 1;
nodes = (
"372 0 LINE",
"627 173 LINE",
"627 0 LINE",
"712 0 LINE",
"712 600 LINE",
"627 600 LINE",
"372 427 LINE",
"372 600 LINE",
"285 600 LINE",
"285 371 LINE",
"83 624 LINE",
"18 567 LINE",
"285 241 LINE",
"285 0 LINE"
);
},
{
closed = 1;
nodes = (
"372 173 LINE",
"627 346 LINE",
"627 254 LINE",
"372 81 LINE"
);
},
{
closed = 1;
nodes = (
"372 346 LINE",
"627 519 LINE",
"627 427 LINE",
"372 254 LINE"
);
}
);
vertWidth = 0;
width = 807;
}
);
leftKerningGroup = uni10CE6;
note = "";
},
{
glyphname = uni10CD2.ltr;
layers = (
{
layerId = "1726D991-AB6C-46C4-B949-411F6BDA7822";
paths = (
{
closed = 1;
nodes = (
"182 0 LINE",
"182 485 LINE",
"342 331 LINE",
"396 383 LINE",
"172 600 LINE",
"95 600 LINE",
"95 0 LINE"
);
}
);
vertWidth = 0;
width = 407;
}
);
note = "";
},
{
glyphname = uni10CD6_10CE6;
layers = (
{
layerId = "1726D991-AB6C-46C4-B949-411F6BDA7822";
paths = (
{
closed = 1;
nodes = (
"147 0 LINE",
"312 371 LINE SMOOTH",
"337 428 OFFCURVE",
"351 466 OFFCURVE",
"361 498 CURVE",
"365 498 LINE",
"373 472 OFFCURVE",
"386 437 OFFCURVE",
"401 399 CURVE",
"230 0 LINE",
"314 0 LINE",
"442 305 LINE",
"483 212 LINE",
"396 0 LINE",
"480 0 LINE",
"525 117 LINE",
"576 0 LINE",
"664 0 LINE",
"398 600 LINE",
"327 600 LINE",
"245 413 LINE",
"98 625 LINE",
"29 578 LINE",
"207 329 LINE",
"62 0 LINE"
);
}
);
vertWidth = 0;
width = 668;
}
);
rightKerningGroup = uni10CE4;
note = "";
},
{
glyphname = uni10CE4_10CD3;
layers = (
{
layerId = "1726D991-AB6C-46C4-B949-411F6BDA7822";
paths = (
{
closed = 1;
nodes = (
"212 0 LINE",
"234 56 LINE",
"462 133 LINE",
"340 324 LINE",
"359 371 LINE SMOOTH",
"382 429 OFFCURVE",
"393 461 OFFCURVE",
"401 496 CURVE",
"405 496 LINE",
"413 463 OFFCURVE",
"426 420 OFFCURVE",
"445 371 CURVE SMOOTH",
"592 0 LINE",
"681 0 LINE",
"438 600 LINE",
"367 600 LINE",
"270 360 LINE",
"44 290 LINE",
"160 87 LINE",
"125 0 LINE"
);
},
{
closed = 1;
nodes = (
"138 254 LINE",
"242 290 LINE",
"189 159 LINE"
);
},
{
closed = 1;
nodes = (
"316 262 LINE",
"369 167 LINE",
"262 126 LINE"
);
}
);
vertWidth = 0;
width = 685;
}
);
rightKerningGroup = uni10CE4;
note = "";
},
{
glyphname = uni10CC2_10CD0.ltr;
layers = (
{
layerId = "1726D991-AB6C-46C4-B949-411F6BDA7822";
paths = (
{
closed = 1;
nodes = (
"111 0 LINE",
"271 253 LINE",
"434 0 LINE",
"528 0 LINE",
"321 311 LINE",
"407 438 LINE",
"488 365 LINE",
"536 420 LINE",
"448 500 LINE",
"516 600 LINE",
"417 600 LINE",
"388 555 LINE",
"315 621 LINE",
"272 561 LINE",
"347 493 LINE",
"268 371 LINE",
"119 600 LINE",
"25 600 LINE",
"217 313 LINE",
"10 0 LINE"
);
}
);
vertWidth = 0;
width = 616;
}
);
rightKerningGroup = uni10CC2;
note = "";
},
{
glyphname = uni10CEE_10CD8;
layers = (
{
layerId = "1726D991-AB6C-46C4-B949-411F6BDA7822";
paths = (
{
closed = 1;
nodes = (
"390 0 LINE",
"390 499 LINE",
"541 394 LINE",
"692 499 LINE",
"692 0 LINE",
"777 0 LINE",
"777 600 LINE",
"698 600 LINE",
"541 486 LINE",
"382 600 LINE",
"303 600 LINE",
"48 479 LINE",
"48 380 LINE",
"190 303 LINE",
"48 231 LINE",
"48 132 LINE",
"303 0 LINE"
);
},
{
closed = 1;
nodes = (
"121 185 LINE",
"305 283 LINE",
"305 93 LINE"
);
},
{
closed = 1;
nodes = (
"121 426 LINE",
"305 514 LINE",
"305 321 LINE"
);
}
);
vertWidth = 0;
width = 872;
}
);
note = "";
},
{
glyphname = uni10CE4_10CD8;
layers = (
{
layerId = "1726D991-AB6C-46C4-B949-411F6BDA7822";
paths = (
{
closed = 1;
nodes = (
"319 0 LINE",
"466 371 LINE SMOOTH",
"489 429 OFFCURVE",
"500 461 OFFCURVE",
"508 496 CURVE",
"512 496 LINE",
"520 463 OFFCURVE",
"533 420 OFFCURVE",
"552 371 CURVE SMOOTH",
"699 0 LINE",
"788 0 LINE",
"545 600 LINE",
"430 600 LINE",
"171 493 LINE",
"157 417 LINE",
"268 311 LINE",
"64 203 LINE",
"47 120 LINE",
"227 0 LINE"
);
},
{
closed = 1;
nodes = (
"133 159 LINE",
"342 277 LINE",
"260 74 LINE"
);
},
{
closed = 1;
nodes = (
"239 443 LINE",
"441 525 LINE",
"360 322 LINE"
);
}
);
vertWidth = 0;
width = 792;
}
);
rightKerningGroup = uni10CE4;
note = "";
},
{
glyphname = uni10CC9;
layers = (
{
layerId = "1726D991-AB6C-46C4-B949-411F6BDA7822";
paths = (
{
closed = 1;
nodes = (
"354 33 LINE",
"286 95 LINE",
"354 153 OFFCURVE",
"383 216 OFFCURVE",
"383 300 CURVE SMOOTH",
"383 382 OFFCURVE",
"355 444 OFFCURVE",
"289 502 CURVE",
"354 561 LINE",
"311 621 LINE",
"229 546 LINE",
"192 570 OFFCURVE",
"147 594 OFFCURVE",
"95 618 CURVE",
"50 551 LINE",
"97 529 OFFCURVE",
"135 509 OFFCURVE",
"167 490 CURVE",
"90 420 LINE",
"138 365 LINE",
"227 446 LINE",
"277 403 OFFCURVE",
"294 359 OFFCURVE",
"294 300 CURVE SMOOTH",
"294 239 OFFCURVE",
"277 192 OFFCURVE",
"227 148 CURVE",
"138 229 LINE",
"90 174 LINE",
"166 104 LINE",
"136 86 OFFCURVE",
"99 67 OFFCURVE",
"54 47 CURVE",
"91 -20 LINE",
"144 4 OFFCURVE",
"188 27 OFFCURVE",
"226 51 CURVE",
"311 -27 LINE"
);
}
);
vertWidth = 0;
width = 411;
}
);
note = "";
unicode = 10CC9;
},
{
glyphname = uni10CC0.ltr;
layers = (
{
layerId = "1726D991-AB6C-46C4-B949-411F6BDA7822";
paths = (
{
closed = 1;
nodes = (
"182 0 LINE",
"182 289 LINE",
"412 300 LINE",
"412 409 LINE",
"214 600 LINE",
"95 600 LINE",
"95 0 LINE"
);
},
{
closed = 1;
nodes = (
"182 523 LINE",
"336 373 LINE",
"182 366 LINE"
);
}
);
vertWidth = 0;
width = 444;
}
);
leftKerningGroup = uni10CC0;
note = "";
},
{
glyphname = uni10C8A.ltr;
layers = (
{
layerId = "1726D991-AB6C-46C4-B949-411F6BDA7822";
paths = (
{
closed = 1;
nodes = (
"205 12 OFFCURVE",
"253 45 OFFCURVE",
"293 77 CURVE",
"333 45 OFFCURVE",
"381 12 OFFCURVE",
"436 -24 CURVE",
"488 47 LINE",
"438 79 OFFCURVE",
"395 108 OFFCURVE",
"359 136 CURVE",
"449 226 OFFCURVE",
"484 314 OFFCURVE",
"484 424 CURVE SMOOTH",
"484 533 OFFCURVE",
"449 621 OFFCURVE",
"360 711 CURVE",
"397 741 OFFCURVE",
"441 772 OFFCURVE",
"493 806 CURVE",
"432 873 LINE",
"378 838 OFFCURVE",
"332 805 OFFCURVE",
"293 773 CURVE",
"254 805 OFFCURVE",
"208 838 OFFCURVE",
"154 873 CURVE",
"93 806 LINE",
"145 772 OFFCURVE",
"189 741 OFFCURVE",
"225 712 CURVE",
"137 621 OFFCURVE",
"102 534 OFFCURVE",
"102 424 CURVE SMOOTH",
"102 314 OFFCURVE",
"137 226 OFFCURVE",
"227 136 CURVE",
"191 108 OFFCURVE",
"148 79 OFFCURVE",
"98 47 CURVE",
"150 -24 LINE"
);
},
{
closed = 1;
nodes = (
"224 266 OFFCURVE",
"196 336 OFFCURVE",
"196 424 CURVE SMOOTH",
"196 512 OFFCURVE",
"222 579 OFFCURVE",
"293 651 CURVE",
"364 579 OFFCURVE",
"390 512 OFFCURVE",
"390 424 CURVE SMOOTH",
"390 336 OFFCURVE",
"362 266 OFFCURVE",
"293 195 CURVE"
);
}
);
vertWidth = 0;
width = 586;
}
);
note = "";
},
{
glyphname = uni10CE4_10CDB.ltr;
layers = (
{
layerId = "1726D991-AB6C-46C4-B949-411F6BDA7822";
paths = (
{
closed = 1;
nodes = (
"683 146 LINE",
"625 204 LINE",
"496 81 LINE",
"414 152 OFFCURVE",
"384 214 OFFCURVE",
"384 295 CURVE SMOOTH",
"384 377 OFFCURVE",
"413 435 OFFCURVE",
"503 514 CURVE",
"625 397 LINE",
"683 455 LINE",
"504 624 LINE",
"440 573 OFFCURVE",
"394 528 OFFCURVE",
"361 485 CURVE",
"314 600 LINE",
"247 600 LINE",
"4 0 LINE",
"93 0 LINE",
"240 371 LINE SMOOTH",
"259 420 OFFCURVE",
"272 463 OFFCURVE",
"280 496 CURVE",
"284 496 LINE",
"291 470 OFFCURVE",
"300 443 OFFCURVE",
"315 403 CURVE",
"303 369 OFFCURVE",
"297 333 OFFCURVE",
"297 295 CURVE SMOOTH",
"297 168 OFFCURVE",
"366 80 OFFCURVE",
"504 -22 CURVE"
);
}
);
vertWidth = 0;
width = 715;
}
);
rightKerningGroup = uni10CE4;
note = "";
},
{
glyphname = uni10CFC;
layers = (
{
layerId = "1726D991-AB6C-46C4-B949-411F6BDA7822";
paths = (
{
closed = 1;
nodes = (
"104 0 LINE",
"267 253 LINE",
"427 0 LINE",
"528 0 LINE",
"321 313 LINE",
"513 600 LINE",
"419 600 LINE",
"270 371 LINE",
"121 600 LINE",
"22 600 LINE",
"217 311 LINE",
"10 0 LINE"
);
}
);
vertWidth = 0;
width = 538;
}
);
note = "";
unicode = 10CFC;
},
{
glyphname = uni10CD9_10CE0.ltr;
layers = (
{
layerId = "1726D991-AB6C-46C4-B949-411F6BDA7822";
paths = (
{
closed = 1;
nodes = (
"522 80 LINE",
"477 144 LINE",
"368 73 LINE",
"323 110 OFFCURVE",
"293 144 OFFCURVE",
"274 180 CURVE",
"302 177 OFFCURVE",
"329 170 OFFCURVE",
"356 154 CURVE",
"382 202 LINE",
"340 227 OFFCURVE",
"298 237 OFFCURVE",
"252 238 CURVE",
"248 256 OFFCURVE",
"246 275 OFFCURVE",
"246 295 CURVE SMOOTH",
"246 302 LINE",
"279 298 OFFCURVE",
"310 289 OFFCURVE",
"340 269 CURVE",
"369 316 LINE",
"332 341 OFFCURVE",
"294 353 OFFCURVE",
"253 358 CURVE",
"259 378 OFFCURVE",
"267 398 OFFCURVE",
"278 417 CURVE",
"306 410 OFFCURVE",
"332 399 OFFCURVE",
"357 379 CURVE",
"389 424 LINE",
"365 443 OFFCURVE",
"341 456 OFFCURVE",
"315 465 CURVE",
"332 484 OFFCURVE",
"352 503 OFFCURVE",
"377 524 CURVE",
"477 458 LINE",
"522 522 LINE",
"366 624 LINE",
"301 572 OFFCURVE",
"254 526 OFFCURVE",
"221 481 CURVE",
"163 486 OFFCURVE",
"114 479 OFFCURVE",
"61 449 CURVE",
"85 400 LINE",
"119 419 OFFCURVE",
"152 425 OFFCURVE",
"187 426 CURVE",
"177 404 OFFCURVE",
"170 382 OFFCURVE",
"165 359 CURVE",
"121 355 OFFCURVE",
"81 343 OFFCURVE",
"40 316 CURVE",
"68 269 LINE",
"98 289 OFFCURVE",
"128 298 OFFCURVE",
"159 302 CURVE",
"159 295 LINE SMOOTH",
"159 273 OFFCURVE",
"161 251 OFFCURVE",
"165 231 CURVE",
"125 223 OFFCURVE",
"89 209 OFFCURVE",
"53 181 CURVE",
"84 136 LINE",
"115 160 OFFCURVE",
"148 171 OFFCURVE",
"183 177 CURVE",
"214 106 OFFCURVE",
"275 45 OFFCURVE",
"366 -22 CURVE"
);
}
);
vertWidth = 0;
width = 554;
}
);
note = "";
},
{
glyphname = uni10C9A;
layers = (
{
layerId = "1726D991-AB6C-46C4-B949-411F6BDA7822";
paths = (
{
closed = 1;
nodes = (
"212 0 LINE",
"460 134 OFFCURVE",
"557 255 OFFCURVE",
"557 424 CURVE SMOOTH",
"557 589 OFFCURVE",
"459 714 OFFCURVE",
"212 849 CURVE",
"122 849 LINE",
"122 0 LINE"
);
},
{
closed = 1;
nodes = (
"212 753 LINE",
"395 644 OFFCURVE",
"463 555 OFFCURVE",
"463 424 CURVE SMOOTH",
"463 292 OFFCURVE",
"391 199 OFFCURVE",
"212 98 CURVE"
);
}
);
vertWidth = 0;
width = 633;
}
);
rightKerningGroup = uni10C99;
note = "";
unicode = 10C9A;
},
{
glyphname = uni10CD9_10CD3.ltr;
layers = (
{
layerId = "1726D991-AB6C-46C4-B949-411F6BDA7822";
paths = (
{
closed = 1;
nodes = (
"429 37 LINE",
"376 81 OFFCURVE",
"336 122 OFFCURVE",
"311 166 CURVE",
"476 308 LINE",
"317 439 LINE",
"343 479 OFFCURVE",
"381 517 OFFCURVE",
"432 561 CURVE",
"381 618 LINE",
"324 571 OFFCURVE",
"280 527 OFFCURVE",
"250 478 CURVE",
"30 308 LINE",
"247 125 LINE",
"278 74 OFFCURVE",
"323 28 OFFCURVE",
"383 -20 CURVE"
);
},
{
closed = 1;
nodes = (
"129 307 LINE",
"209 375 LINE",
"204 351 OFFCURVE",
"202 327 OFFCURVE",
"202 300 CURVE SMOOTH",
"202 278 OFFCURVE",
"203 258 OFFCURVE",
"206 239 CURVE"
);
},
{
closed = 1;
nodes = (
"279 250 OFFCURVE",
"276 274 OFFCURVE",
"276 300 CURVE SMOOTH",
"276 329 OFFCURVE",
"280 356 OFFCURVE",
"288 381 CURVE",
"376 307 LINE",
"285 228 LINE"
);
}
);
vertWidth = 0;
width = 520;
}
);
note = "";
},
{
glyphname = uni10CE9.ltr;
layers = (
{
layerId = "1726D991-AB6C-46C4-B949-411F6BDA7822";
paths = (
{
closed = 1;
nodes = (
"276 34 LINE",
"254 102 LINE",
"129 63 LINE",
"250 253 LINE",
"413 0 LINE",
"507 0 LINE",
"300 311 LINE",
"495 600 LINE",
"396 600 LINE",
"247 371 LINE",
"137 535 LINE",
"254 499 LINE",
"274 567 LINE",
"76 625 LINE",
"15 584 LINE",
"196 313 LINE",
"4 22 LINE",
"73 -24 LINE"
);
}
);
vertWidth = 0;
width = 517;
}
);
leftKerningGroup = uni10CC2;
rightKerningGroup = uni10CC2;
note = "";
},
{
glyphname = uni10CD6_10CC1;
layers = (
{
layerId = "1726D991-AB6C-46C4-B949-411F6BDA7822";
paths = (
{
closed = 1;
nodes = (
"178 0 LINE",
"248 157 LINE",
"300 91 LINE",
"338 176 LINE",
"286 243 LINE",
"343 371 LINE SMOOTH",
"368 428 OFFCURVE",
"382 466 OFFCURVE",
"392 498 CURVE",
"396 498 LINE",
"406 467 OFFCURVE",
"422 422 OFFCURVE",
"442 376 CURVE",
"281 0 LINE",
"365 0 LINE",
"483 282 LINE",
"519 200 LINE",
"437 0 LINE",
"521 0 LINE",
"561 105 LINE",
"607 0 LINE",
"695 0 LINE",
"429 600 LINE",
"323 600 LINE",
"65 505 LINE",
"34 430 LINE",
"193 227 LINE",
"93 0 LINE"
);
},
{
closed = 1;
nodes = (
"131 441 LINE",
"321 515 LINE",
"231 313 LINE"
);
}
);
vertWidth = 0;
width = 700;
}
);
rightKerningGroup = uni10CE4;
note = "";
},
{
glyphname = uni10CD9_10CE6.ltr;
layers = (
{
layerId = "1726D991-AB6C-46C4-B949-411F6BDA7822";
paths = (
{
closed = 1;
nodes = (
"384 47 LINE",
"197 131 OFFCURVE",
"144 193 OFFCURVE",
"144 300 CURVE SMOOTH",
"144 329 OFFCURVE",
"148 354 OFFCURVE",
"158 377 CURVE",
"395 332 LINE",
"409 407 LINE",
"204 440 LINE",
"242 475 OFFCURVE",
"300 510 OFFCURVE",
"388 551 CURVE",
"343 618 LINE",
"136 522 OFFCURVE",
"55 438 OFFCURVE",
"55 300 CURVE SMOOTH",
"55 160 OFFCURVE",
"136 76 OFFCURVE",
"347 -20 CURVE"
);
}
);
vertWidth = 0;
width = 459;
}
);
rightKerningGroup = uni10CD9;
note = "";
},
{
glyphname = uni10CC2_10CC9;
layers = (
{
layerId = "1726D991-AB6C-46C4-B949-411F6BDA7822";
paths = (
{
closed = 1;
nodes = (
"344 33 LINE",
"255 114 LINE",
"345 253 LINE",
"505 0 LINE",
"606 0 LINE",
"399 313 LINE",
"591 600 LINE",
"497 600 LINE",
"348 371 LINE",
"269 493 LINE",
"344 561 LINE",
"301 621 LINE",
"228 555 LINE",
"199 600 LINE",
"100 600 LINE",
"168 500 LINE",
"80 420 LINE",
"128 365 LINE",
"209 438 LINE",
"295 311 LINE",
"198 165 LINE",
"128 229 LINE",
"80 174 LINE",
"157 104 LINE",
"88 0 LINE",
"182 0 LINE",
"215 51 LINE",
"301 -27 LINE"
);
}
);
vertWidth = 0;
width = 616;
}
);
rightKerningGroup = uni10CC2;
note = "";
},
{
glyphname = uni10CA9;
layers = (
{
layerId = "1726D991-AB6C-46C4-B949-411F6BDA7822";
paths = (
{
closed = 1;
nodes = (
"671 37 LINE",
"407 441 LINE",
"670 828 LINE",
"609 883 LINE",
"323 802 LINE",
"344 729 LINE",
"547 789 LINE",
"356 500 LINE",
"141 849 LINE",
"34 849 LINE",
"298 436 LINE",
"4 -1 LINE",
"104 -1 LINE",
"352 373 LINE",
"548 65 LINE",
"345 124 LINE",
"320 50 LINE",
"607 -28 LINE"
);
}
);
vertWidth = 0;
width = 724;
}
);
note = "";
unicode = 10CA9;
},
{
glyphname = uni10CD9_10CC4;
layers = (
{
layerId = "1726D991-AB6C-46C4-B949-411F6BDA7822";
paths = (
{
closed = 1;
nodes = (
"300 76 OFFCURVE",
"381 160 OFFCURVE",
"381 300 CURVE SMOOTH",
"381 416 OFFCURVE",
"324 493 OFFCURVE",
"184 569 CURVE",
"333 601 LINE",
"309 673 LINE",
"80 614 LINE",
"50 566 LINE",
"112 336 LINE",
"187 348 LINE",
"141 508 LINE",
"256 440 OFFCURVE",
"292 386 OFFCURVE",
"292 300 CURVE SMOOTH",
"292 193 OFFCURVE",
"239 131 OFFCURVE",
"52 47 CURVE",
"89 -20 LINE"
);
}
);
vertWidth = 0;
width = 446;
}
);
note = "";
},
{
glyphname = uni10CE2.ltr;
layers = (
{
layerId = "1726D991-AB6C-46C4-B949-411F6BDA7822";
paths = (
{
closed = 1;
nodes = (
"182 0 LINE",
"182 345 LINE",
"445 175 LINE",
"445 0 LINE",
"532 0 LINE",
"532 600 LINE",
"445 600 LINE",
"445 264 LINE",
"182 434 LINE",
"182 600 LINE",
"95 600 LINE",
"95 0 LINE"
);
}
);
vertWidth = 0;
width = 627;
}
);
note = "";
},
{
glyphname = uni10CE4_10CC9;
layers = (
{
layerId = "1726D991-AB6C-46C4-B949-411F6BDA7822";
paths = (
{
closed = 1;
nodes = (
"266 -17 LINE",
"210 54 LINE",
"266 98 OFFCURVE",
"307 155 OFFCURVE",
"334 226 CURVE SMOOTH",
"355 282 OFFCURVE",
"362 335 OFFCURVE",
"362 386 CURVE",
"370 362 OFFCURVE",
"377 340 OFFCURVE",
"384 325 CURVE SMOOTH",
"530 0 LINE",
"623 0 LINE",
"390 504 LINE",
"480 547 LINE",
"449 613 LINE",
"360 570 LINE",
"346 600 LINE",
"259 600 LINE",
"267 578 OFFCURVE",
"274 555 OFFCURVE",
"278 531 CURVE",
"165 477 LINE",
"202 414 LINE",
"288 455 LINE",
"292 386 OFFCURVE",
"283 317 OFFCURVE",
"260 255 CURVE SMOOTH",
"238 196 OFFCURVE",
"206 150 OFFCURVE",
"162 113 CURVE",
"105 185 LINE",
"47 140 LINE",
"100 73 LINE",
"78 61 OFFCURVE",
"52 51 OFFCURVE",
"25 42 CURVE",
"55 -24 LINE",
"89 -14 OFFCURVE",
"119 -1 OFFCURVE",
"147 13 CURVE",
"212 -68 LINE"
);
}
);
vertWidth = 0;
width = 627;
}
);
rightKerningGroup = uni10CE4;
note = "";
},
{
glyphname = uni10CEE;
layers = (
{
layerId = "1726D991-AB6C-46C4-B949-411F6BDA7822";
paths = (
{
closed = 1;
nodes = (
"180 0 LINE",
"180 499 LINE",
"331 394 LINE",
"482 499 LINE",
"482 0 LINE",
"567 0 LINE",
"567 600 LINE",
"488 600 LINE",
"331 486 LINE",
"172 600 LINE",
"95 600 LINE",
"95 0 LINE"
);
}
);
vertWidth = 0;
width = 662;
}
);
note = "";
unicode = 10CEE;
},
{
glyphname = uni10C82.ltr;
layers = (
{
layerId = "1726D991-AB6C-46C4-B949-411F6BDA7822";
paths = (
{
closed = 1;
nodes = (
"116 0 LINE",
"348 375 LINE",
"583 0 LINE",
"687 0 LINE",
"405 443 LINE",
"669 849 LINE",
"559 849 LINE",
"345 509 LINE",
"128 849 LINE",
"24 849 LINE",
"287 445 LINE",
"4 0 LINE"
);
}
);
vertWidth = 0;
width = 691;
}
);
note = "";
},
{
glyphname = uni10CEA_10CD6;
layers = (
{
layerId = "1726D991-AB6C-46C4-B949-411F6BDA7822";
paths = (
{
closed = 1;
nodes = (
"98 0 LINE",
"532 488 LINE",
"532 394 LINE",
"186 0 LINE",
"283 0 LINE",
"532 293 LINE",
"532 193 LINE",
"366 0 LINE",
"463 0 LINE",
"532 90 LINE",
"532 0 LINE",
"609 0 LINE",
"768 114 LINE",
"925 0 LINE",
"1004 0 LINE",
"1004 600 LINE",
"925 600 LINE",
"768 486 LINE",
"609 600 LINE",
"532 600 LINE",
"0 0 LINE"
);
},
{
closed = 1;
nodes = (
"617 499 LINE",
"768 394 LINE",
"919 499 LINE",
"919 100 LINE",
"768 206 LINE",
"617 100 LINE"
);
}
);
vertWidth = 0;
width = 1099;
}
);
note = "";
},
{
glyphname = uni10C98;
layers = (
{
layerId = "1726D991-AB6C-46C4-B949-411F6BDA7822";
paths = (
{
closed = 1;
nodes = (
"497 0 LINE",
"497 849 LINE",
"402 849 LINE",
"72 660 LINE",
"72 572 LINE",
"288 428 LINE",
"72 285 LINE",
"72 198 LINE",
"402 0 LINE"
);
},
{
closed = 1;
nodes = (
"156 246 LINE",
"407 412 LINE",
"407 100 LINE"
);
},
{
closed = 1;
nodes = (
"156 614 LINE",
"407 757 LINE",
"407 445 LINE"
);
}
);
vertWidth = 0;
width = 627;
}
);
note = "";
unicode = 10C98;
},
{
glyphname = uni10CDD.ltr;
layers = (
{
layerId = "1726D991-AB6C-46C4-B949-411F6BDA7822";
paths = (
{
closed = 1;
nodes = (
"337 207 LINE",
"139 390 LINE",
"323 559 LINE",
"266 618 LINE",
"33 394 LINE",
"230 211 LINE",
"50 41 LINE",
"107 -18 LINE"
);
}
);
vertWidth = 0;
width = 370;
}
);
note = "";
},
{
glyphname = uni10CD4;
layers = (
{
layerId = "1726D991-AB6C-46C4-B949-411F6BDA7822";
paths = (
{
closed = 1;
nodes = (
"263 0 LINE",
"454 166 LINE",
"405 224 LINE",
"278 112 LINE",
"278 600 LINE",
"206 600 LINE",
"15 434 LINE",
"64 376 LINE",
"191 488 LINE",
"191 0 LINE"
);
}
);
vertWidth = 0;
width = 469;
}
);
note = "";
unicode = 10CD4;
},
{
glyphname = uni10C83;
layers = (
{
layerId = "1726D991-AB6C-46C4-B949-411F6BDA7822";
paths = (
{
closed = 1;
nodes = (
"557 0 LINE",
"603 36 OFFCURVE",
"643 73 OFFCURVE",
"678 110 CURVE",
"765 1 LINE",
"963 89 LINE",
"931 164 LINE",
"791 96 LINE",
"731 176 LINE",
"781 249 OFFCURVE",
"809 329 OFFCURVE",
"809 424 CURVE SMOOTH",
"809 519 OFFCURVE",
"781 600 OFFCURVE",
"731 673 CURVE",
"791 753 LINE",
"931 685 LINE",
"963 761 LINE",
"765 848 LINE",
"678 739 LINE",
"643 777 OFFCURVE",
"603 813 OFFCURVE",
"557 849 CURVE",
"463 849 LINE",
"417 813 OFFCURVE",
"376 776 OFFCURVE",
"341 737 CURVE",
"251 848 LINE",
"55 761 LINE",
"85 685 LINE",
"226 753 LINE",
"288 671 LINE",
"239 598 OFFCURVE",
"211 518 OFFCURVE",
"211 424 CURVE SMOOTH",
"211 330 OFFCURVE",
"239 251 OFFCURVE",
"288 179 CURVE",
"226 96 LINE",
"85 164 LINE",
"55 89 LINE",
"251 1 LINE",
"341 112 LINE",
"376 74 OFFCURVE",
"417 37 OFFCURVE",
"464 0 CURVE"
);
},
{
closed = 1;
nodes = (
"371 192 OFFCURVE",
"304 283 OFFCURVE",
"304 424 CURVE SMOOTH",
"304 565 OFFCURVE",
"371 658 OFFCURVE",
"508 778 CURVE",
"512 778 LINE",
"650 658 OFFCURVE",
"716 565 OFFCURVE",
"716 424 CURVE SMOOTH",
"716 283 OFFCURVE",
"650 192 OFFCURVE",
"512 72 CURVE",
"508 72 LINE"
);
}
);
vertWidth = 0;
width = 1018;
}
);
note = "";
unicode = 10C83;
},
{
glyphname = uni10C8C.ltr;
layers = (
{
layerId = "1726D991-AB6C-46C4-B949-411F6BDA7822";
paths = (
{
closed = 1;
nodes = (
"431 0 LINE",
"591 123 OFFCURVE",
"688 248 OFFCURVE",
"688 424 CURVE SMOOTH",
"688 601 OFFCURVE",
"591 727 OFFCURVE",
"432 849 CURVE",
"338 849 LINE",
"179 727 OFFCURVE",
"82 601 OFFCURVE",
"82 424 CURVE SMOOTH",
"82 248 OFFCURVE",
"179 123 OFFCURVE",
"338 0 CURVE"
);
},
{
closed = 1;
nodes = (
"327 119 OFFCURVE",
"283 162 OFFCURVE",
"250 206 CURVE",
"383 366 LINE",
"518 203 LINE",
"485 161 OFFCURVE",
"442 119 OFFCURVE",
"387 72 CURVE",
"383 72 LINE"
);
},
{
closed = 1;
nodes = (
"186 317 OFFCURVE",
"175 366 OFFCURVE",
"175 424 CURVE SMOOTH",
"175 481 OFFCURVE",
"186 531 OFFCURVE",
"209 577 CURVE",
"337 422 LINE",
"209 270 LINE"
);
},
{
closed = 1;
nodes = (
"430 422 LINE",
"560 580 LINE",
"584 532 OFFCURVE",
"595 482 OFFCURVE",
"595 424 CURVE SMOOTH",
"595 365 OFFCURVE",
"583 315 OFFCURVE",
"559 267 CURVE"
);
},
{
closed = 1;
nodes = (
"247 640 LINE",
"280 685 OFFCURVE",
"325 729 OFFCURVE",
"383 778 CURVE",
"387 778 LINE",
"444 730 OFFCURVE",
"488 686 OFFCURVE",
"522 642 CURVE",
"383 477 LINE"
);
}
);
vertWidth = 0;
width = 769;
}
);
rightKerningGroup = uni10C99;
note = "";
},
{
glyphname = uni10CE2_10CDB.ltr;
layers = (
{
layerId = "1726D991-AB6C-46C4-B949-411F6BDA7822";
paths = (
{
closed = 1;
nodes = (
"708 146 LINE",
"650 204 LINE",
"521 81 LINE",
"439 152 OFFCURVE",
"409 214 OFFCURVE",
"409 295 CURVE SMOOTH",
"409 377 OFFCURVE",
"438 435 OFFCURVE",
"528 514 CURVE",
"650 397 LINE",
"708 455 LINE",
"529 624 LINE",
"388 512 OFFCURVE",
"331 428 OFFCURVE",
"323 321 CURVE",
"182 425 LINE",
"182 600 LINE",
"95 600 LINE",
"95 0 LINE",
"182 0 LINE",
"182 336 LINE",
"329 227 LINE",
"350 134 OFFCURVE",
"417 61 OFFCURVE",
"529 -22 CURVE"
);
}
);
vertWidth = 0;
width = 740;
}
);
note = "";
},
{
glyphname = uni10CAE;
layers = (
{
layerId = "1726D991-AB6C-46C4-B949-411F6BDA7822";
paths = (
{
closed = 1;
nodes = (
"214 0 LINE",
"214 742 LINE",
"437 574 LINE",
"660 742 LINE",
"660 0 LINE",
"750 0 LINE",
"750 849 LINE",
"662 849 LINE",
"437 675 LINE",
"212 849 LINE",
"124 849 LINE",
"124 0 LINE"
);
}
);
vertWidth = 0;
width = 888;
}
);
note = "";
unicode = 10CAE;
},
{
glyphname = uni10C86.ltr;
layers = (
{
layerId = "1726D991-AB6C-46C4-B949-411F6BDA7822";
paths = (
{
closed = 1;
nodes = (
"214 0 LINE",
"214 259 LINE",
"621 0 LINE",
"708 0 LINE",
"708 849 LINE",
"618 849 LINE",
"618 591 LINE",
"211 849 LINE",
"124 849 LINE",
"124 0 LINE"
);
},
{
closed = 1;
nodes = (
"214 356 LINE",
"214 749 LINE",
"618 492 LINE",
"618 105 LINE"
);
}
);
vertWidth = 0;
width = 832;
}
);
note = "";
},
{
glyphname = uni10CE4_10CDB;
layers = (
{
layerId = "1726D991-AB6C-46C4-B949-411F6BDA7822";
paths = (
{
closed = 1;
nodes = (
"349 80 OFFCURVE",
"418 168 OFFCURVE",
"418 295 CURVE SMOOTH",
"418 333 OFFCURVE",
"412 369 OFFCURVE",
"400 403 CURVE",
"415 443 OFFCURVE",
"424 470 OFFCURVE",
"431 496 CURVE",
"435 496 LINE",
"443 463 OFFCURVE",
"456 420 OFFCURVE",
"475 371 CURVE SMOOTH",
"622 0 LINE",
"711 0 LINE",
"468 600 LINE",
"401 600 LINE",
"354 485 LINE",
"321 528 OFFCURVE",
"275 573 OFFCURVE",
"211 624 CURVE",
"32 455 LINE",
"90 397 LINE",
"212 514 LINE",
"302 435 OFFCURVE",
"331 377 OFFCURVE",
"331 295 CURVE SMOOTH",
"331 214 OFFCURVE",
"301 152 OFFCURVE",
"219 81 CURVE",
"90 204 LINE",
"32 146 LINE",
"211 -22 LINE"
);
}
);
vertWidth = 0;
width = 715;
}
);
rightKerningGroup = uni10CE4;
note = "";
},
{
glyphname = uni10CCA;
layers = (
{
layerId = "1726D991-AB6C-46C4-B949-411F6BDA7822";
paths = (
{
closed = 1;
nodes = (
"143 4 OFFCURVE",
"187 27 OFFCURVE",
"224 50 CURVE",
"261 27 OFFCURVE",
"305 4 OFFCURVE",
"357 -20 CURVE",
"394 47 LINE",
"354 65 OFFCURVE",
"320 82 OFFCURVE",
"291 99 CURVE",
"356 156 OFFCURVE",
"383 218 OFFCURVE",
"383 300 CURVE SMOOTH",
"383 379 OFFCURVE",
"356 441 OFFCURVE",
"294 497 CURVE",
"323 514 OFFCURVE",
"357 532 OFFCURVE",
"398 551 CURVE",
"353 618 LINE",
"303 595 OFFCURVE",
"260 572 OFFCURVE",
"224 549 CURVE",
"188 572 OFFCURVE",
"145 595 OFFCURVE",
"95 618 CURVE",
"50 551 LINE",
"91 532 OFFCURVE",
"125 514 OFFCURVE",
"154 497 CURVE",
"92 441 OFFCURVE",
"65 379 OFFCURVE",
"65 300 CURVE SMOOTH",
"65 218 OFFCURVE",
"92 156 OFFCURVE",
"157 99 CURVE",
"128 82 OFFCURVE",
"94 65 OFFCURVE",
"54 47 CURVE",
"91 -20 LINE"
);
},
{
closed = 1;
nodes = (
"172 191 OFFCURVE",
"154 238 OFFCURVE",
"154 300 CURVE SMOOTH",
"154 360 OFFCURVE",
"172 405 OFFCURVE",
"224 449 CURVE",
"276 405 OFFCURVE",
"294 360 OFFCURVE",
"294 300 CURVE SMOOTH",
"294 238 OFFCURVE",
"276 191 OFFCURVE",
"224 146 CURVE"
);
}
);
vertWidth = 0;
width = 428;
}
);
note = "";
unicode = 10CCA;
},
{
glyphname = uni10CC6;
layers = (
{
layerId = "1726D991-AB6C-46C4-B949-411F6BDA7822";
paths = (
{
closed = 1;
nodes = (
"171 0 LINE",
"435 170 LINE",
"435 0 LINE",
"520 0 LINE",
"520 600 LINE",
"444 600 LINE",
"180 428 LINE",
"180 600 LINE",
"95 600 LINE",
"95 0 LINE"
);
},
{
closed = 1;
nodes = (
"180 343 LINE",
"435 510 LINE",
"435 255 LINE",
"180 91 LINE"
);
}
);
vertWidth = 0;
width = 615;
}
);
note = "";
unicode = 10CC6;
},
{
glyphname = uni10CA5;
layers = (
{
layerId = "1726D991-AB6C-46C4-B949-411F6BDA7822";
paths = (
{
closed = 1;
nodes = (
"214 0 LINE",
"214 849 LINE",
"124 849 LINE",
"124 0 LINE"
);
}
);
vertWidth = 0;
width = 341;
}
);
note = "";
unicode = 10CA5;
},
{
glyphname = uni10C8A;
layers = (
{
layerId = "1726D991-AB6C-46C4-B949-411F6BDA7822";
paths = (
{
closed = 1;
nodes = (
"205 12 OFFCURVE",
"253 45 OFFCURVE",
"293 77 CURVE",
"333 45 OFFCURVE",
"381 12 OFFCURVE",
"436 -24 CURVE",
"488 47 LINE",
"438 79 OFFCURVE",
"395 108 OFFCURVE",
"359 136 CURVE",
"449 226 OFFCURVE",
"484 314 OFFCURVE",
"484 424 CURVE SMOOTH",
"484 534 OFFCURVE",
"449 621 OFFCURVE",
"361 712 CURVE",
"397 741 OFFCURVE",
"441 772 OFFCURVE",
"493 806 CURVE",
"432 873 LINE",
"378 838 OFFCURVE",
"332 805 OFFCURVE",
"293 773 CURVE",
"254 805 OFFCURVE",
"208 838 OFFCURVE",
"154 873 CURVE",
"93 806 LINE",
"145 772 OFFCURVE",
"189 741 OFFCURVE",
"226 711 CURVE",
"137 621 OFFCURVE",
"102 533 OFFCURVE",
"102 424 CURVE SMOOTH",
"102 314 OFFCURVE",
"137 226 OFFCURVE",
"227 136 CURVE",
"191 108 OFFCURVE",
"148 79 OFFCURVE",
"98 47 CURVE",
"150 -24 LINE"
);
},
{
closed = 1;
nodes = (
"224 266 OFFCURVE",
"196 336 OFFCURVE",
"196 424 CURVE SMOOTH",
"196 512 OFFCURVE",
"222 579 OFFCURVE",
"293 651 CURVE",
"364 579 OFFCURVE",
"390 512 OFFCURVE",
"390 424 CURVE SMOOTH",
"390 336 OFFCURVE",
"362 266 OFFCURVE",
"293 195 CURVE"
);
}
);
vertWidth = 0;
width = 586;
}
);
note = "";
unicode = 10C8A;
},
{
glyphname = uni10CC4_10CD3;
layers = (
{
layerId = "1726D991-AB6C-46C4-B949-411F6BDA7822";
paths = (
{
closed = 1;
nodes = (
"298 0 LINE",
"473 191 LINE",
"298 375 LINE",
"298 488 LINE",
"425 376 LINE",
"474 434 LINE",
"283 600 LINE",
"226 600 LINE",
"35 434 LINE",
"84 376 LINE",
"211 488 LINE",
"211 375 LINE",
"34 191 LINE",
"211 0 LINE"
);
},
{
closed = 1;
nodes = (
"130 190 LINE",
"211 278 LINE",
"211 100 LINE"
);
},
{
closed = 1;
nodes = (
"298 276 LINE",
"377 190 LINE",
"298 101 LINE"
);
}
);
vertWidth = 0;
width = 508;
}
);
note = "";
},
{
glyphname = uni10CCD_10CC9.ltr;
layers = (
{
layerId = "1726D991-AB6C-46C4-B949-411F6BDA7822";
paths = (
{
closed = 1;
nodes = (
"500 13 LINE",
"528 -1 OFFCURVE",
"558 -14 OFFCURVE",
"592 -24 CURVE",
"622 42 LINE",
"595 51 OFFCURVE",
"569 61 OFFCURVE",
"547 73 CURVE",
"600 140 LINE",
"542 185 LINE",
"485 113 LINE",
"441 150 OFFCURVE",
"409 196 OFFCURVE",
"387 255 CURVE SMOOTH",
"364 317 OFFCURVE",
"355 386 OFFCURVE",
"359 455 CURVE",
"445 414 LINE",
"482 477 LINE",
"369 531 LINE",
"373 555 OFFCURVE",
"380 578 OFFCURVE",
"388 600 CURVE",
"301 600 LINE",
"286 571 LINE",
"198 613 LINE",
"167 547 LINE",
"254 505 LINE",
"4 0 LINE",
"97 0 LINE",
"168 149 LINE",
"239 0 LINE",
"326 0 LINE",
"211 241 LINE",
"263 350 LINE SMOOTH",
"269 363 OFFCURVE",
"277 381 OFFCURVE",
"285 401 CURVE",
"283 345 OFFCURVE",
"290 287 OFFCURVE",
"313 226 CURVE SMOOTH",
"340 155 OFFCURVE",
"381 98 OFFCURVE",
"437 54 CURVE",
"381 -17 LINE",
"435 -68 LINE"
);
}
);
vertWidth = 0;
width = 647;
}
);
leftKerningGroup = ge;
rightKerningGroup = uni10CE4;
note = "";
},
{
glyphname = uni10CEE_10CEE;
layers = (
{
layerId = "1726D991-AB6C-46C4-B949-411F6BDA7822";
paths = (
{
closed = 1;
nodes = (
"180 0 LINE",
"180 256 LINE",
"331 144 LINE",
"482 252 LINE",
"482 0 LINE",
"567 0 LINE",
"567 600 LINE",
"488 600 LINE",
"331 486 LINE",
"172 600 LINE",
"95 600 LINE",
"95 0 LINE"
);
},
{
closed = 1;
nodes = (
"180 344 LINE",
"180 499 LINE",
"331 394 LINE",
"482 499 LINE",
"482 346 LINE",
"331 236 LINE"
);
}
);
vertWidth = 0;
width = 662;
}
);
note = "";
},
{
glyphname = uni10CD6_10CDB;
layers = (
{
layerId = "1726D991-AB6C-46C4-B949-411F6BDA7822";
paths = (
{
closed = 1;
nodes = (
"345 77 OFFCURVE",
"414 163 OFFCURVE",
"418 284 CURVE",
"462 373 LINE SMOOTH",
"489 428 OFFCURVE",
"506 464 OFFCURVE",
"519 496 CURVE",
"523 496 LINE",
"530 470 OFFCURVE",
"541 438 OFFCURVE",
"556 401 CURVE",
"380 0 LINE",
"468 0 LINE",
"597 308 LINE",
"639 214 LINE",
"546 0 LINE",
"634 0 LINE",
"682 120 LINE",
"735 0 LINE",
"826 0 LINE",
"551 600 LINE",
"498 600 LINE",
"398 408 LINE",
"370 478 OFFCURVE",
"312 544 OFFCURVE",
"211 624 CURVE",
"32 455 LINE",
"90 397 LINE",
"212 514 LINE",
"302 435 OFFCURVE",
"331 377 OFFCURVE",
"331 295 CURVE SMOOTH",
"331 214 OFFCURVE",
"301 152 OFFCURVE",
"219 81 CURVE",
"90 204 LINE",
"32 146 LINE",
"211 -22 LINE"
);
}
);
vertWidth = 0;
width = 830;
}
);
rightKerningGroup = uni10CE4;
note = "";
},
{
glyphname = uni10C91;
layers = (
{
layerId = "1726D991-AB6C-46C4-B949-411F6BDA7822";
paths = (
{
closed = 1;
nodes = (
"374 0 LINE",
"374 810 LINE",
"569 915 LINE",
"530 989 LINE",
"57 733 LINE",
"96 661 LINE",
"278 759 LINE",
"278 0 LINE"
);
}
);
vertWidth = 0;
width = 627;
}
);
note = "";
unicode = 10C91;
},
{
glyphname = uni10CC0_10CE6_10CE6;
layers = (
{
layerId = "1726D991-AB6C-46C4-B949-411F6BDA7822";
paths = (
{
closed = 1;
nodes = (
"372 0 LINE",
"372 232 LINE",
"602 320 LINE",
"602 409 LINE",
"404 600 LINE",
"285 600 LINE",
"285 440 LINE",
"100 572 LINE",
"50 512 LINE",
"285 347 LINE",
"285 266 LINE",
"100 398 LINE",
"50 338 LINE",
"285 173 LINE",
"285 0 LINE"
);
},
{
closed = 1;
nodes = (
"372 523 LINE",
"526 373 LINE",
"372 316 LINE"
);
}
);
vertWidth = 0;
width = 632;
}
);
note = "";
},
{
glyphname = uni10CD3_10CE5.ltr;
layers = (
{
layerId = "1726D991-AB6C-46C4-B949-411F6BDA7822";
paths = (
{
closed = 1;
nodes = (
"330 0 LINE",
"516 304 LINE",
"330 600 LINE",
"218 600 LINE",
"33 304 LINE",
"218 0 LINE"
);
},
{
closed = 1;
nodes = (
"126 303 LINE",
"235 493 LINE",
"235 107 LINE"
);
},
{
closed = 1;
nodes = (
"311 496 LINE",
"423 303 LINE",
"311 104 LINE"
);
}
);
vertWidth = 0;
width = 549;
}
);
note = "";
},
{
glyphname = uni10CA8.ltr;
layers = (
{
layerId = "1726D991-AB6C-46C4-B949-411F6BDA7822";
paths = (
{
closed = 1;
nodes = (
"116 0 LINE",
"223 173 LINE",
"327 0 LINE",
"423 0 LINE",
"271 250 LINE",
"348 375 LINE",
"583 0 LINE",
"687 0 LINE",
"405 443 LINE",
"669 849 LINE",
"559 849 LINE",
"464 699 LINE",
"374 849 LINE",
"278 849 LINE",
"417 623 LINE",
"345 509 LINE",
"128 849 LINE",
"24 849 LINE",
"287 445 LINE",
"4 0 LINE"
);
}
);
vertWidth = 0;
width = 691;
}
);
note = "";
},
{
glyphname = uni10CEA_10CE2.ltr;
layers = (
{
layerId = "1726D991-AB6C-46C4-B949-411F6BDA7822";
paths = (
{
closed = 1;
nodes = (
"174 0 LINE",
"331 114 LINE",
"490 0 LINE",
"567 0 LINE",
"567 309 LINE",
"750 175 LINE",
"750 0 LINE",
"837 0 LINE",
"837 600 LINE",
"750 600 LINE",
"750 264 LINE",
"567 398 LINE",
"567 600 LINE",
"490 600 LINE",
"331 486 LINE",
"174 600 LINE",
"95 600 LINE",
"95 0 LINE"
);
},
{
closed = 1;
nodes = (
"180 499 LINE",
"331 394 LINE",
"482 499 LINE",
"482 100 LINE",
"331 206 LINE",
"180 100 LINE"
);
}
);
vertWidth = 0;
width = 932;
}
);
note = "";
},
{
glyphname = uni10CD9.ltr;
layers = (
{
layerId = "1726D991-AB6C-46C4-B949-411F6BDA7822";
paths = (
{
closed = 1;
nodes = (
"384 47 LINE",
"197 131 OFFCURVE",
"144 193 OFFCURVE",
"144 300 CURVE SMOOTH",
"144 404 OFFCURVE",
"197 461 OFFCURVE",
"388 551 CURVE",
"343 618 LINE",
"136 522 OFFCURVE",
"55 438 OFFCURVE",
"55 300 CURVE SMOOTH",
"55 160 OFFCURVE",
"136 76 OFFCURVE",
"347 -20 CURVE"
);
}
);
vertWidth = 0;
width = 420;
}
);
rightKerningGroup = uni10CD9;
note = "";
},
{
glyphname = uni10C9F.ltr;
layers = (
{
layerId = "1726D991-AB6C-46C4-B949-411F6BDA7822";
paths = (
{
closed = 1;
nodes = (
"685 242 LINE",
"682 243 LINE",
"687 246 LINE",
"483 469 LINE",
"419 405 LINE",
"561 251 LINE",
"404 94 LINE",
"362 133 OFFCURVE",
"328 169 OFFCURVE",
"303 206 CURVE",
"360 257 LINE",
"312 313 LINE",
"266 272 LINE",
"248 316 OFFCURVE",
"239 362 OFFCURVE",
"239 414 CURVE SMOOTH",
"239 468 OFFCURVE",
"248 514 OFFCURVE",
"268 560 CURVE",
"312 521 LINE",
"360 577 LINE",
"306 625 LINE",
"343 676 OFFCURVE",
"397 730 OFFCURVE",
"473 794 CURVE",
"413 868 LINE",
"336 803 OFFCURVE",
"278 745 OFFCURVE",
"236 688 CURVE",
"148 767 LINE",
"100 710 LINE",
"196 624 LINE",
"160 558 OFFCURVE",
"145 491 OFFCURVE",
"145 414 CURVE SMOOTH",
"145 337 OFFCURVE",
"162 271 OFFCURVE",
"197 209 CURVE",
"97 120 LINE",
"145 65 LINE",
"238 148 LINE",
"281 92 OFFCURVE",
"339 37 OFFCURVE",
"413 -21 CURVE"
);
}
);
vertWidth = 0;
width = 724;
}
);
note = "";
},
{
glyphname = uni10CF2;
layers = (
{
layerId = "1726D991-AB6C-46C4-B949-411F6BDA7822";
paths = (
{
closed = 1;
nodes = (
"312 0 LINE",
"425 85 OFFCURVE",
"501 174 OFFCURVE",
"501 300 CURVE SMOOTH",
"501 425 OFFCURVE",
"425 514 OFFCURVE",
"312 600 CURVE",
"243 600 LINE",
"130 514 OFFCURVE",
"55 425 OFFCURVE",
"55 300 CURVE SMOOTH",
"55 174 OFFCURVE",
"130 85 OFFCURVE",
"243 0 CURVE"
);
},
{
closed = 1;
nodes = (
"170 162 OFFCURVE",
"138 218 OFFCURVE",
"138 300 CURVE SMOOTH",
"138 380 OFFCURVE",
"169 437 OFFCURVE",
"240 503 CURVE",
"240 97 LINE"
);
},
{
closed = 1;
nodes = (
"317 502 LINE",
"386 436 OFFCURVE",
"418 380 OFFCURVE",
"418 300 CURVE SMOOTH",
"418 219 OFFCURVE",
"386 163 OFFCURVE",
"317 98 CURVE"
);
}
);
vertWidth = 0;
width = 556;
}
);
leftKerningGroup = uni10CD7;
rightKerningGroup = uni10CD9;
note = "";
unicode = 10CF2;
},
{
glyphname = uni10CAC;
layers = (
{
layerId = "1726D991-AB6C-46C4-B949-411F6BDA7822";
paths = (
{
closed = 1;
nodes = (
"218 109 LINE",
"252 72 OFFCURVE",
"293 36 OFFCURVE",
"338 0 CURVE",
"431 0 LINE",
"476 36 OFFCURVE",
"516 72 OFFCURVE",
"551 109 CURVE",
"663 -16 LINE",
"728 44 LINE",
"603 174 LINE",
"654 248 OFFCURVE",
"683 328 OFFCURVE",
"683 424 CURVE SMOOTH",
"683 520 OFFCURVE",
"654 602 OFFCURVE",
"603 675 CURVE",
"727 804 LINE",
"663 865 LINE",
"551 740 LINE",
"517 777 OFFCURVE",
"476 813 OFFCURVE",
"431 849 CURVE",
"337 849 LINE",
"292 814 OFFCURVE",
"252 778 OFFCURVE",
"218 740 CURVE",
"106 865 LINE",
"41 804 LINE",
"165 676 LINE",
"114 602 OFFCURVE",
"85 521 OFFCURVE",
"85 424 CURVE SMOOTH",
"85 328 OFFCURVE",
"114 247 OFFCURVE",
"165 174 CURVE",
"41 44 LINE",
"106 -16 LINE"
);
},
{
closed = 1;
nodes = (
"245 192 OFFCURVE",
"178 283 OFFCURVE",
"178 424 CURVE SMOOTH",
"178 565 OFFCURVE",
"245 658 OFFCURVE",
"382 778 CURVE",
"386 778 LINE",
"524 658 OFFCURVE",
"590 565 OFFCURVE",
"590 424 CURVE SMOOTH",
"590 283 OFFCURVE",
"524 192 OFFCURVE",
"386 72 CURVE",
"382 72 LINE"
);
}
);
vertWidth = 0;
width = 769;
}
);
note = "";
unicode = 10CAC;
},
{
glyphname = uni10C8C;
layers = (
{
layerId = "1726D991-AB6C-46C4-B949-411F6BDA7822";
paths = (
{
closed = 1;
nodes = (
"431 0 LINE",
"590 123 OFFCURVE",
"687 248 OFFCURVE",
"687 424 CURVE SMOOTH",
"687 601 OFFCURVE",
"590 727 OFFCURVE",
"431 849 CURVE",
"337 849 LINE",
"178 727 OFFCURVE",
"81 601 OFFCURVE",
"81 424 CURVE SMOOTH",
"81 248 OFFCURVE",
"178 123 OFFCURVE",
"338 0 CURVE"
);
},
{
closed = 1;
nodes = (
"327 119 OFFCURVE",
"284 161 OFFCURVE",
"251 203 CURVE",
"386 366 LINE",
"519 206 LINE",
"486 162 OFFCURVE",
"442 119 OFFCURVE",
"386 72 CURVE",
"382 72 LINE"
);
},
{
closed = 1;
nodes = (
"186 315 OFFCURVE",
"174 365 OFFCURVE",
"174 424 CURVE SMOOTH",
"174 482 OFFCURVE",
"185 532 OFFCURVE",
"209 580 CURVE",
"339 422 LINE",
"210 267 LINE"
);
},
{
closed = 1;
nodes = (
"432 422 LINE",
"560 577 LINE",
"583 531 OFFCURVE",
"594 481 OFFCURVE",
"594 424 CURVE SMOOTH",
"594 366 OFFCURVE",
"583 317 OFFCURVE",
"560 270 CURVE"
);
},
{
closed = 1;
nodes = (
"247 642 LINE",
"281 686 OFFCURVE",
"325 730 OFFCURVE",
"382 778 CURVE",
"386 778 LINE",
"444 729 OFFCURVE",
"489 685 OFFCURVE",
"522 640 CURVE",
"386 477 LINE"
);
}
);
vertWidth = 0;
width = 769;
}
);
rightKerningGroup = uni10C99;
note = "";
unicode = 10C8C;
},
{
glyphname = uni10CF1.ltr;
layers = (
{
layerId = "1726D991-AB6C-46C4-B949-411F6BDA7822";
paths = (
{
closed = 1;
nodes = (
"396 0 LINE",
"540 152 LINE",
"629 85 LINE",
"676 140 LINE",
"537 246 LINE",
"396 98 LINE",
"396 192 LINE",
"540 336 LINE",
"629 268 LINE",
"676 324 LINE",
"537 429 LINE",
"396 285 LINE",
"396 375 LINE",
"540 519 LINE",
"629 452 LINE",
"676 507 LINE",
"537 613 LINE",
"396 469 LINE",
"396 600 LINE",
"311 600 LINE",
"311 469 LINE",
"169 613 LINE",
"30 507 LINE",
"77 452 LINE",
"166 519 LINE",
"311 375 LINE",
"311 285 LINE",
"169 429 LINE",
"30 324 LINE",
"77 268 LINE",
"166 336 LINE",
"311 192 LINE",
"311 98 LINE",
"169 246 LINE",
"30 140 LINE",
"77 85 LINE",
"166 152 LINE",
"311 0 LINE"
);
}
);
vertWidth = 0;
width = 706;
}
);
note = "";
},
{
glyphname = uni10C81.ltr;
layers = (
{
layerId = "1726D991-AB6C-46C4-B949-411F6BDA7822";
paths = (
{
closed = 1;
nodes = (
"219 0 LINE",
"219 252 LINE",
"506 497 LINE",
"506 573 LINE",
"222 849 LINE",
"129 849 LINE",
"129 0 LINE"
);
},
{
closed = 1;
nodes = (
"219 744 LINE",
"422 536 LINE",
"219 367 LINE"
);
}
);
vertWidth = 0;
width = 529;
}
);
note = "";
},
{
glyphname = uni10C99;
layers = (
{
layerId = "1726D991-AB6C-46C4-B949-411F6BDA7822";
paths = (
{
closed = 1;
nodes = (
"366 135 OFFCURVE",
"452 251 OFFCURVE",
"452 424 CURVE SMOOTH",
"452 596 OFFCURVE",
"366 714 OFFCURVE",
"123 873 CURVE",
"62 806 LINE",
"286 658 OFFCURVE",
"358 569 OFFCURVE",
"358 424 CURVE SMOOTH",
"358 278 OFFCURVE",
"281 182 OFFCURVE",
"67 47 CURVE",
"118 -24 LINE"
);
}
);
vertWidth = 0;
width = 538;
}
);
rightKerningGroup = uni10C99;
note = "";
unicode = 10C99;
},
{
glyphname = uni10CD9_10CE6;
layers = (
{
layerId = "1726D991-AB6C-46C4-B949-411F6BDA7822";
paths = (
{
closed = 1;
nodes = (
"323 76 OFFCURVE",
"404 160 OFFCURVE",
"404 300 CURVE SMOOTH",
"404 438 OFFCURVE",
"323 522 OFFCURVE",
"116 618 CURVE",
"71 551 LINE",
"159 510 OFFCURVE",
"217 475 OFFCURVE",
"255 440 CURVE",
"50 407 LINE",
"64 332 LINE",
"301 377 LINE",
"311 354 OFFCURVE",
"315 329 OFFCURVE",
"315 300 CURVE SMOOTH",
"315 193 OFFCURVE",
"262 131 OFFCURVE",
"75 47 CURVE",
"112 -20 LINE"
);
}
);
vertWidth = 0;
width = 459;
}
);
rightKerningGroup = uni10CD9;
note = "";
},
{
glyphname = uni10C9E;
layers = (
{
layerId = "1726D991-AB6C-46C4-B949-411F6BDA7822";
paths = (
{
closed = 1;
nodes = (
"213 0 LINE",
"213 431 LINE",
"492 0 LINE",
"606 0 LINE",
"317 437 LINE",
"597 849 LINE",
"488 849 LINE",
"213 433 LINE",
"213 849 LINE",
"123 849 LINE",
"123 0 LINE"
);
}
);
vertWidth = 0;
width = 624;
}
);
note = "";
unicode = 10C9E;
},
{
glyphname = uni10CC4_10CD3.ltr;
layers = (
{
layerId = "1726D991-AB6C-46C4-B949-411F6BDA7822";
paths = (
{
closed = 1;
nodes = (
"297 0 LINE",
"474 191 LINE",
"297 375 LINE",
"297 488 LINE",
"424 376 LINE",
"473 434 LINE",
"282 600 LINE",
"225 600 LINE",
"34 434 LINE",
"83 376 LINE",
"210 488 LINE",
"210 375 LINE",
"35 191 LINE",
"210 0 LINE"
);
},
{
closed = 1;
nodes = (
"131 190 LINE",
"210 276 LINE",
"210 101 LINE"
);
},
{
closed = 1;
nodes = (
"297 278 LINE",
"378 190 LINE",
"297 100 LINE"
);
}
);
vertWidth = 0;
width = 508;
}
);
note = "";
},
{
glyphname = uni10CD0_10CD2;
layers = (
{
layerId = "1726D991-AB6C-46C4-B949-411F6BDA7822";
paths = (
{
closed = 1;
nodes = (
"312 0 LINE",
"312 255 LINE",
"463 339 LINE",
"434 402 LINE",
"312 335 LINE",
"312 600 LINE",
"235 600 LINE",
"11 383 LINE",
"65 331 LINE",
"225 485 LINE",
"225 287 LINE",
"74 204 LINE",
"109 142 LINE",
"225 207 LINE",
"225 0 LINE"
);
}
);
vertWidth = 0;
width = 494;
}
);
note = "";
},
{
glyphname = uni10CE4_10CD8.ltr;
layers = (
{
layerId = "1726D991-AB6C-46C4-B949-411F6BDA7822";
paths = (
{
closed = 1;
nodes = (
"93 0 LINE",
"240 371 LINE SMOOTH",
"259 420 OFFCURVE",
"272 463 OFFCURVE",
"280 496 CURVE",
"284 496 LINE",
"292 461 OFFCURVE",
"303 429 OFFCURVE",
"326 371 CURVE SMOOTH",
"473 0 LINE",
"565 0 LINE",
"745 120 LINE",
"728 203 LINE",
"524 311 LINE",
"635 417 LINE",
"621 493 LINE",
"362 600 LINE",
"247 600 LINE",
"4 0 LINE"
);
},
{
closed = 1;
nodes = (
"450 277 LINE",
"659 159 LINE",
"532 74 LINE"
);
},
{
closed = 1;
nodes = (
"351 525 LINE",
"553 443 LINE",
"432 322 LINE"
);
}
);
vertWidth = 0;
width = 792;
}
);
rightKerningGroup = uni10CE4;
note = "";
},
{
glyphname = uni10CE4_10CE6.ltr;
layers = (
{
layerId = "1726D991-AB6C-46C4-B949-411F6BDA7822";
paths = (
{
closed = 1;
nodes = (
"111 0 LINE",
"258 371 LINE SMOOTH",
"277 420 OFFCURVE",
"290 463 OFFCURVE",
"298 496 CURVE",
"302 496 LINE",
"310 461 OFFCURVE",
"321 429 OFFCURVE",
"344 371 CURVE SMOOTH",
"491 0 LINE",
"578 0 LINE",
"448 323 LINE",
"623 579 LINE",
"560 618 LINE",
"415 404 LINE",
"336 600 LINE",
"265 600 LINE",
"22 0 LINE"
);
}
);
vertWidth = 0;
width = 647;
}
);
rightKerningGroup = uni10CE4;
note = "";
},
{
glyphname = uni10CAD;
layers = (
{
layerId = "1726D991-AB6C-46C4-B949-411F6BDA7822";
paths = (
{
closed = 1;
nodes = (
"657 -1 LINE",
"657 627 LINE",
"567 627 LINE",
"220 366 LINE",
"220 849 LINE",
"130 849 LINE",
"130 262 LINE",
"220 262 LINE",
"567 518 LINE",
"567 -1 LINE"
);
}
);
vertWidth = 0;
width = 788;
}
);
note = "";
unicode = 10CAD;
},
{
glyphname = uni10C86;
layers = (
{
layerId = "1726D991-AB6C-46C4-B949-411F6BDA7822";
paths = (
{
closed = 1;
nodes = (
"211 0 LINE",
"618 259 LINE",
"618 0 LINE",
"708 0 LINE",
"708 849 LINE",
"621 849 LINE",
"214 591 LINE",
"214 849 LINE",
"124 849 LINE",
"124 0 LINE"
);
},
{
closed = 1;
nodes = (
"214 492 LINE",
"618 749 LINE",
"618 356 LINE",
"214 105 LINE"
);
}
);
vertWidth = 0;
width = 832;
}
);
note = "";
unicode = 10C86;
},
{
glyphname = uni10CC4;
layers = (
{
layerId = "1726D991-AB6C-46C4-B949-411F6BDA7822";
paths = (
{
closed = 1;
nodes = (
"267 0 LINE",
"267 488 LINE",
"394 376 LINE",
"443 434 LINE",
"252 600 LINE",
"195 600 LINE",
"4 434 LINE",
"53 376 LINE",
"180 488 LINE",
"180 0 LINE"
);
}
);
vertWidth = 0;
width = 447;
}
);
rightKerningGroup = uni10CC4;
note = "";
unicode = 10CC4;
},
{
glyphname = uni10CD9_10CC7;
layers = (
{
layerId = "1726D991-AB6C-46C4-B949-411F6BDA7822";
paths = (
{
closed = 1;
nodes = (
"301 76 OFFCURVE",
"382 159 OFFCURVE",
"383 298 CURVE",
"523 336 LINE",
"509 404 LINE",
"375 369 LINE",
"350 468 OFFCURVE",
"265 539 OFFCURVE",
"95 618 CURVE",
"50 551 LINE",
"211 475 OFFCURVE",
"274 423 OFFCURVE",
"290 346 CURVE",
"133 305 LINE",
"153 236 LINE",
"293 274 LINE",
"284 182 OFFCURVE",
"225 124 OFFCURVE",
"54 47 CURVE",
"91 -20 LINE"
);
}
);
vertWidth = 0;
width = 548;
}
);
note = "";
},
{
glyphname = uni10C8F.ltr;
layers = (
{
layerId = "1726D991-AB6C-46C4-B949-411F6BDA7822";
paths = (
{
closed = 1;
nodes = (
"187 0 LINE",
"356 159 LINE",
"524 0 LINE",
"646 0 LINE",
"415 213 LINE",
"659 440 LINE",
"415 650 LINE",
"646 849 LINE",
"526 849 LINE",
"356 701 LINE",
"187 849 LINE",
"65 849 LINE",
"296 650 LINE",
"51 440 LINE",
"296 213 LINE",
"65 0 LINE"
);
},
{
closed = 1;
nodes = (
"176 441 LINE",
"356 597 LINE",
"536 441 LINE",
"356 271 LINE"
);
}
);
vertWidth = 0;
width = 710;
}
);
note = "";
},
{
glyphname = uni10CC1_10CE2;
layers = (
{
layerId = "1726D991-AB6C-46C4-B949-411F6BDA7822";
paths = (
{
closed = 1;
nodes = (
"182 0 LINE",
"182 205 LINE",
"445 375 LINE",
"445 228 LINE",
"304 143 LINE",
"304 57 LINE",
"445 141 LINE",
"445 0 LINE",
"532 0 LINE",
"532 193 LINE",
"762 330 LINE",
"762 409 LINE",
"564 600 LINE",
"445 600 LINE",
"445 464 LINE",
"182 294 LINE",
"182 600 LINE",
"95 600 LINE",
"95 0 LINE"
);
},
{
closed = 1;
nodes = (
"532 523 LINE",
"686 373 LINE",
"532 280 LINE"
);
}
);
vertWidth = 0;
width = 792;
}
);
note = "";
},
{
glyphname = uni10CFE;
layers = (
{
layerId = "1726D991-AB6C-46C4-B949-411F6BDA7822";
paths = (
{
closed = 1;
nodes = (
"104 0 LINE",
"272 258 LINE",
"274 258 LINE",
"274 0 LINE",
"359 0 LINE",
"359 258 LINE",
"361 258 LINE",
"522 0 LINE",
"623 0 LINE",
"416 313 LINE",
"608 600 LINE",
"514 600 LINE",
"361 367 LINE",
"359 367 LINE",
"359 600 LINE",
"274 600 LINE",
"274 367 LINE",
"272 367 LINE",
"121 600 LINE",
"22 600 LINE",
"217 311 LINE",
"10 0 LINE"
);
}
);
vertWidth = 0;
width = 633;
}
);
note = "";
unicode = 10CFE;
},
{
glyphname = uni10C92.ltr;
layers = (
{
layerId = "1726D991-AB6C-46C4-B949-411F6BDA7822";
paths = (
{
closed = 1;
nodes = (
"223 0 LINE",
"223 723 LINE",
"461 488 LINE",
"516 548 LINE",
"210 849 LINE",
"134 849 LINE",
"134 0 LINE"
);
}
);
vertWidth = 0;
width = 547;
}
);
note = "";
},
{
glyphname = uni10CE4_10CC0.ltr;
layers = (
{
layerId = "1726D991-AB6C-46C4-B949-411F6BDA7822";
paths = (
{
closed = 1;
nodes = (
"93 0 LINE",
"240 371 LINE SMOOTH",
"259 420 OFFCURVE",
"272 463 OFFCURVE",
"280 496 CURVE",
"284 496 LINE",
"292 461 OFFCURVE",
"303 429 OFFCURVE",
"326 371 CURVE SMOOTH",
"473 0 LINE",
"560 0 LINE",
"439 300 LINE",
"644 388 LINE",
"631 483 LINE",
"362 600 LINE",
"247 600 LINE",
"4 0 LINE"
);
},
{
closed = 1;
nodes = (
"351 518 LINE",
"563 434 LINE",
"412 368 LINE"
);
}
);
vertWidth = 0;
width = 666;
}
);
rightKerningGroup = uni10CE4;
note = "";
},
{
glyphname = uni10CF0;
layers = (
{
layerId = "1726D991-AB6C-46C4-B949-411F6BDA7822";
paths = (
{
closed = 1;
nodes = (
"354 0 LINE",
"354 261 LINE",
"610 570 LINE",
"542 617 LINE",
"354 386 LINE",
"354 600 LINE",
"267 600 LINE",
"267 386 LINE",
"81 617 LINE",
"12 570 LINE",
"267 261 LINE",
"267 0 LINE"
);
}
);
vertWidth = 0;
width = 622;
}
);
leftKerningGroup = uni10CE6;
note = "";
unicode = 10CF0;
},
{
glyphname = uni10CE0;
layers = (
{
layerId = "1726D991-AB6C-46C4-B949-411F6BDA7822";
paths = (
{
closed = 1;
nodes = (
"273 144 LINE",
"273 0 LINE",
"358 0 LINE",
"358 600 LINE",
"283 600 LINE",
"42 401 LINE",
"92 348 LINE",
"273 501 LINE",
"273 411 LINE",
"42 223 LINE",
"92 170 LINE",
"273 322 LINE",
"273 232 LINE",
"42 45 LINE",
"92 -9 LINE"
);
}
);
vertWidth = 0;
width = 453;
}
);
note = "";
unicode = 10CE0;
},
{
glyphname = uni10C88.ltr;
layers = (
{
layerId = "1726D991-AB6C-46C4-B949-411F6BDA7822";
paths = (
{
closed = 1;
nodes = (
"116 0 LINE",
"348 375 LINE",
"583 0 LINE",
"687 0 LINE",
"446 379 LINE",
"637 322 LINE",
"661 389 LINE",
"417 461 LINE",
"669 849 LINE",
"559 849 LINE",
"345 509 LINE",
"128 849 LINE",
"24 849 LINE",
"243 513 LINE",
"55 569 LINE",
"39 499 LINE",
"277 429 LINE",
"4 0 LINE"
);
}
);
vertWidth = 0;
width = 691;
}
);
note = "";
},
{
glyphname = uni10CDF;
layers = (
{
layerId = "1726D991-AB6C-46C4-B949-411F6BDA7822";
paths = (
{
closed = 1;
nodes = (
"298 19 OFFCURVE",
"343 57 OFFCURVE",
"376 96 CURVE",
"445 38 LINE",
"490 88 LINE",
"416 151 LINE",
"440 194 OFFCURVE",
"452 240 OFFCURVE",
"452 293 CURVE SMOOTH",
"452 347 OFFCURVE",
"441 394 OFFCURVE",
"414 441 CURVE",
"487 503 LINE",
"442 552 LINE",
"375 496 LINE",
"343 535 OFFCURVE",
"299 574 OFFCURVE",
"241 618 CURVE",
"187 554 LINE",
"243 512 OFFCURVE",
"283 476 OFFCURVE",
"311 442 CURVE",
"268 406 LINE",
"314 356 LINE",
"348 385 LINE",
"361 356 OFFCURVE",
"366 326 OFFCURVE",
"366 293 CURVE SMOOTH",
"366 261 OFFCURVE",
"361 233 OFFCURVE",
"351 206 CURVE",
"315 236 LINE",
"269 187 LINE",
"317 147 LINE",
"300 125 OFFCURVE",
"278 103 OFFCURVE",
"250 80 CURVE",
"141 187 LINE",
"239 290 LINE",
"182 348 LINE",
"28 182 LINE",
"241 -21 LINE"
);
}
);
vertWidth = 0;
width = 541;
}
);
note = "";
unicode = 10CDF;
},
{
glyphname = uni10C99.ltr;
layers = (
{
layerId = "1726D991-AB6C-46C4-B949-411F6BDA7822";
paths = (
{
closed = 1;
nodes = (
"471 47 LINE",
"257 182 OFFCURVE",
"180 278 OFFCURVE",
"180 424 CURVE SMOOTH",
"180 569 OFFCURVE",
"252 658 OFFCURVE",
"476 806 CURVE",
"415 873 LINE",
"172 714 OFFCURVE",
"86 596 OFFCURVE",
"86 424 CURVE SMOOTH",
"86 251 OFFCURVE",
"172 135 OFFCURVE",
"420 -24 CURVE"
);
}
);
vertWidth = 0;
width = 538;
}
);
rightKerningGroup = uni10C99;
note = "";
},
{
glyphname = uni10C89;
layers = (
{
layerId = "1726D991-AB6C-46C4-B949-411F6BDA7822";
paths = (
{
closed = 1;
nodes = (
"200 16 OFFCURVE",
"252 54 OFFCURVE",
"295 90 CURVE",
"418 -16 LINE",
"467 47 LINE",
"354 145 LINE",
"437 232 OFFCURVE",
"468 317 OFFCURVE",
"468 424 CURVE SMOOTH",
"468 532 OFFCURVE",
"436 618 OFFCURVE",
"352 707 CURVE",
"467 807 LINE",
"418 870 LINE",
"293 762 LINE",
"252 798 OFFCURVE",
"202 834 OFFCURVE",
"142 873 CURVE",
"81 806 LINE",
"138 768 OFFCURVE",
"185 734 OFFCURVE",
"224 702 CURVE",
"98 594 LINE",
"153 534 LINE",
"283 647 LINE",
"350 576 OFFCURVE",
"374 510 OFFCURVE",
"374 424 CURVE SMOOTH",
"374 339 OFFCURVE",
"349 271 OFFCURVE",
"287 203 CURVE",
"153 319 LINE",
"98 260 LINE",
"228 148 LINE",
"190 116 OFFCURVE",
"143 83 OFFCURVE",
"86 47 CURVE",
"137 -24 LINE"
);
}
);
vertWidth = 0;
width = 563;
}
);
note = "";
unicode = 10C89;
},
{
glyphname = uni10CC3;
layers = (
{
layerId = "1726D991-AB6C-46C4-B949-411F6BDA7822";
paths = (
{
closed = 1;
nodes = (
"257 74 LINE",
"282 49 OFFCURVE",
"311 24 OFFCURVE",
"343 0 CURVE",
"412 0 LINE",
"443 24 OFFCURVE",
"472 48 OFFCURVE",
"497 73 CURVE",
"559 -1 LINE",
"711 65 LINE",
"683 131 LINE",
"581 83 LINE",
"545 130 LINE",
"581 180 OFFCURVE",
"601 235 OFFCURVE",
"601 300 CURVE SMOOTH",
"601 365 OFFCURVE",
"581 420 OFFCURVE",
"545 470 CURVE",
"581 515 LINE",
"683 467 LINE",
"711 535 LINE",
"559 600 LINE",
"497 527 LINE",
"472 552 OFFCURVE",
"443 576 OFFCURVE",
"412 600 CURVE",
"343 600 LINE",
"311 575 OFFCURVE",
"282 551 OFFCURVE",
"256 525 CURVE",
"193 600 LINE",
"40 535 LINE",
"70 467 LINE",
"170 515 LINE",
"208 467 LINE",
"174 418 OFFCURVE",
"155 363 OFFCURVE",
"155 300 CURVE SMOOTH",
"155 236 OFFCURVE",
"174 181 OFFCURVE",
"208 132 CURVE",
"170 83 LINE",
"70 131 LINE",
"40 65 LINE",
"193 -1 LINE"
);
},
{
closed = 1;
nodes = (
"281 145 OFFCURVE",
"238 205 OFFCURVE",
"238 300 CURVE SMOOTH",
"238 393 OFFCURVE",
"280 454 OFFCURVE",
"377 536 CURVE",
"379 536 LINE",
"474 454 OFFCURVE",
"518 393 OFFCURVE",
"518 300 CURVE SMOOTH",
"518 206 OFFCURVE",
"475 145 OFFCURVE",
"379 64 CURVE",
"377 64 LINE"
);
}
);
vertWidth = 0;
width = 751;
}
);
note = "";
unicode = 10CC3;
},
{
glyphname = uni10CDB;
layers = (
{
layerId = "1726D991-AB6C-46C4-B949-411F6BDA7822";
paths = (
{
closed = 1;
nodes = (
"349 80 OFFCURVE",
"418 168 OFFCURVE",
"418 295 CURVE SMOOTH",
"418 415 OFFCURVE",
"363 503 OFFCURVE",
"211 624 CURVE",
"32 455 LINE",
"90 397 LINE",
"212 514 LINE",
"302 435 OFFCURVE",
"331 377 OFFCURVE",
"331 295 CURVE SMOOTH",
"331 214 OFFCURVE",
"301 152 OFFCURVE",
"219 81 CURVE",
"90 204 LINE",
"32 146 LINE",
"211 -22 LINE"
);
}
);
vertWidth = 0;
width = 473;
}
);
rightKerningGroup = uni10CD9;
note = "";
unicode = 10CDB;
},
{
glyphname = uni10CEE_10CC0;
layers = (
{
layerId = "1726D991-AB6C-46C4-B949-411F6BDA7822";
paths = (
{
closed = 1;
nodes = (
"347 0 LINE",
"347 499 LINE",
"498 394 LINE",
"649 499 LINE",
"649 0 LINE",
"734 0 LINE",
"734 600 LINE",
"655 600 LINE",
"498 486 LINE",
"339 600 LINE",
"230 600 LINE",
"32 409 LINE",
"32 300 LINE",
"262 289 LINE",
"262 0 LINE"
);
},
{
closed = 1;
nodes = (
"108 373 LINE",
"262 523 LINE",
"262 366 LINE"
);
}
);
vertWidth = 0;
width = 829;
}
);
leftKerningGroup = uni10CC0;
note = "";
},
{
glyphname = uni10CE6_10CD0;
layers = (
{
layerId = "1726D991-AB6C-46C4-B949-411F6BDA7822";
paths = (
{
closed = 1;
nodes = (
"265 0 LINE",
"265 215 LINE",
"602 567 LINE",
"540 621 LINE",
"265 331 LINE",
"265 524 LINE",
"406 590 LINE",
"376 655 LINE",
"259 600 LINE",
"178 600 LINE",
"178 562 LINE",
"30 493 LINE",
"60 428 LINE",
"178 483 LINE",
"178 0 LINE"
);
}
);
vertWidth = 0;
width = 600;
}
);
note = "";
},
{
glyphname = uni10CEA;
layers = (
{
layerId = "1726D991-AB6C-46C4-B949-411F6BDA7822";
paths = (
{
closed = 1;
nodes = (
"172 0 LINE",
"331 114 LINE",
"488 0 LINE",
"567 0 LINE",
"567 600 LINE",
"488 600 LINE",
"331 486 LINE",
"172 600 LINE",
"95 600 LINE",
"95 0 LINE"
);
},
{
closed = 1;
nodes = (
"180 499 LINE",
"331 394 LINE",
"482 499 LINE",
"482 100 LINE",
"331 206 LINE",
"180 100 LINE"
);
}
);
vertWidth = 0;
width = 662;
}
);
note = "";
unicode = 10CEA;
},
{
glyphname = uni10CC2_10CC0;
layers = (
{
layerId = "1726D991-AB6C-46C4-B949-411F6BDA7822";
paths = (
{
closed = 1;
nodes = (
"212 0 LINE",
"375 253 LINE",
"535 0 LINE",
"636 0 LINE",
"429 313 LINE",
"621 600 LINE",
"527 600 LINE",
"378 371 LINE",
"229 600 LINE",
"109 600 LINE",
"30 302 LINE",
"98 246 LINE",
"300 348 LINE",
"325 311 LINE",
"118 0 LINE"
);
},
{
closed = 1;
nodes = (
"173 536 LINE",
"259 408 LINE",
"121 342 LINE"
);
}
);
vertWidth = 0;
width = 646;
}
);
rightKerningGroup = uni10CC2;
note = "";
},
{
glyphname = uni10CD1.ltr;
layers = (
{
layerId = "1726D991-AB6C-46C4-B949-411F6BDA7822";
paths = (
{
closed = 1;
nodes = (
"235 0 LINE",
"235 509 LINE",
"378 430 LINE",
"413 492 LINE",
"29 703 LINE",
"0 640 LINE",
"148 558 LINE",
"148 0 LINE"
);
}
);
vertWidth = 0;
width = 421;
}
);
note = "";
},
{
glyphname = uni10C8B.ltr;
layers = (
{
layerId = "1726D991-AB6C-46C4-B949-411F6BDA7822";
paths = (
{
closed = 1;
nodes = (
"424 128 LINE",
"253 231 OFFCURVE",
"176 308 OFFCURVE",
"176 424 CURVE SMOOTH",
"176 541 OFFCURVE",
"252 617 OFFCURVE",
"424 721 CURVE",
"232 887 LINE",
"174 819 LINE",
"281 730 LINE",
"140 632 OFFCURVE",
"82 544 OFFCURVE",
"82 424 CURVE SMOOTH",
"82 306 OFFCURVE",
"140 218 OFFCURVE",
"281 119 CURVE",
"174 30 LINE",
"232 -39 LINE"
);
}
);
vertWidth = 0;
width = 512;
}
);
note = "";
},
{
glyphname = uni10C82;
layers = (
{
layerId = "1726D991-AB6C-46C4-B949-411F6BDA7822";
paths = (
{
closed = 1;
nodes = (
"108 0 LINE",
"343 375 LINE",
"575 0 LINE",
"687 0 LINE",
"404 445 LINE",
"667 849 LINE",
"563 849 LINE",
"346 509 LINE",
"132 849 LINE",
"22 849 LINE",
"286 443 LINE",
"4 0 LINE"
);
}
);
vertWidth = 0;
width = 691;
}
);
note = "";
unicode = 10C82;
},
{
glyphname = uni10CC2_10CDB;
layers = (
{
layerId = "1726D991-AB6C-46C4-B949-411F6BDA7822";
paths = (
{
closed = 1;
nodes = (
"367 253 LINE",
"527 0 LINE",
"628 0 LINE",
"421 313 LINE",
"613 600 LINE",
"519 600 LINE",
"370 371 LINE",
"202 621 LINE",
"34 525 LINE",
"75 457 LINE",
"175 517 LINE",
"317 311 LINE",
"164 82 LINE",
"65 141 LINE",
"24 73 LINE",
"192 -23 LINE"
);
}
);
vertWidth = 0;
width = 638;
}
);
rightKerningGroup = uni10CC2;
note = "";
},
{
glyphname = uni10CE7.ltr;
layers = (
{
layerId = "1726D991-AB6C-46C4-B949-411F6BDA7822";
paths = (
{
closed = 1;
nodes = (
"373 0 LINE",
"373 350 LINE",
"518 508 LINE",
"594 430 LINE",
"647 482 LINE",
"514 611 LINE",
"373 455 LINE",
"373 600 LINE",
"288 600 LINE",
"288 456 LINE",
"146 611 LINE",
"14 482 LINE",
"66 430 LINE",
"143 508 LINE",
"288 351 LINE",
"288 0 LINE"
);
}
);
vertWidth = 0;
width = 661;
}
);
note = "";
},
{
glyphname = uni10CA3;
layers = (
{
layerId = "1726D991-AB6C-46C4-B949-411F6BDA7822";
paths = (
{
closed = 1;
nodes = (
"556 535 LINE",
"514 609 LINE",
"52 336 LINE",
"93 262 LINE"
);
}
);
vertWidth = 0;
width = 613;
}
);
note = "";
unicode = 10CA3;
},
{
glyphname = uni10CD6_10CC1.ltr;
layers = (
{
layerId = "1726D991-AB6C-46C4-B949-411F6BDA7822";
paths = (
{
closed = 1;
nodes = (
"93 0 LINE",
"139 105 LINE",
"179 0 LINE",
"263 0 LINE",
"181 200 LINE",
"217 282 LINE",
"335 0 LINE",
"419 0 LINE",
"258 376 LINE",
"278 422 OFFCURVE",
"294 467 OFFCURVE",
"304 498 CURVE",
"308 498 LINE",
"318 466 OFFCURVE",
"332 428 OFFCURVE",
"357 371 CURVE SMOOTH",
"414 243 LINE",
"362 176 LINE",
"400 91 LINE",
"452 157 LINE",
"522 0 LINE",
"607 0 LINE",
"507 227 LINE",
"666 430 LINE",
"635 505 LINE",
"377 600 LINE",
"271 600 LINE",
"5 0 LINE"
);
},
{
closed = 1;
nodes = (
"379 515 LINE",
"569 441 LINE",
"469 313 LINE"
);
}
);
vertWidth = 0;
width = 700;
}
);
rightKerningGroup = uni10CE4;
note = "";
},
{
glyphname = uni10CC7.ltr;
layers = (
{
layerId = "1726D991-AB6C-46C4-B949-411F6BDA7822";
paths = (
{
closed = 1;
nodes = (
"262 0 LINE",
"262 245 LINE",
"377 186 LINE",
"411 251 LINE",
"262 328 LINE",
"262 600 LINE",
"175 600 LINE",
"175 374 LINE",
"59 434 LINE",
"26 366 LINE",
"175 290 LINE",
"175 0 LINE"
);
}
);
vertWidth = 0;
width = 437;
}
);
note = "";
},
{
glyphname = uni10CCF_10CD0.ltr;
layers = (
{
layerId = "1726D991-AB6C-46C4-B949-411F6BDA7822";
paths = (
{
closed = 1;
nodes = (
"149 0 LINE",
"276 115 LINE",
"402 0 LINE",
"510 0 LINE",
"331 164 LINE",
"494 311 LINE",
"331 445 LINE",
"374 482 LINE",
"448 420 LINE",
"496 475 LINE",
"429 529 LINE",
"512 600 LINE",
"403 600 LINE",
"373 575 LINE",
"319 619 LINE",
"269 571 LINE",
"320 528 LINE",
"276 491 LINE",
"148 600 LINE",
"40 600 LINE",
"220 445 LINE",
"58 311 LINE",
"221 164 LINE",
"42 0 LINE"
);
},
{
closed = 1;
nodes = (
"171 310 LINE",
"276 397 LINE",
"379 310 LINE",
"276 215 LINE"
);
}
);
vertWidth = 0;
width = 552;
}
);
note = "";
},
{
glyphname = uni10C97.ltr;
layers = (
{
layerId = "1726D991-AB6C-46C4-B949-411F6BDA7822";
paths = (
{
closed = 1;
nodes = (
"430 0 LINE",
"586 123 OFFCURVE",
"683 248 OFFCURVE",
"683 424 CURVE SMOOTH",
"683 601 OFFCURVE",
"586 727 OFFCURVE",
"431 849 CURVE",
"337 849 LINE",
"182 727 OFFCURVE",
"85 601 OFFCURVE",
"85 424 CURVE SMOOTH",
"85 248 OFFCURVE",
"182 123 OFFCURVE",
"337 0 CURVE"
);
},
{
closed = 1;
nodes = (
"244 192 OFFCURVE",
"178 283 OFFCURVE",
"178 424 CURVE SMOOTH",
"178 480 OFFCURVE",
"188 529 OFFCURVE",
"210 574 CURVE",
"518 209 LINE",
"485 164 OFFCURVE",
"441 121 OFFCURVE",
"386 72 CURVE",
"382 72 LINE"
);
},
{
closed = 1;
nodes = (
"249 641 LINE",
"282 685 OFFCURVE",
"326 729 OFFCURVE",
"382 778 CURVE",
"386 778 LINE",
"523 658 OFFCURVE",
"590 565 OFFCURVE",
"590 424 CURVE SMOOTH",
"590 369 OFFCURVE",
"580 322 OFFCURVE",
"560 278 CURVE"
);
}
);
vertWidth = 0;
width = 768;
}
);
rightKerningGroup = uni10C99;
note = "";
},
{
glyphname = uni10CE4_10CC0;
layers = (
{
layerId = "1726D991-AB6C-46C4-B949-411F6BDA7822";
paths = (
{
closed = 1;
nodes = (
"193 0 LINE",
"340 371 LINE SMOOTH",
"363 429 OFFCURVE",
"374 461 OFFCURVE",
"382 496 CURVE",
"386 496 LINE",
"394 463 OFFCURVE",
"407 420 OFFCURVE",
"426 371 CURVE SMOOTH",
"573 0 LINE",
"662 0 LINE",
"419 600 LINE",
"304 600 LINE",
"35 483 LINE",
"22 388 LINE",
"227 300 LINE",
"106 0 LINE"
);
},
{
closed = 1;
nodes = (
"103 434 LINE",
"315 518 LINE",
"254 368 LINE"
);
}
);
vertWidth = 0;
width = 666;
}
);
rightKerningGroup = uni10CE4;
note = "";
},
{
glyphname = .notdef;
layers = (
{
layerId = "1726D991-AB6C-46C4-B949-411F6BDA7822";
paths = (
{
closed = 1;
nodes = (
"505 0 LINE",
"505 714 LINE",
"94 714 LINE",
"94 0 LINE"
);
},
{
closed = 1;
nodes = (
"145 663 LINE",
"454 663 LINE",
"454 51 LINE",
"145 51 LINE"
);
}
);
vertWidth = 0;
width = 600;
}
);
note = "";
},
{
glyphname = uni10CC5;
layers = (
{
layerId = "1726D991-AB6C-46C4-B949-411F6BDA7822";
paths = (
{
closed = 1;
nodes = (
"252 0 LINE",
"443 166 LINE",
"394 224 LINE",
"267 112 LINE",
"267 488 LINE",
"394 376 LINE",
"443 434 LINE",
"252 600 LINE",
"195 600 LINE",
"4 434 LINE",
"53 376 LINE",
"180 488 LINE",
"180 112 LINE",
"53 224 LINE",
"4 166 LINE",
"195 0 LINE"
);
}
);
vertWidth = 0;
width = 447;
}
);
note = "";
unicode = 10CC5;
},
{
glyphname = uni10CE1.ltr;
layers = (
{
layerId = "1726D991-AB6C-46C4-B949-411F6BDA7822";
paths = (
{
closed = 1;
nodes = (
"255 71 LINE",
"280 47 OFFCURVE",
"308 23 OFFCURVE",
"339 0 CURVE",
"408 0 LINE",
"439 23 OFFCURVE",
"467 46 OFFCURVE",
"491 71 CURVE",
"576 -17 LINE",
"635 36 LINE",
"539 127 LINE",
"562 159 OFFCURVE",
"579 194 OFFCURVE",
"588 231 CURVE",
"694 174 LINE",
"732 241 LINE",
"596 311 LINE",
"594 371 OFFCURVE",
"574 421 OFFCURVE",
"541 465 CURVE",
"664 406 LINE",
"699 475 LINE",
"409 600 LINE",
"337 600 LINE",
"47 475 LINE",
"82 406 LINE",
"206 466 LINE",
"172 421 OFFCURVE",
"152 371 OFFCURVE",
"150 311 CURVE",
"14 241 LINE",
"52 174 LINE",
"158 231 LINE",
"167 194 OFFCURVE",
"184 160 OFFCURVE",
"207 127 CURVE",
"111 36 LINE",
"170 -17 LINE"
);
},
{
closed = 1;
nodes = (
"276 145 OFFCURVE",
"233 206 OFFCURVE",
"233 300 CURVE SMOOTH",
"233 396 OFFCURVE",
"277 462 OFFCURVE",
"372 536 CURVE",
"374 536 LINE",
"471 462 OFFCURVE",
"513 396 OFFCURVE",
"513 300 CURVE SMOOTH",
"513 205 OFFCURVE",
"470 145 OFFCURVE",
"374 64 CURVE",
"372 64 LINE"
);
}
);
vertWidth = 0;
width = 746;
}
);
note = "";
},
{
glyphname = uni10CC4_10CD4.ltr;
layers = (
{
layerId = "1726D991-AB6C-46C4-B949-411F6BDA7822";
paths = (
{
closed = 1;
nodes = (
"267 0 LINE",
"628 149 LINE",
"588 224 LINE",
"434 268 LINE",
"579 328 LINE",
"544 403 LINE",
"310 302 LINE",
"340 226 LINE",
"495 177 LINE",
"267 90 LINE",
"267 488 LINE",
"394 376 LINE",
"443 434 LINE",
"252 600 LINE",
"195 600 LINE",
"4 434 LINE",
"53 376 LINE",
"180 488 LINE",
"180 0 LINE"
);
}
);
vertWidth = 0;
width = 658;
}
);
rightKerningGroup = uni10CC4;
note = "";
},
{
glyphname = uni10CEE_10CC0_10CE2;
layers = (
{
layerId = "1726D991-AB6C-46C4-B949-411F6BDA7822";
paths = (
{
closed = 1;
nodes = (
"182 0 LINE",
"182 71 LINE",
"482 192 LINE",
"482 0 LINE",
"567 0 LINE",
"567 499 LINE",
"718 394 LINE",
"869 499 LINE",
"869 0 LINE",
"954 0 LINE",
"954 600 LINE",
"875 600 LINE",
"718 486 LINE",
"559 600 LINE",
"450 600 LINE",
"232 449 LINE",
"232 361 LINE",
"469 270 LINE",
"182 154 LINE",
"182 600 LINE",
"95 600 LINE",
"95 0 LINE"
);
},
{
closed = 1;
nodes = (
"308 413 LINE",
"482 523 LINE",
"482 346 LINE"
);
}
);
vertWidth = 0;
width = 1049;
}
);
note = "";
},
{
glyphname = uni10CD7.ltr;
layers = (
{
layerId = "1726D991-AB6C-46C4-B949-411F6BDA7822";
paths = (
{
closed = 1;
nodes = (
"313 0 LINE",
"426 85 OFFCURVE",
"501 174 OFFCURVE",
"501 300 CURVE SMOOTH",
"501 425 OFFCURVE",
"426 514 OFFCURVE",
"313 600 CURVE",
"244 600 LINE",
"131 514 OFFCURVE",
"55 425 OFFCURVE",
"55 300 CURVE SMOOTH",
"55 174 OFFCURVE",
"131 85 OFFCURVE",
"244 0 CURVE"
);
},
{
closed = 1;
nodes = (
"181 145 OFFCURVE",
"138 206 OFFCURVE",
"138 300 CURVE SMOOTH",
"138 333 OFFCURVE",
"144 362 OFFCURVE",
"155 389 CURVE",
"363 147 LINE",
"342 120 OFFCURVE",
"314 93 OFFCURVE",
"279 64 CURVE",
"277 64 LINE"
);
},
{
closed = 1;
nodes = (
"190 448 LINE",
"212 476 OFFCURVE",
"241 505 OFFCURVE",
"277 536 CURVE",
"279 536 LINE",
"376 454 OFFCURVE",
"418 393 OFFCURVE",
"418 300 CURVE SMOOTH",
"418 266 OFFCURVE",
"412 236 OFFCURVE",
"401 208 CURVE"
);
}
);
vertWidth = 0;
width = 556;
}
);
leftKerningGroup = uni10CD7;
rightKerningGroup = uni10CD9;
note = "";
},
{
glyphname = uni10C8D;
layers = (
{
layerId = "1726D991-AB6C-46C4-B949-411F6BDA7822";
paths = (
{
closed = 1;
nodes = (
"121 0 LINE",
"333 546 LINE SMOOTH",
"361 618 OFFCURVE",
"385 681 OFFCURVE",
"399 737 CURVE",
"403 737 LINE",
"417 681 OFFCURVE",
"440 620 OFFCURVE",
"468 548 CURVE SMOOTH",
"480 518 LINE",
"286 0 LINE",
"380 0 LINE",
"524 404 LINE",
"681 0 LINE",
"780 0 LINE",
"447 849 LINE",
"360 849 LINE",
"21 0 LINE"
);
}
);
vertWidth = 0;
width = 801;
}
);
note = "";
unicode = 10C8D;
},
{
glyphname = uni10CD6.ltr;
layers = (
{
layerId = "1726D991-AB6C-46C4-B949-411F6BDA7822";
paths = (
{
closed = 1;
nodes = (
"93 0 LINE",
"144 117 LINE",
"189 0 LINE",
"273 0 LINE",
"186 212 LINE",
"227 305 LINE",
"355 0 LINE",
"439 0 LINE",
"268 399 LINE",
"283 437 OFFCURVE",
"296 472 OFFCURVE",
"304 498 CURVE",
"308 498 LINE",
"318 466 OFFCURVE",
"332 428 OFFCURVE",
"357 371 CURVE SMOOTH",
"522 0 LINE",
"607 0 LINE",
"342 600 LINE",
"271 600 LINE",
"5 0 LINE"
);
}
);
vertWidth = 0;
width = 612;
}
);
leftKerningGroup = uni10CE4;
rightKerningGroup = uni10CE4;
note = "";
},
{
glyphname = uni10CD6_10CE6.ltr;
layers = (
{
layerId = "1726D991-AB6C-46C4-B949-411F6BDA7822";
paths = (
{
closed = 1;
nodes = (
"92 0 LINE",
"143 117 LINE",
"188 0 LINE",
"272 0 LINE",
"185 212 LINE",
"226 305 LINE",
"354 0 LINE",
"438 0 LINE",
"267 399 LINE",
"282 437 OFFCURVE",
"295 472 OFFCURVE",
"303 498 CURVE",
"307 498 LINE",
"317 466 OFFCURVE",
"331 428 OFFCURVE",
"356 371 CURVE SMOOTH",
"521 0 LINE",
"606 0 LINE",
"461 329 LINE",
"639 578 LINE",
"570 625 LINE",
"423 413 LINE",
"341 600 LINE",
"270 600 LINE",
"4 0 LINE"
);
}
);
vertWidth = 0;
width = 668;
}
);
rightKerningGroup = uni10CE4;
note = "";
},
{
glyphname = uni10CC8;
layers = (
{
layerId = "1726D991-AB6C-46C4-B949-411F6BDA7822";
paths = (
{
closed = 1;
nodes = (
"104 0 LINE",
"267 253 LINE",
"427 0 LINE",
"528 0 LINE",
"332 296 LINE",
"496 343 LINE",
"481 407 LINE",
"361 372 LINE",
"513 600 LINE",
"419 600 LINE",
"270 371 LINE",
"121 600 LINE",
"22 600 LINE",
"206 328 LINE",
"33 278 LINE",
"56 217 LINE",
"178 252 LINE",
"10 0 LINE"
);
}
);
vertWidth = 0;
width = 538;
}
);
note = "";
unicode = 10CC8;
},
{
glyphname = uni10CAF;
layers = (
{
layerId = "1726D991-AB6C-46C4-B949-411F6BDA7822";
paths = (
{
closed = 1;
nodes = (
"208 -1 LINE",
"615 258 LINE",
"615 -1 LINE",
"705 -1 LINE",
"705 849 LINE",
"618 849 LINE",
"211 592 LINE",
"211 849 LINE",
"121 849 LINE",
"121 -1 LINE"
);
},
{
closed = 1;
nodes = (
"211 253 LINE",
"615 508 LINE",
"615 348 LINE",
"211 93 LINE"
);
},
{
closed = 1;
nodes = (
"211 503 LINE",
"615 758 LINE",
"615 597 LINE",
"211 342 LINE"
);
}
);
vertWidth = 0;
width = 820;
}
);
note = "";
unicode = 10CAF;
},
{
glyphname = uni10CEF;
layers = (
{
layerId = "1726D991-AB6C-46C4-B949-411F6BDA7822";
paths = (
{
closed = 1;
nodes = (
"180 0 LINE",
"435 173 LINE",
"435 0 LINE",
"520 0 LINE",
"520 600 LINE",
"435 600 LINE",
"180 427 LINE",
"180 600 LINE",
"95 600 LINE",
"95 0 LINE"
);
},
{
closed = 1;
nodes = (
"180 173 LINE",
"435 346 LINE",
"435 254 LINE",
"180 81 LINE"
);
},
{
closed = 1;
nodes = (
"180 346 LINE",
"435 519 LINE",
"435 427 LINE",
"180 254 LINE"
);
}
);
vertWidth = 0;
width = 615;
}
);
note = "";
unicode = 10CEF;
},
{
glyphname = uni10CC0_10CD6;
layers = (
{
layerId = "1726D991-AB6C-46C4-B949-411F6BDA7822";
paths = (
{
closed = 1;
nodes = (
"90 0 LINE",
"255 371 LINE SMOOTH",
"280 428 OFFCURVE",
"294 466 OFFCURVE",
"304 498 CURVE",
"308 498 LINE",
"316 472 OFFCURVE",
"329 437 OFFCURVE",
"344 399 CURVE",
"173 0 LINE",
"257 0 LINE",
"385 305 LINE",
"426 212 LINE",
"339 0 LINE",
"423 0 LINE",
"468 117 LINE",
"519 0 LINE",
"607 0 LINE",
"480 285 LINE",
"675 417 LINE",
"634 505 LINE",
"376 600 LINE",
"270 600 LINE",
"5 0 LINE"
);
},
{
closed = 1;
nodes = (
"378 516 LINE",
"579 441 LINE",
"450 355 LINE"
);
}
);
vertWidth = 0;
width = 699;
}
);
leftKerningGroup = uni10CE4;
note = "";
},
{
glyphname = uni10CE2_10CDB;
layers = (
{
layerId = "1726D991-AB6C-46C4-B949-411F6BDA7822";
paths = (
{
closed = 1;
nodes = (
"323 61 OFFCURVE",
"390 134 OFFCURVE",
"411 227 CURVE",
"558 336 LINE",
"558 0 LINE",
"645 0 LINE",
"645 600 LINE",
"558 600 LINE",
"558 425 LINE",
"417 321 LINE",
"409 428 OFFCURVE",
"352 512 OFFCURVE",
"211 624 CURVE",
"32 455 LINE",
"90 397 LINE",
"212 514 LINE",
"302 435 OFFCURVE",
"331 377 OFFCURVE",
"331 295 CURVE SMOOTH",
"331 214 OFFCURVE",
"301 152 OFFCURVE",
"219 81 CURVE",
"90 204 LINE",
"32 146 LINE",
"211 -22 LINE"
);
}
);
vertWidth = 0;
width = 740;
}
);
note = "";
},
{
glyphname = uni10CC0_10CC2.ltr;
layers = (
{
layerId = "1726D991-AB6C-46C4-B949-411F6BDA7822";
paths = (
{
closed = 1;
nodes = (
"212 0 LINE",
"375 253 LINE",
"535 0 LINE",
"636 0 LINE",
"429 313 LINE",
"621 600 LINE",
"527 600 LINE",
"378 371 LINE",
"229 600 LINE",
"109 600 LINE",
"30 302 LINE",
"98 246 LINE",
"300 348 LINE",
"325 311 LINE",
"118 0 LINE"
);
},
{
closed = 1;
nodes = (
"173 536 LINE",
"259 408 LINE",
"121 342 LINE"
);
}
);
vertWidth = 0;
width = 646;
}
);
leftKerningGroup = uni10CC2;
note = "";
},
{
glyphname = uni10CC6_10CC0.ltr;
layers = (
{
layerId = "1726D991-AB6C-46C4-B949-411F6BDA7822";
paths = (
{
closed = 1;
nodes = (
"180 0 LINE",
"180 170 LINE",
"444 0 LINE",
"520 0 LINE",
"520 289 LINE",
"750 300 LINE",
"750 403 LINE",
"546 600 LINE",
"435 600 LINE",
"435 428 LINE",
"171 600 LINE",
"95 600 LINE",
"95 0 LINE"
);
},
{
closed = 1;
nodes = (
"180 255 LINE",
"180 510 LINE",
"435 343 LINE",
"435 91 LINE"
);
},
{
closed = 1;
nodes = (
"520 521 LINE",
"674 373 LINE",
"520 366 LINE"
);
}
);
vertWidth = 0;
width = 782;
}
);
leftKerningGroup = uni10CC0;
note = "";
},
{
glyphname = uni10CB0;
layers = (
{
layerId = "1726D991-AB6C-46C4-B949-411F6BDA7822";
paths = (
{
closed = 1;
nodes = (
"440 -1 LINE",
"440 363 LINE",
"780 826 LINE",
"706 877 LINE",
"440 505 LINE",
"440 849 LINE",
"350 849 LINE",
"350 505 LINE",
"84 877 LINE",
"10 826 LINE",
"350 363 LINE",
"350 -1 LINE"
);
}
);
vertWidth = 0;
width = 796;
}
);
note = "";
unicode = 10CB0;
},
{
glyphname = uni10CAA;
layers = (
{
layerId = "1726D991-AB6C-46C4-B949-411F6BDA7822";
paths = (
{
closed = 1;
nodes = (
"212 0 LINE",
"437 175 LINE",
"662 0 LINE",
"750 0 LINE",
"750 849 LINE",
"662 849 LINE",
"437 675 LINE",
"212 849 LINE",
"124 849 LINE",
"124 0 LINE"
);
},
{
closed = 1;
nodes = (
"214 742 LINE",
"437 574 LINE",
"660 742 LINE",
"660 107 LINE",
"437 275 LINE",
"214 107 LINE"
);
}
);
vertWidth = 0;
width = 885;
}
);
note = "";
unicode = 10CAA;
},
{
glyphname = uni10CC2;
layers = (
{
layerId = "1726D991-AB6C-46C4-B949-411F6BDA7822";
paths = (
{
closed = 1;
nodes = (
"104 0 LINE",
"267 253 LINE",
"427 0 LINE",
"528 0 LINE",
"321 313 LINE",
"513 600 LINE",
"419 600 LINE",
"270 371 LINE",
"121 600 LINE",
"22 600 LINE",
"217 311 LINE",
"10 0 LINE"
);
}
);
vertWidth = 0;
width = 538;
}
);
leftKerningGroup = uni10CC2;
rightKerningGroup = uni10CC2;
note = "";
unicode = 10CC2;
},
{
glyphname = uni10C87.ltr;
layers = (
{
layerId = "1726D991-AB6C-46C4-B949-411F6BDA7822";
paths = (
{
closed = 1;
nodes = (
"362 0 LINE",
"362 371 LINE",
"531 279 LINE",
"570 351 LINE",
"362 462 LINE",
"362 849 LINE",
"266 849 LINE",
"266 512 LINE",
"97 607 LINE",
"58 533 LINE",
"266 420 LINE",
"266 0 LINE"
);
}
);
vertWidth = 0;
width = 627;
}
);
note = "";
},
{
glyphname = uni10CEE_10CC1_10CE2;
layers = (
{
layerId = "1726D991-AB6C-46C4-B949-411F6BDA7822";
paths = (
{
closed = 1;
nodes = (
"182 0 LINE",
"182 71 LINE",
"482 192 LINE",
"482 0 LINE",
"567 0 LINE",
"567 240 LINE",
"729 178 LINE",
"757 245 LINE",
"567 317 LINE",
"567 499 LINE",
"718 394 LINE",
"869 499 LINE",
"869 0 LINE",
"954 0 LINE",
"954 600 LINE",
"875 600 LINE",
"718 486 LINE",
"559 600 LINE",
"450 600 LINE",
"232 449 LINE",
"232 361 LINE",
"469 270 LINE",
"182 154 LINE",
"182 600 LINE",
"95 600 LINE",
"95 0 LINE"
);
},
{
closed = 1;
nodes = (
"308 413 LINE",
"482 523 LINE",
"482 346 LINE"
);
}
);
vertWidth = 0;
width = 1049;
}
);
note = "";
},
{
glyphname = uni10CF2.ltr;
layers = (
{
layerId = "1726D991-AB6C-46C4-B949-411F6BDA7822";
paths = (
{
closed = 1;
nodes = (
"313 0 LINE",
"426 85 OFFCURVE",
"501 174 OFFCURVE",
"501 300 CURVE SMOOTH",
"501 425 OFFCURVE",
"426 514 OFFCURVE",
"313 600 CURVE",
"244 600 LINE",
"131 514 OFFCURVE",
"55 425 OFFCURVE",
"55 300 CURVE SMOOTH",
"55 174 OFFCURVE",
"131 85 OFFCURVE",
"244 0 CURVE"
);
},
{
closed = 1;
nodes = (
"170 163 OFFCURVE",
"138 219 OFFCURVE",
"138 300 CURVE SMOOTH",
"138 380 OFFCURVE",
"170 436 OFFCURVE",
"239 502 CURVE",
"239 98 LINE"
);
},
{
closed = 1;
nodes = (
"316 503 LINE",
"387 437 OFFCURVE",
"418 380 OFFCURVE",
"418 300 CURVE SMOOTH",
"418 218 OFFCURVE",
"386 162 OFFCURVE",
"316 97 CURVE"
);
}
);
vertWidth = 0;
width = 556;
}
);
leftKerningGroup = uni10CD7;
rightKerningGroup = uni10CD9;
note = "";
},
{
glyphname = uni10CE2_10CC9.ltr;
layers = (
{
layerId = "1726D991-AB6C-46C4-B949-411F6BDA7822";
paths = (
{
closed = 1;
nodes = (
"507 51 LINE",
"545 27 OFFCURVE",
"589 4 OFFCURVE",
"642 -20 CURVE",
"679 47 LINE",
"634 67 OFFCURVE",
"597 86 OFFCURVE",
"567 104 CURVE",
"643 174 LINE",
"595 229 LINE",
"506 148 LINE",
"456 192 OFFCURVE",
"439 239 OFFCURVE",
"439 300 CURVE SMOOTH",
"439 359 OFFCURVE",
"456 403 OFFCURVE",
"506 446 CURVE",
"595 365 LINE",
"643 420 LINE",
"566 490 LINE",
"598 509 OFFCURVE",
"636 529 OFFCURVE",
"683 551 CURVE",
"638 618 LINE",
"586 594 OFFCURVE",
"541 570 OFFCURVE",
"504 546 CURVE",
"422 621 LINE",
"379 561 LINE",
"444 502 LINE",
"385 450 OFFCURVE",
"356 394 OFFCURVE",
"351 325 CURVE",
"182 434 LINE",
"182 600 LINE",
"95 600 LINE",
"95 0 LINE",
"182 0 LINE",
"182 345 LINE",
"358 231 LINE",
"370 180 OFFCURVE",
"399 136 OFFCURVE",
"447 95 CURVE",
"379 33 LINE",
"422 -27 LINE"
);
}
);
vertWidth = 0;
width = 733;
}
);
note = "";
},
{
glyphname = uni10CC2_10CC9.ltr;
layers = (
{
layerId = "1726D991-AB6C-46C4-B949-411F6BDA7822";
paths = (
{
closed = 1;
nodes = (
"401 51 LINE",
"434 0 LINE",
"528 0 LINE",
"459 104 LINE",
"536 174 LINE",
"488 229 LINE",
"418 165 LINE",
"321 311 LINE",
"407 438 LINE",
"488 365 LINE",
"536 420 LINE",
"448 500 LINE",
"516 600 LINE",
"417 600 LINE",
"388 555 LINE",
"315 621 LINE",
"272 561 LINE",
"347 493 LINE",
"268 371 LINE",
"119 600 LINE",
"25 600 LINE",
"217 313 LINE",
"10 0 LINE",
"111 0 LINE",
"271 253 LINE",
"361 114 LINE",
"272 33 LINE",
"315 -27 LINE"
);
}
);
vertWidth = 0;
width = 616;
}
);
rightKerningGroup = uni10CC2;
note = "";
},
{
glyphname = uni10CD0_10CE6.ltr;
layers = (
{
layerId = "1726D991-AB6C-46C4-B949-411F6BDA7822";
paths = (
{
closed = 1;
nodes = (
"234 0 LINE",
"234 130 LINE",
"541 477 LINE",
"473 526 LINE",
"234 251 LINE",
"234 427 LINE",
"315 404 LINE",
"332 470 LINE",
"234 497 LINE",
"234 600 LINE",
"147 600 LINE",
"147 521 LINE",
"46 549 LINE",
"31 483 LINE",
"147 451 LINE",
"147 0 LINE"
);
}
);
vertWidth = 0;
width = 559;
}
);
note = "";
},
{
glyphname = uni10C9D;
layers = (
{
layerId = "1726D991-AB6C-46C4-B949-411F6BDA7822";
paths = (
{
closed = 1;
nodes = (
"399 56 LINE",
"190 296 LINE",
"411 555 LINE",
"140 853 LINE",
"76 787 LINE",
"293 550 LINE",
"71 292 LINE",
"336 -10 LINE"
);
}
);
vertWidth = 0;
width = 482;
}
);
note = "";
unicode = 10C9D;
},
{
glyphname = uni10CE2_10CE6;
layers = (
{
layerId = "1726D991-AB6C-46C4-B949-411F6BDA7822";
paths = (
{
closed = 1;
nodes = (
"347 0 LINE",
"347 175 LINE",
"610 345 LINE",
"610 0 LINE",
"697 0 LINE",
"697 600 LINE",
"610 600 LINE",
"610 434 LINE",
"347 264 LINE",
"347 600 LINE",
"260 600 LINE",
"260 416 LINE",
"73 621 LINE",
"11 565 LINE",
"260 300 LINE",
"260 0 LINE"
);
}
);
vertWidth = 0;
width = 792;
}
);
leftKerningGroup = uni10CE6;
note = "";
},
{
glyphname = uni10CAA.ltr;
layers = (
{
layerId = "1726D991-AB6C-46C4-B949-411F6BDA7822";
paths = (
{
closed = 1;
nodes = (
"223 0 LINE",
"448 175 LINE",
"673 0 LINE",
"761 0 LINE",
"761 849 LINE",
"673 849 LINE",
"448 675 LINE",
"223 849 LINE",
"135 849 LINE",
"135 0 LINE"
);
},
{
closed = 1;
nodes = (
"225 742 LINE",
"448 574 LINE",
"671 742 LINE",
"671 107 LINE",
"448 275 LINE",
"225 107 LINE"
);
}
);
vertWidth = 0;
width = 885;
}
);
note = "";
},
{
glyphname = uni10CDB_10CE2.ltr;
layers = (
{
layerId = "1726D991-AB6C-46C4-B949-411F6BDA7822";
paths = (
{
closed = 1;
nodes = (
"351 89 OFFCURVE",
"409 173 OFFCURVE",
"417 279 CURVE",
"558 175 LINE",
"558 0 LINE",
"645 0 LINE",
"645 600 LINE",
"558 600 LINE",
"558 264 LINE",
"411 372 LINE",
"391 466 OFFCURVE",
"324 540 OFFCURVE",
"211 624 CURVE",
"32 456 LINE",
"90 398 LINE",
"219 521 LINE",
"301 450 OFFCURVE",
"331 388 OFFCURVE",
"331 307 CURVE SMOOTH",
"331 225 OFFCURVE",
"302 167 OFFCURVE",
"212 88 CURVE",
"90 205 LINE",
"32 147 LINE",
"211 -22 LINE"
);
}
);
vertWidth = 0;
width = 740;
}
);
note = "";
},
{
glyphname = uni10CD0;
layers = (
{
layerId = "1726D991-AB6C-46C4-B949-411F6BDA7822";
paths = (
{
closed = 1;
nodes = (
"270 0 LINE",
"270 410 LINE",
"421 494 LINE",
"392 557 LINE",
"270 490 LINE",
"270 600 LINE",
"183 600 LINE",
"183 442 LINE",
"32 359 LINE",
"67 297 LINE",
"183 362 LINE",
"183 0 LINE"
);
}
);
vertWidth = 0;
width = 452;
}
);
note = "";
unicode = 10CD0;
},
{
glyphname = uni10CD3;
layers = (
{
layerId = "1726D991-AB6C-46C4-B949-411F6BDA7822";
paths = (
{
closed = 1;
nodes = (
"285 0 LINE",
"460 304 LINE",
"285 600 LINE",
"209 600 LINE",
"33 304 LINE",
"209 0 LINE"
);
},
{
closed = 1;
nodes = (
"123 303 LINE",
"247 517 LINE",
"370 303 LINE",
"247 83 LINE"
);
}
);
vertWidth = 0;
width = 493;
}
);
note = "";
unicode = 10CD3;
},
{
glyphname = uni10CDA;
layers = (
{
layerId = "1726D991-AB6C-46C4-B949-411F6BDA7822";
paths = (
{
closed = 1;
nodes = (
"180 0 LINE",
"364 95 OFFCURVE",
"435 177 OFFCURVE",
"435 300 CURVE SMOOTH",
"435 418 OFFCURVE",
"361 503 OFFCURVE",
"180 600 CURVE",
"95 600 LINE",
"95 0 LINE"
);
},
{
closed = 1;
nodes = (
"180 512 LINE",
"313 435 OFFCURVE",
"348 380 OFFCURVE",
"348 300 CURVE SMOOTH",
"348 213 OFFCURVE",
"303 154 OFFCURVE",
"180 87 CURVE"
);
}
);
vertWidth = 0;
width = 490;
}
);
rightKerningGroup = uni10CD9;
note = "";
unicode = 10CDA;
},
{
glyphname = uni10CEA_10CE2;
layers = (
{
layerId = "1726D991-AB6C-46C4-B949-411F6BDA7822";
paths = (
{
closed = 1;
nodes = (
"182 0 LINE",
"182 175 LINE",
"365 309 LINE",
"365 0 LINE",
"442 0 LINE",
"601 114 LINE",
"758 0 LINE",
"837 0 LINE",
"837 600 LINE",
"758 600 LINE",
"601 486 LINE",
"442 600 LINE",
"365 600 LINE",
"365 398 LINE",
"182 264 LINE",
"182 600 LINE",
"95 600 LINE",
"95 0 LINE"
);
},
{
closed = 1;
nodes = (
"450 499 LINE",
"601 394 LINE",
"752 499 LINE",
"752 100 LINE",
"601 206 LINE",
"450 100 LINE"
);
}
);
vertWidth = 0;
width = 932;
}
);
note = "";
},
{
glyphname = uni10CC1.ltr;
layers = (
{
layerId = "1726D991-AB6C-46C4-B949-411F6BDA7822";
paths = (
{
closed = 1;
nodes = (
"182 0 LINE",
"182 164 LINE",
"391 334 LINE",
"391 414 LINE",
"180 600 LINE",
"95 600 LINE",
"95 0 LINE"
);
},
{
closed = 1;
nodes = (
"182 495 LINE",
"315 375 LINE",
"182 268 LINE"
);
}
);
vertWidth = 0;
width = 433;
}
);
note = "";
},
{
glyphname = uni10CCB.ltr;
layers = (
{
layerId = "1726D991-AB6C-46C4-B949-411F6BDA7822";
paths = (
{
closed = 1;
nodes = (
"320 97 LINE",
"250 137 LINE",
"165 191 OFFCURVE",
"131 241 OFFCURVE",
"131 300 CURVE SMOOTH",
"131 361 OFFCURVE",
"169 413 OFFCURVE",
"264 471 CURVE",
"320 502 LINE",
"158 639 LINE",
"107 580 LINE",
"188 514 LINE",
"84 445 OFFCURVE",
"45 382 OFFCURVE",
"45 300 CURVE SMOOTH",
"45 217 OFFCURVE",
"84 154 OFFCURVE",
"187 86 CURVE",
"107 20 LINE",
"158 -41 LINE"
);
}
);
vertWidth = 0;
width = 354;
}
);
note = "";
},
{
glyphname = uni10C9A.ltr;
layers = (
{
layerId = "1726D991-AB6C-46C4-B949-411F6BDA7822";
paths = (
{
closed = 1;
nodes = (
"511 0 LINE",
"511 849 LINE",
"421 849 LINE",
"174 714 OFFCURVE",
"76 589 OFFCURVE",
"76 424 CURVE SMOOTH",
"76 255 OFFCURVE",
"173 134 OFFCURVE",
"421 0 CURVE"
);
},
{
closed = 1;
nodes = (
"242 199 OFFCURVE",
"170 292 OFFCURVE",
"170 424 CURVE SMOOTH",
"170 555 OFFCURVE",
"238 644 OFFCURVE",
"421 753 CURVE",
"421 98 LINE"
);
}
);
vertWidth = 0;
width = 633;
}
);
rightKerningGroup = uni10C99;
note = "";
},
{
glyphname = uni10CA6.ltr;
layers = (
{
layerId = "1726D991-AB6C-46C4-B949-411F6BDA7822";
paths = (
{
closed = 1;
nodes = (
"211 0 LINE",
"211 351 LINE",
"557 826 LINE",
"485 875 LINE",
"211 491 LINE",
"211 849 LINE",
"121 849 LINE",
"121 0 LINE"
);
}
);
vertWidth = 0;
width = 567;
}
);
note = "";
},
{
glyphname = uni10CE4_10CE0;
layers = (
{
layerId = "1726D991-AB6C-46C4-B949-411F6BDA7822";
paths = (
{
closed = 1;
nodes = (
"265 0 LINE",
"412 371 LINE SMOOTH",
"435 429 OFFCURVE",
"446 461 OFFCURVE",
"454 496 CURVE",
"458 496 LINE",
"466 463 OFFCURVE",
"479 420 OFFCURVE",
"498 371 CURVE SMOOTH",
"645 0 LINE",
"734 0 LINE",
"491 600 LINE",
"420 600 LINE",
"172 510 LINE",
"194 448 LINE",
"388 520 LINE",
"345 414 LINE",
"105 327 LINE",
"127 265 LINE",
"313 334 LINE",
"270 228 LINE",
"38 144 LINE",
"60 82 LINE",
"238 148 LINE",
"178 0 LINE"
);
}
);
vertWidth = 0;
width = 756;
}
);
rightKerningGroup = uni10CE4;
note = "";
},
{
glyphname = uni10CE2_10CEA;
layers = (
{
layerId = "1726D991-AB6C-46C4-B949-411F6BDA7822";
paths = (
{
closed = 1;
nodes = (
"164 0 LINE",
"323 114 LINE",
"480 0 LINE",
"559 0 LINE",
"559 195 LINE",
"765 328 LINE",
"765 0 LINE",
"852 0 LINE",
"852 600 LINE",
"765 600 LINE",
"765 417 LINE",
"559 284 LINE",
"559 600 LINE",
"480 600 LINE",
"323 486 LINE",
"164 600 LINE",
"87 600 LINE",
"87 0 LINE"
);
},
{
closed = 1;
nodes = (
"172 499 LINE",
"323 394 LINE",
"474 499 LINE",
"474 100 LINE",
"323 206 LINE",
"172 100 LINE"
);
}
);
vertWidth = 0;
width = 947;
}
);
note = "";
},
{
glyphname = uni10CCD_10CC9;
layers = (
{
layerId = "1726D991-AB6C-46C4-B949-411F6BDA7822";
paths = (
{
closed = 1;
nodes = (
"266 -17 LINE",
"210 54 LINE",
"266 98 OFFCURVE",
"307 155 OFFCURVE",
"334 226 CURVE SMOOTH",
"357 287 OFFCURVE",
"364 345 OFFCURVE",
"362 401 CURVE",
"370 381 OFFCURVE",
"378 363 OFFCURVE",
"384 350 CURVE SMOOTH",
"436 241 LINE",
"321 0 LINE",
"408 0 LINE",
"479 149 LINE",
"550 0 LINE",
"643 0 LINE",
"393 505 LINE",
"480 547 LINE",
"449 613 LINE",
"361 571 LINE",
"346 600 LINE",
"259 600 LINE",
"267 578 OFFCURVE",
"274 555 OFFCURVE",
"278 531 CURVE",
"165 477 LINE",
"202 414 LINE",
"288 455 LINE",
"292 386 OFFCURVE",
"283 317 OFFCURVE",
"260 255 CURVE SMOOTH",
"238 196 OFFCURVE",
"206 150 OFFCURVE",
"162 113 CURVE",
"105 185 LINE",
"47 140 LINE",
"100 73 LINE",
"78 61 OFFCURVE",
"52 51 OFFCURVE",
"25 42 CURVE",
"55 -24 LINE",
"89 -14 OFFCURVE",
"119 -1 OFFCURVE",
"147 13 CURVE",
"212 -68 LINE"
);
}
);
vertWidth = 0;
width = 647;
}
);
leftKerningGroup = ge;
rightKerningGroup = uni10CE4;
note = "";
},
{
glyphname = uni10CEC.ltr;
layers = (
{
layerId = "1726D991-AB6C-46C4-B949-411F6BDA7822";
paths = (
{
closed = 1;
nodes = (
"177 71 LINE",
"202 47 OFFCURVE",
"230 23 OFFCURVE",
"261 0 CURVE",
"330 0 LINE",
"361 23 OFFCURVE",
"389 47 OFFCURVE",
"413 71 CURVE",
"492 -15 LINE",
"551 38 LINE",
"462 129 LINE",
"498 179 OFFCURVE",
"518 234 OFFCURVE",
"518 300 CURVE SMOOTH",
"518 365 OFFCURVE",
"498 421 OFFCURVE",
"462 471 CURVE",
"551 560 LINE",
"492 613 LINE",
"413 528 LINE",
"389 553 OFFCURVE",
"361 577 OFFCURVE",
"330 600 CURVE",
"261 600 LINE",
"230 576 OFFCURVE",
"202 552 OFFCURVE",
"177 528 CURVE",
"97 613 LINE",
"38 560 LINE",
"128 471 LINE",
"93 420 OFFCURVE",
"72 365 OFFCURVE",
"72 300 CURVE SMOOTH",
"72 235 OFFCURVE",
"93 179 OFFCURVE",
"128 129 CURVE",
"38 38 LINE",
"97 -15 LINE"
);
},
{
closed = 1;
nodes = (
"198 145 OFFCURVE",
"155 206 OFFCURVE",
"155 300 CURVE SMOOTH",
"155 393 OFFCURVE",
"199 454 OFFCURVE",
"294 536 CURVE",
"296 536 LINE",
"393 454 OFFCURVE",
"435 393 OFFCURVE",
"435 300 CURVE SMOOTH",
"435 205 OFFCURVE",
"392 145 OFFCURVE",
"296 64 CURVE",
"294 64 LINE"
);
}
);
vertWidth = 0;
width = 589;
}
);
note = "";
},
{
glyphname = uni10C94;
layers = (
{
layerId = "1726D991-AB6C-46C4-B949-411F6BDA7822";
paths = (
{
closed = 1;
nodes = (
"347 0 LINE",
"596 223 LINE",
"537 287 LINE",
"355 123 LINE",
"355 849 LINE",
"273 849 LINE",
"24 626 LINE",
"83 562 LINE",
"265 725 LINE",
"265 0 LINE"
);
}
);
vertWidth = 0;
width = 613;
}
);
note = "";
unicode = 10C94;
},
{
glyphname = uni10CD6_10CDB.ltr;
layers = (
{
layerId = "1726D991-AB6C-46C4-B949-411F6BDA7822";
paths = (
{
closed = 1;
nodes = (
"798 146 LINE",
"740 204 LINE",
"611 81 LINE",
"529 152 OFFCURVE",
"499 214 OFFCURVE",
"499 295 CURVE SMOOTH",
"499 377 OFFCURVE",
"528 435 OFFCURVE",
"618 514 CURVE",
"740 397 LINE",
"798 455 LINE",
"619 624 LINE",
"518 544 OFFCURVE",
"460 478 OFFCURVE",
"432 408 CURVE",
"332 600 LINE",
"279 600 LINE",
"4 0 LINE",
"95 0 LINE",
"148 120 LINE",
"196 0 LINE",
"284 0 LINE",
"191 214 LINE",
"233 308 LINE",
"362 0 LINE",
"450 0 LINE",
"274 401 LINE",
"289 438 OFFCURVE",
"300 470 OFFCURVE",
"307 496 CURVE",
"311 496 LINE",
"324 464 OFFCURVE",
"341 428 OFFCURVE",
"368 373 CURVE SMOOTH",
"412 284 LINE",
"416 163 OFFCURVE",
"485 77 OFFCURVE",
"619 -22 CURVE"
);
}
);
vertWidth = 0;
width = 830;
}
);
rightKerningGroup = uni10CE4;
note = "";
},
{
glyphname = uni10CEA_10CD8;
layers = (
{
layerId = "1726D991-AB6C-46C4-B949-411F6BDA7822";
paths = (
{
closed = 1;
nodes = (
"382 0 LINE",
"541 114 LINE",
"698 0 LINE",
"777 0 LINE",
"777 600 LINE",
"698 600 LINE",
"541 486 LINE",
"382 600 LINE",
"303 600 LINE",
"48 479 LINE",
"48 380 LINE",
"190 303 LINE",
"48 231 LINE",
"48 132 LINE",
"303 0 LINE"
);
},
{
closed = 1;
nodes = (
"121 185 LINE",
"305 283 LINE",
"305 93 LINE"
);
},
{
closed = 1;
nodes = (
"121 426 LINE",
"305 514 LINE",
"305 321 LINE"
);
},
{
closed = 1;
nodes = (
"390 499 LINE",
"541 394 LINE",
"692 499 LINE",
"692 100 LINE",
"541 206 LINE",
"390 100 LINE"
);
}
);
vertWidth = 0;
width = 872;
}
);
note = "";
},
{
glyphname = uni10CEE_10CD8.ltr;
layers = (
{
layerId = "1726D991-AB6C-46C4-B949-411F6BDA7822";
paths = (
{
closed = 1;
nodes = (
"180 0 LINE",
"180 499 LINE",
"331 394 LINE",
"482 499 LINE",
"482 0 LINE",
"569 0 LINE",
"824 132 LINE",
"824 231 LINE",
"682 303 LINE",
"824 380 LINE",
"824 479 LINE",
"569 600 LINE",
"490 600 LINE",
"331 486 LINE",
"174 600 LINE",
"95 600 LINE",
"95 0 LINE"
);
},
{
closed = 1;
nodes = (
"567 283 LINE",
"751 185 LINE",
"567 93 LINE"
);
},
{
closed = 1;
nodes = (
"567 514 LINE",
"751 426 LINE",
"567 321 LINE"
);
}
);
vertWidth = 0;
width = 872;
}
);
note = "";
},
{
glyphname = uni10CDA.ltr;
layers = (
{
layerId = "1726D991-AB6C-46C4-B949-411F6BDA7822";
paths = (
{
closed = 1;
nodes = (
"395 0 LINE",
"395 600 LINE",
"310 600 LINE",
"129 503 OFFCURVE",
"55 418 OFFCURVE",
"55 300 CURVE SMOOTH",
"55 177 OFFCURVE",
"126 95 OFFCURVE",
"310 0 CURVE"
);
},
{
closed = 1;
nodes = (
"187 154 OFFCURVE",
"142 213 OFFCURVE",
"142 300 CURVE SMOOTH",
"142 380 OFFCURVE",
"177 435 OFFCURVE",
"310 512 CURVE",
"310 87 LINE"
);
}
);
vertWidth = 0;
width = 490;
}
);
rightKerningGroup = uni10CD9;
note = "";
},
{
glyphname = uni10CFB;
layers = (
{
layerId = "1726D991-AB6C-46C4-B949-411F6BDA7822";
paths = (
{
closed = 1;
nodes = (
"319 0 LINE",
"561 600 LINE",
"474 600 LINE",
"327 229 LINE SMOOTH",
"304 171 OFFCURVE",
"293 139 OFFCURVE",
"285 104 CURVE",
"281 104 LINE",
"273 137 OFFCURVE",
"260 180 OFFCURVE",
"241 229 CURVE SMOOTH",
"94 600 LINE",
"5 600 LINE",
"248 0 LINE"
);
}
);
vertWidth = 0;
width = 566;
}
);
note = "";
unicode = 10CFB;
},
{
glyphname = uni10CD1_10CE6;
layers = (
{
layerId = "1726D991-AB6C-46C4-B949-411F6BDA7822";
paths = (
{
closed = 1;
nodes = (
"429 0 LINE",
"429 581 LINE",
"527 621 LINE",
"504 685 LINE",
"229 573 LINE",
"254 510 LINE",
"342 546 LINE",
"342 334 LINE",
"70 624 LINE",
"5 567 LINE",
"342 204 LINE",
"342 0 LINE"
);
}
);
vertWidth = 0;
width = 541;
}
);
leftKerningGroup = uni10CE6;
note = "";
},
{
glyphname = uni10CEA.ltr;
layers = (
{
layerId = "1726D991-AB6C-46C4-B949-411F6BDA7822";
paths = (
{
closed = 1;
nodes = (
"174 0 LINE",
"331 114 LINE",
"490 0 LINE",
"567 0 LINE",
"567 600 LINE",
"490 600 LINE",
"331 486 LINE",
"174 600 LINE",
"95 600 LINE",
"95 0 LINE"
);
},
{
closed = 1;
nodes = (
"180 499 LINE",
"331 394 LINE",
"482 499 LINE",
"482 100 LINE",
"331 206 LINE",
"180 100 LINE"
);
}
);
vertWidth = 0;
width = 662;
}
);
note = "";
},
{
glyphname = uni10CAF.ltr;
layers = (
{
layerId = "1726D991-AB6C-46C4-B949-411F6BDA7822";
paths = (
{
closed = 1;
nodes = (
"205 0 LINE",
"205 258 LINE",
"612 0 LINE",
"699 0 LINE",
"699 849 LINE",
"609 849 LINE",
"609 592 LINE",
"202 849 LINE",
"115 849 LINE",
"115 0 LINE"
);
},
{
closed = 1;
nodes = (
"205 348 LINE",
"205 508 LINE",
"609 253 LINE",
"609 93 LINE"
);
},
{
closed = 1;
nodes = (
"205 597 LINE",
"205 758 LINE",
"609 503 LINE",
"609 342 LINE"
);
}
);
vertWidth = 0;
width = 820;
}
);
note = "";
},
{
glyphname = uni10CE5_10CE6;
layers = (
{
layerId = "1726D991-AB6C-46C4-B949-411F6BDA7822";
paths = (
{
closed = 1;
nodes = (
"462 0 LINE",
"462 600 LINE",
"375 600 LINE",
"375 371 LINE",
"173 624 LINE",
"108 567 LINE",
"230 418 LINE",
"42 432 LINE",
"34 359 LINE",
"292 342 LINE",
"375 241 LINE",
"375 0 LINE"
);
}
);
vertWidth = 0;
width = 557;
}
);
note = "";
},
{
glyphname = uni10CB2.ltr;
layers = (
{
layerId = "1726D991-AB6C-46C4-B949-411F6BDA7822";
paths = (
{
closed = 1;
nodes = (
"434 0 LINE",
"589 123 OFFCURVE",
"691 248 OFFCURVE",
"691 424 CURVE SMOOTH",
"691 601 OFFCURVE",
"589 727 OFFCURVE",
"434 849 CURVE",
"335 849 LINE",
"180 727 OFFCURVE",
"78 601 OFFCURVE",
"78 424 CURVE SMOOTH",
"78 248 OFFCURVE",
"180 123 OFFCURVE",
"335 0 CURVE"
);
},
{
closed = 1;
nodes = (
"228 207 OFFCURVE",
"174 295 OFFCURVE",
"174 424 CURVE SMOOTH",
"174 554 OFFCURVE",
"228 642 OFFCURVE",
"342 749 CURVE",
"342 100 LINE"
);
},
{
closed = 1;
nodes = (
"427 749 LINE",
"542 642 OFFCURVE",
"596 554 OFFCURVE",
"596 424 CURVE SMOOTH",
"596 295 OFFCURVE",
"542 207 OFFCURVE",
"427 100 CURVE"
);
}
);
vertWidth = 0;
width = 769;
}
);
rightKerningGroup = uni10C99;
note = "";
},
{
glyphname = uni10CD9_10CC4.ltr;
layers = (
{
layerId = "1726D991-AB6C-46C4-B949-411F6BDA7822";
paths = (
{
closed = 1;
nodes = (
"394 47 LINE",
"207 131 OFFCURVE",
"154 193 OFFCURVE",
"154 300 CURVE SMOOTH",
"154 386 OFFCURVE",
"190 440 OFFCURVE",
"305 508 CURVE",
"259 348 LINE",
"334 336 LINE",
"396 566 LINE",
"366 614 LINE",
"137 673 LINE",
"113 601 LINE",
"262 569 LINE",
"122 493 OFFCURVE",
"65 416 OFFCURVE",
"65 300 CURVE SMOOTH",
"65 160 OFFCURVE",
"146 76 OFFCURVE",
"357 -20 CURVE"
);
}
);
vertWidth = 0;
width = 446;
}
);
note = "";
},
{
glyphname = uni10CD3_10CEE;
layers = (
{
layerId = "1726D991-AB6C-46C4-B949-411F6BDA7822";
paths = (
{
closed = 1;
nodes = (
"180 0 LINE",
"180 345 LINE",
"298 226 LINE",
"365 226 LINE",
"482 344 LINE",
"482 0 LINE",
"567 0 LINE",
"567 430 LINE",
"372 624 LINE",
"291 624 LINE",
"95 430 LINE",
"95 0 LINE"
);
},
{
closed = 1;
nodes = (
"200 423 LINE",
"331 554 LINE",
"462 423 LINE",
"331 291 LINE"
);
}
);
vertWidth = 0;
width = 662;
}
);
note = "";
},
{
glyphname = uni10CD1_10CE2_10CE6;
layers = (
{
layerId = "1726D991-AB6C-46C4-B949-411F6BDA7822";
paths = (
{
closed = 1;
nodes = (
"322 0 LINE",
"322 175 LINE",
"585 345 LINE",
"585 0 LINE",
"672 0 LINE",
"672 581 LINE",
"770 621 LINE",
"747 685 LINE",
"472 573 LINE",
"497 510 LINE",
"585 546 LINE",
"585 434 LINE",
"322 264 LINE",
"322 600 LINE",
"235 600 LINE",
"235 434 LINE",
"83 624 LINE",
"18 567 LINE",
"235 302 LINE",
"235 0 LINE"
);
}
);
vertWidth = 0;
width = 784;
}
);
leftKerningGroup = uni10CE6;
note = "";
},
{
glyphname = uni10CE2_10CEA.ltr;
layers = (
{
layerId = "1726D991-AB6C-46C4-B949-411F6BDA7822";
paths = (
{
closed = 1;
nodes = (
"182 0 LINE",
"182 328 LINE",
"388 195 LINE",
"388 0 LINE",
"467 0 LINE",
"624 114 LINE",
"783 0 LINE",
"860 0 LINE",
"860 600 LINE",
"783 600 LINE",
"624 486 LINE",
"467 600 LINE",
"388 600 LINE",
"388 284 LINE",
"182 417 LINE",
"182 600 LINE",
"95 600 LINE",
"95 0 LINE"
);
},
{
closed = 1;
nodes = (
"473 499 LINE",
"624 394 LINE",
"775 499 LINE",
"775 100 LINE",
"624 206 LINE",
"473 100 LINE"
);
}
);
vertWidth = 0;
width = 947;
}
);
note = "";
},
{
glyphname = uni10CFF;
layers = (
{
layerId = "1726D991-AB6C-46C4-B949-411F6BDA7822";
paths = (
{
closed = 1;
nodes = (
"104 0 LINE",
"270 270 LINE",
"274 270 LINE",
"274 0 LINE",
"359 0 LINE",
"359 270 LINE",
"363 270 LINE",
"522 0 LINE",
"623 0 LINE",
"453 270 LINE",
"617 270 LINE",
"617 355 LINE",
"453 355 LINE",
"608 600 LINE",
"514 600 LINE",
"363 355 LINE",
"359 355 LINE",
"359 600 LINE",
"274 600 LINE",
"274 355 LINE",
"270 355 LINE",
"121 600 LINE",
"22 600 LINE",
"179 355 LINE",
"17 355 LINE",
"17 270 LINE",
"181 270 LINE",
"10 0 LINE"
);
}
);
vertWidth = 0;
width = 633;
}
);
note = "";
unicode = 10CFF;
},
{
glyphname = uni10CCF_10CDB.ltr;
layers = (
{
layerId = "1726D991-AB6C-46C4-B949-411F6BDA7822";
paths = (
{
closed = 1;
nodes = (
"582 99 LINE",
"534 159 LINE",
"430 73 LINE",
"331 164 LINE",
"494 311 LINE",
"331 445 LINE",
"426 526 LINE",
"534 437 LINE",
"582 497 LINE",
"427 621 LINE",
"276 491 LINE",
"148 600 LINE",
"40 600 LINE",
"220 445 LINE",
"58 311 LINE",
"221 164 LINE",
"42 0 LINE",
"149 0 LINE",
"276 115 LINE",
"427 -25 LINE"
);
},
{
closed = 1;
nodes = (
"171 310 LINE",
"276 397 LINE",
"379 310 LINE",
"276 215 LINE"
);
}
);
vertWidth = 0;
width = 621;
}
);
note = "";
},
{
glyphname = uni10C92;
layers = (
{
layerId = "1726D991-AB6C-46C4-B949-411F6BDA7822";
paths = (
{
closed = 1;
nodes = (
"413 0 LINE",
"413 849 LINE",
"337 849 LINE",
"31 548 LINE",
"86 488 LINE",
"324 723 LINE",
"324 0 LINE"
);
}
);
vertWidth = 0;
width = 547;
}
);
note = "";
unicode = 10C92;
},
{
glyphname = uni10CC0_10CE2.ltr;
layers = (
{
layerId = "1726D991-AB6C-46C4-B949-411F6BDA7822";
paths = (
{
closed = 1;
nodes = (
"347 0 LINE",
"347 345 LINE",
"610 175 LINE",
"610 0 LINE",
"697 0 LINE",
"697 600 LINE",
"610 600 LINE",
"610 264 LINE",
"347 434 LINE",
"347 600 LINE",
"228 600 LINE",
"30 409 LINE",
"30 320 LINE",
"260 232 LINE",
"260 0 LINE"
);
},
{
closed = 1;
nodes = (
"106 373 LINE",
"260 523 LINE",
"260 316 LINE"
);
}
);
vertWidth = 0;
width = 792;
}
);
note = "";
},
{
glyphname = uni10CF0.ltr;
layers = (
{
layerId = "1726D991-AB6C-46C4-B949-411F6BDA7822";
paths = (
{
closed = 1;
nodes = (
"355 0 LINE",
"355 261 LINE",
"610 570 LINE",
"541 617 LINE",
"355 386 LINE",
"355 600 LINE",
"268 600 LINE",
"268 386 LINE",
"80 617 LINE",
"12 570 LINE",
"268 261 LINE",
"268 0 LINE"
);
}
);
vertWidth = 0;
width = 622;
}
);
leftKerningGroup = uni10CE6;
note = "";
},
{
glyphname = uni10C9D.ltr;
layers = (
{
layerId = "1726D991-AB6C-46C4-B949-411F6BDA7822";
paths = (
{
closed = 1;
nodes = (
"411 292 LINE",
"189 550 LINE",
"406 787 LINE",
"342 853 LINE",
"71 555 LINE",
"292 296 LINE",
"83 56 LINE",
"146 -10 LINE"
);
}
);
vertWidth = 0;
width = 482;
}
);
note = "";
},
{
glyphname = uni10C96;
layers = (
{
layerId = "1726D991-AB6C-46C4-B949-411F6BDA7822";
paths = (
{
closed = 1;
nodes = (
"118 0 LINE",
"332 548 LINE SMOOTH",
"360 620 OFFCURVE",
"384 684 OFFCURVE",
"400 737 CURVE",
"404 737 LINE",
"419 685 OFFCURVE",
"439 630 OFFCURVE",
"463 565 CURVE",
"242 0 LINE",
"332 0 LINE",
"509 449 LINE",
"569 295 LINE",
"453 0 LINE",
"541 0 LINE",
"613 184 LINE",
"685 0 LINE",
"784 0 LINE",
"446 849 LINE",
"360 849 LINE",
"18 0 LINE"
);
}
);
vertWidth = 0;
width = 801;
}
);
note = "";
unicode = 10C96;
},
{
glyphname = uni10CB2;
layers = (
{
layerId = "1726D991-AB6C-46C4-B949-411F6BDA7822";
paths = (
{
closed = 1;
nodes = (
"434 0 LINE",
"589 123 OFFCURVE",
"691 248 OFFCURVE",
"691 424 CURVE SMOOTH",
"691 601 OFFCURVE",
"589 727 OFFCURVE",
"434 849 CURVE",
"335 849 LINE",
"180 727 OFFCURVE",
"78 601 OFFCURVE",
"78 424 CURVE SMOOTH",
"78 248 OFFCURVE",
"180 123 OFFCURVE",
"335 0 CURVE"
);
},
{
closed = 1;
nodes = (
"227 207 OFFCURVE",
"173 295 OFFCURVE",
"173 424 CURVE SMOOTH",
"173 554 OFFCURVE",
"227 642 OFFCURVE",
"342 749 CURVE",
"342 100 LINE"
);
},
{
closed = 1;
nodes = (
"427 749 LINE",
"541 642 OFFCURVE",
"595 554 OFFCURVE",
"595 424 CURVE SMOOTH",
"595 295 OFFCURVE",
"541 207 OFFCURVE",
"427 100 CURVE"
);
}
);
vertWidth = 0;
width = 769;
}
);
rightKerningGroup = uni10C99;
note = "";
unicode = 10CB2;
},
{
glyphname = uni10CC0_10CC7;
layers = (
{
layerId = "1726D991-AB6C-46C4-B949-411F6BDA7822";
paths = (
{
closed = 1;
nodes = (
"359 0 LINE",
"359 187 LINE",
"507 271 LINE",
"467 339 LINE",
"359 277 LINE",
"359 600 LINE",
"240 600 LINE",
"42 409 LINE",
"42 320 LINE",
"272 232 LINE",
"272 228 LINE",
"125 144 LINE",
"164 76 LINE",
"272 137 LINE",
"272 0 LINE"
);
},
{
closed = 1;
nodes = (
"118 373 LINE",
"272 523 LINE",
"272 316 LINE"
);
}
);
vertWidth = 0;
width = 537;
}
);
note = "";
},
{
glyphname = uni10CD0_10CD2.ltr;
layers = (
{
layerId = "1726D991-AB6C-46C4-B949-411F6BDA7822";
paths = (
{
closed = 1;
nodes = (
"269 0 LINE",
"269 207 LINE",
"385 142 LINE",
"420 204 LINE",
"269 287 LINE",
"269 485 LINE",
"429 331 LINE",
"483 383 LINE",
"259 600 LINE",
"182 600 LINE",
"182 335 LINE",
"60 402 LINE",
"31 339 LINE",
"182 255 LINE",
"182 0 LINE"
);
}
);
vertWidth = 0;
width = 494;
}
);
note = "";
},
{
glyphname = uni10CD9_10CCE.ltr;
layers = (
{
layerId = "1726D991-AB6C-46C4-B949-411F6BDA7822";
paths = (
{
closed = 1;
nodes = (
"500 47 LINE",
"370 105 OFFCURVE",
"305 153 OFFCURVE",
"277 213 CURVE",
"405 178 LINE",
"425 247 LINE",
"260 290 LINE",
"260 300 LINE SMOOTH",
"260 322 OFFCURVE",
"262 341 OFFCURVE",
"268 360 CURVE",
"415 320 LINE",
"435 389 LINE",
"304 424 LINE",
"340 465 OFFCURVE",
"403 503 OFFCURVE",
"504 551 CURVE",
"459 618 LINE",
"337 561 OFFCURVE",
"259 509 OFFCURVE",
"215 447 CURVE",
"59 488 LINE",
"45 420 LINE",
"183 383 LINE",
"176 361 OFFCURVE",
"172 338 OFFCURVE",
"171 314 CURVE",
"49 346 LINE",
"35 278 LINE",
"177 240 LINE",
"199 134 OFFCURVE",
"284 61 OFFCURVE",
"463 -20 CURVE"
);
}
);
vertWidth = 0;
width = 554;
}
);
note = "";
},
{
glyphname = uni10CAC.ltr;
layers = (
{
layerId = "1726D991-AB6C-46C4-B949-411F6BDA7822";
paths = (
{
closed = 1;
nodes = (
"218 109 LINE",
"253 72 OFFCURVE",
"293 36 OFFCURVE",
"338 0 CURVE",
"431 0 LINE",
"476 36 OFFCURVE",
"517 72 OFFCURVE",
"551 109 CURVE",
"663 -16 LINE",
"728 44 LINE",
"604 174 LINE",
"655 247 OFFCURVE",
"684 328 OFFCURVE",
"684 424 CURVE SMOOTH",
"684 521 OFFCURVE",
"655 602 OFFCURVE",
"604 676 CURVE",
"728 804 LINE",
"663 865 LINE",
"551 740 LINE",
"517 778 OFFCURVE",
"477 814 OFFCURVE",
"432 849 CURVE",
"338 849 LINE",
"293 813 OFFCURVE",
"252 777 OFFCURVE",
"218 740 CURVE",
"106 865 LINE",
"42 804 LINE",
"166 675 LINE",
"115 602 OFFCURVE",
"86 520 OFFCURVE",
"86 424 CURVE SMOOTH",
"86 328 OFFCURVE",
"115 248 OFFCURVE",
"166 174 CURVE",
"41 44 LINE",
"106 -16 LINE"
);
},
{
closed = 1;
nodes = (
"245 192 OFFCURVE",
"179 283 OFFCURVE",
"179 424 CURVE SMOOTH",
"179 565 OFFCURVE",
"245 658 OFFCURVE",
"383 778 CURVE",
"387 778 LINE",
"524 658 OFFCURVE",
"591 565 OFFCURVE",
"591 424 CURVE SMOOTH",
"591 283 OFFCURVE",
"524 192 OFFCURVE",
"387 72 CURVE",
"383 72 LINE"
);
}
);
vertWidth = 0;
width = 769;
}
);
note = "";
},
{
glyphname = uni10CD9_10CCE;
layers = (
{
layerId = "1726D991-AB6C-46C4-B949-411F6BDA7822";
paths = (
{
closed = 1;
nodes = (
"270 61 OFFCURVE",
"355 134 OFFCURVE",
"377 240 CURVE",
"519 278 LINE",
"505 346 LINE",
"383 314 LINE",
"382 338 OFFCURVE",
"378 361 OFFCURVE",
"371 383 CURVE",
"509 420 LINE",
"495 488 LINE",
"339 447 LINE",
"295 509 OFFCURVE",
"217 561 OFFCURVE",
"95 618 CURVE",
"50 551 LINE",
"151 503 OFFCURVE",
"214 465 OFFCURVE",
"250 424 CURVE",
"119 389 LINE",
"139 320 LINE",
"286 360 LINE",
"292 341 OFFCURVE",
"294 322 OFFCURVE",
"294 300 CURVE SMOOTH",
"294 290 LINE",
"129 247 LINE",
"149 178 LINE",
"277 213 LINE",
"249 153 OFFCURVE",
"184 105 OFFCURVE",
"54 47 CURVE",
"91 -20 LINE"
);
}
);
vertWidth = 0;
width = 554;
}
);
note = "";
},
{
glyphname = uni10CE2_10CC0;
layers = (
{
layerId = "1726D991-AB6C-46C4-B949-411F6BDA7822";
paths = (
{
closed = 1;
nodes = (
"349 0 LINE",
"349 175 LINE",
"612 345 LINE",
"612 0 LINE",
"699 0 LINE",
"699 600 LINE",
"612 600 LINE",
"612 434 LINE",
"349 264 LINE",
"349 600 LINE",
"230 600 LINE",
"32 409 LINE",
"32 320 LINE",
"262 232 LINE",
"262 0 LINE"
);
},
{
closed = 1;
nodes = (
"108 373 LINE",
"262 523 LINE",
"262 316 LINE"
);
}
);
vertWidth = 0;
width = 794;
}
);
leftKerningGroup = uni10CC0;
note = "";
},
{
glyphname = uni10CE4_10CE6;
layers = (
{
layerId = "1726D991-AB6C-46C4-B949-411F6BDA7822";
paths = (
{
closed = 1;
nodes = (
"156 0 LINE",
"303 371 LINE SMOOTH",
"326 429 OFFCURVE",
"337 461 OFFCURVE",
"345 496 CURVE",
"349 496 LINE",
"357 463 OFFCURVE",
"370 420 OFFCURVE",
"389 371 CURVE SMOOTH",
"536 0 LINE",
"625 0 LINE",
"382 600 LINE",
"311 600 LINE",
"232 404 LINE",
"87 618 LINE",
"24 579 LINE",
"199 323 LINE",
"69 0 LINE"
);
}
);
vertWidth = 0;
width = 647;
}
);
rightKerningGroup = uni10CE4;
note = "";
},
{
glyphname = uni10CE8_10CC0;
layers = (
{
layerId = "1726D991-AB6C-46C4-B949-411F6BDA7822";
paths = (
{
closed = 1;
nodes = (
"214 0 LINE",
"377 253 LINE",
"425 177 LINE",
"313 0 LINE",
"400 0 LINE",
"468 109 LINE",
"537 0 LINE",
"638 0 LINE",
"431 313 LINE",
"623 600 LINE",
"529 600 LINE",
"380 371 LINE",
"335 440 LINE",
"437 600 LINE",
"349 600 LINE",
"292 507 LINE",
"231 600 LINE",
"109 600 LINE",
"30 302 LINE",
"98 246 LINE",
"301 349 LINE",
"327 311 LINE",
"120 0 LINE"
);
},
{
closed = 1;
nodes = (
"174 538 LINE",
"261 409 LINE",
"121 342 LINE"
);
}
);
vertWidth = 0;
width = 648;
}
);
note = "";
},
{
glyphname = uni10C91.ltr;
layers = (
{
layerId = "1726D991-AB6C-46C4-B949-411F6BDA7822";
paths = (
{
closed = 1;
nodes = (
"349 0 LINE",
"349 759 LINE",
"531 661 LINE",
"570 733 LINE",
"97 989 LINE",
"58 915 LINE",
"253 810 LINE",
"253 0 LINE"
);
}
);
vertWidth = 0;
width = 627;
}
);
note = "";
},
{
glyphname = uni10CC0_10CE2;
layers = (
{
layerId = "1726D991-AB6C-46C4-B949-411F6BDA7822";
paths = (
{
closed = 1;
nodes = (
"182 0 LINE",
"182 175 LINE",
"445 345 LINE",
"445 0 LINE",
"532 0 LINE",
"532 232 LINE",
"762 320 LINE",
"762 409 LINE",
"564 600 LINE",
"445 600 LINE",
"445 434 LINE",
"182 264 LINE",
"182 600 LINE",
"95 600 LINE",
"95 0 LINE"
);
},
{
closed = 1;
nodes = (
"532 523 LINE",
"686 373 LINE",
"532 316 LINE"
);
}
);
vertWidth = 0;
width = 792;
}
);
note = "";
},
{
glyphname = uni10CE8;
layers = (
{
layerId = "1726D991-AB6C-46C4-B949-411F6BDA7822";
paths = (
{
closed = 1;
nodes = (
"104 0 LINE",
"267 253 LINE",
"315 177 LINE",
"203 0 LINE",
"290 0 LINE",
"358 109 LINE",
"427 0 LINE",
"528 0 LINE",
"321 313 LINE",
"513 600 LINE",
"419 600 LINE",
"270 371 LINE",
"225 440 LINE",
"327 600 LINE",
"239 600 LINE",
"182 507 LINE",
"121 600 LINE",
"22 600 LINE",
"217 311 LINE",
"10 0 LINE"
);
}
);
vertWidth = 0;
width = 538;
}
);
leftKerningGroup = uni10CC2;
rightKerningGroup = uni10CC2;
note = "";
unicode = 10CE8;
},
{
glyphname = uni10C8E.ltr;
layers = (
{
layerId = "1726D991-AB6C-46C4-B949-411F6BDA7822";
paths = (
{
closed = 1;
nodes = (
"359 0 LINE",
"359 215 LINE",
"528 124 LINE",
"567 196 LINE",
"359 309 LINE",
"359 472 LINE",
"528 381 LINE",
"567 453 LINE",
"359 566 LINE",
"359 849 LINE",
"263 849 LINE",
"263 618 LINE",
"94 709 LINE",
"55 635 LINE",
"263 523 LINE",
"263 361 LINE",
"94 452 LINE",
"55 378 LINE",
"263 266 LINE",
"263 0 LINE"
);
}
);
vertWidth = 0;
width = 624;
}
);
note = "";
},
{
glyphname = uni10CD6;
layers = (
{
layerId = "1726D991-AB6C-46C4-B949-411F6BDA7822";
paths = (
{
closed = 1;
nodes = (
"90 0 LINE",
"255 371 LINE SMOOTH",
"280 428 OFFCURVE",
"294 466 OFFCURVE",
"304 498 CURVE",
"308 498 LINE",
"316 472 OFFCURVE",
"329 437 OFFCURVE",
"344 399 CURVE",
"173 0 LINE",
"257 0 LINE",
"385 305 LINE",
"426 212 LINE",
"339 0 LINE",
"423 0 LINE",
"468 117 LINE",
"519 0 LINE",
"607 0 LINE",
"341 600 LINE",
"270 600 LINE",
"5 0 LINE"
);
}
);
vertWidth = 0;
width = 612;
}
);
leftKerningGroup = uni10CE4;
rightKerningGroup = uni10CE4;
note = "";
unicode = 10CD6;
},
{
glyphname = uni10CD1_10CE2_10CE6.ltr;
layers = (
{
layerId = "1726D991-AB6C-46C4-B949-411F6BDA7822";
paths = (
{
closed = 1;
nodes = (
"199 0 LINE",
"199 345 LINE",
"462 175 LINE",
"462 0 LINE",
"549 0 LINE",
"549 302 LINE",
"766 567 LINE",
"701 624 LINE",
"549 434 LINE",
"549 600 LINE",
"462 600 LINE",
"462 264 LINE",
"199 434 LINE",
"199 546 LINE",
"287 510 LINE",
"312 573 LINE",
"37 685 LINE",
"14 621 LINE",
"112 581 LINE",
"112 0 LINE"
);
}
);
vertWidth = 0;
width = 784;
}
);
leftKerningGroup = uni10CE6;
note = "";
},
{
glyphname = uni10CE4_10CD3.ltr;
layers = (
{
layerId = "1726D991-AB6C-46C4-B949-411F6BDA7822";
paths = (
{
closed = 1;
nodes = (
"93 0 LINE",
"240 371 LINE SMOOTH",
"259 420 OFFCURVE",
"272 463 OFFCURVE",
"280 496 CURVE",
"284 496 LINE",
"292 461 OFFCURVE",
"303 429 OFFCURVE",
"326 371 CURVE SMOOTH",
"345 324 LINE",
"223 133 LINE",
"451 56 LINE",
"473 0 LINE",
"560 0 LINE",
"525 87 LINE",
"641 290 LINE",
"415 360 LINE",
"318 600 LINE",
"247 600 LINE",
"4 0 LINE"
);
},
{
closed = 1;
nodes = (
"316 167 LINE",
"369 262 LINE",
"423 126 LINE"
);
},
{
closed = 1;
nodes = (
"443 290 LINE",
"547 254 LINE",
"496 159 LINE"
);
}
);
vertWidth = 0;
width = 685;
}
);
rightKerningGroup = uni10CE4;
note = "";
},
{
glyphname = uni10CE1;
layers = (
{
layerId = "1726D991-AB6C-46C4-B949-411F6BDA7822";
paths = (
{
closed = 1;
nodes = (
"255 71 LINE",
"279 46 OFFCURVE",
"307 23 OFFCURVE",
"338 0 CURVE",
"407 0 LINE",
"438 23 OFFCURVE",
"466 47 OFFCURVE",
"491 71 CURVE",
"576 -17 LINE",
"635 36 LINE",
"539 127 LINE",
"562 160 OFFCURVE",
"579 194 OFFCURVE",
"588 231 CURVE",
"694 174 LINE",
"732 241 LINE",
"596 311 LINE",
"594 371 OFFCURVE",
"574 421 OFFCURVE",
"540 466 CURVE",
"664 406 LINE",
"699 475 LINE",
"409 600 LINE",
"337 600 LINE",
"47 475 LINE",
"82 406 LINE",
"205 465 LINE",
"172 421 OFFCURVE",
"152 371 OFFCURVE",
"150 311 CURVE",
"14 241 LINE",
"52 174 LINE",
"158 231 LINE",
"167 194 OFFCURVE",
"184 159 OFFCURVE",
"207 127 CURVE",
"111 36 LINE",
"170 -17 LINE"
);
},
{
closed = 1;
nodes = (
"276 145 OFFCURVE",
"233 205 OFFCURVE",
"233 300 CURVE SMOOTH",
"233 396 OFFCURVE",
"275 462 OFFCURVE",
"372 536 CURVE",
"374 536 LINE",
"469 462 OFFCURVE",
"513 396 OFFCURVE",
"513 300 CURVE SMOOTH",
"513 206 OFFCURVE",
"470 145 OFFCURVE",
"374 64 CURVE",
"372 64 LINE"
);
}
);
vertWidth = 0;
width = 746;
}
);
note = "";
unicode = 10CE1;
},
{
glyphname = uni10CE7;
layers = (
{
layerId = "1726D991-AB6C-46C4-B949-411F6BDA7822";
paths = (
{
closed = 1;
nodes = (
"373 0 LINE",
"373 351 LINE",
"518 508 LINE",
"595 430 LINE",
"647 482 LINE",
"515 611 LINE",
"373 456 LINE",
"373 600 LINE",
"288 600 LINE",
"288 455 LINE",
"147 611 LINE",
"14 482 LINE",
"67 430 LINE",
"143 508 LINE",
"288 350 LINE",
"288 0 LINE"
);
}
);
vertWidth = 0;
width = 661;
}
);
note = "";
unicode = 10CE7;
},
{
glyphname = uni10CDD;
layers = (
{
layerId = "1726D991-AB6C-46C4-B949-411F6BDA7822";
paths = (
{
closed = 1;
nodes = (
"320 41 LINE",
"140 211 LINE",
"337 394 LINE",
"104 618 LINE",
"47 559 LINE",
"231 390 LINE",
"33 207 LINE",
"263 -18 LINE"
);
}
);
vertWidth = 0;
width = 370;
}
);
note = "";
unicode = 10CDD;
},
{
glyphname = uni10CEE_10CC0_10CE2.ltr;
layers = (
{
layerId = "1726D991-AB6C-46C4-B949-411F6BDA7822";
paths = (
{
closed = 1;
nodes = (
"180 0 LINE",
"180 499 LINE",
"331 394 LINE",
"482 499 LINE",
"482 0 LINE",
"567 0 LINE",
"567 192 LINE",
"867 71 LINE",
"867 0 LINE",
"954 0 LINE",
"954 600 LINE",
"867 600 LINE",
"867 154 LINE",
"580 270 LINE",
"817 361 LINE",
"817 449 LINE",
"599 600 LINE",
"490 600 LINE",
"331 486 LINE",
"174 600 LINE",
"95 600 LINE",
"95 0 LINE"
);
},
{
closed = 1;
nodes = (
"567 523 LINE",
"741 413 LINE",
"567 346 LINE"
);
}
);
vertWidth = 0;
width = 1049;
}
);
note = "";
},
{
glyphname = uni10CE4;
layers = (
{
layerId = "1726D991-AB6C-46C4-B949-411F6BDA7822";
paths = (
{
closed = 1;
nodes = (
"92 0 LINE",
"239 371 LINE SMOOTH",
"262 429 OFFCURVE",
"273 461 OFFCURVE",
"281 496 CURVE",
"285 496 LINE",
"293 463 OFFCURVE",
"306 420 OFFCURVE",
"325 371 CURVE SMOOTH",
"472 0 LINE",
"561 0 LINE",
"318 600 LINE",
"247 600 LINE",
"5 0 LINE"
);
}
);
vertWidth = 0;
width = 566;
}
);
leftKerningGroup = uni10CE4;
rightKerningGroup = uni10CE4;
note = "";
unicode = 10CE4;
},
{
glyphname = uni10CFD;
layers = (
{
layerId = "1726D991-AB6C-46C4-B949-411F6BDA7822";
paths = (
{
closed = 1;
nodes = (
"330 0 LINE",
"564 600 LINE",
"474 600 LINE",
"352 265 LINE SMOOTH",
"341 234 OFFCURVE",
"332 206 OFFCURVE",
"324 182 CURVE",
"327 600 LINE",
"240 600 LINE",
"243 183 LINE",
"235 208 OFFCURVE",
"226 236 OFFCURVE",
"215 265 CURVE SMOOTH",
"94 600 LINE",
"2 600 LINE",
"237 0 LINE"
);
}
);
vertWidth = 0;
width = 566;
}
);
note = "";
unicode = 10CFD;
},
{
glyphname = uni10CC2_10CDB.ltr;
layers = (
{
layerId = "1726D991-AB6C-46C4-B949-411F6BDA7822";
paths = (
{
closed = 1;
nodes = (
"614 73 LINE",
"573 141 LINE",
"474 82 LINE",
"321 311 LINE",
"463 517 LINE",
"563 457 LINE",
"604 525 LINE",
"436 621 LINE",
"268 371 LINE",
"119 600 LINE",
"25 600 LINE",
"217 313 LINE",
"10 0 LINE",
"111 0 LINE",
"271 253 LINE",
"446 -23 LINE"
);
}
);
vertWidth = 0;
width = 638;
}
);
rightKerningGroup = uni10CC2;
note = "";
},
{
glyphname = uni10CD1;
layers = (
{
layerId = "1726D991-AB6C-46C4-B949-411F6BDA7822";
paths = (
{
closed = 1;
nodes = (
"273 0 LINE",
"273 558 LINE",
"421 640 LINE",
"392 703 LINE",
"8 492 LINE",
"43 430 LINE",
"186 509 LINE",
"186 0 LINE"
);
}
);
vertWidth = 0;
width = 421;
}
);
note = "";
unicode = 10CD1;
},
{
glyphname = uni10CE4_10CC9.ltr;
layers = (
{
layerId = "1726D991-AB6C-46C4-B949-411F6BDA7822";
paths = (
{
closed = 1;
nodes = (
"480 13 LINE",
"508 -1 OFFCURVE",
"538 -14 OFFCURVE",
"572 -24 CURVE",
"602 42 LINE",
"575 51 OFFCURVE",
"549 61 OFFCURVE",
"527 73 CURVE",
"580 140 LINE",
"522 185 LINE",
"465 113 LINE",
"421 150 OFFCURVE",
"389 196 OFFCURVE",
"367 255 CURVE SMOOTH",
"344 317 OFFCURVE",
"335 386 OFFCURVE",
"339 455 CURVE",
"425 414 LINE",
"462 477 LINE",
"349 531 LINE",
"353 555 OFFCURVE",
"360 578 OFFCURVE",
"368 600 CURVE",
"281 600 LINE",
"267 570 LINE",
"178 613 LINE",
"147 547 LINE",
"237 504 LINE",
"4 0 LINE",
"97 0 LINE",
"243 325 LINE SMOOTH",
"250 340 OFFCURVE",
"257 362 OFFCURVE",
"265 386 CURVE",
"265 335 OFFCURVE",
"272 282 OFFCURVE",
"293 226 CURVE SMOOTH",
"320 155 OFFCURVE",
"361 98 OFFCURVE",
"417 54 CURVE",
"361 -17 LINE",
"415 -68 LINE"
);
}
);
vertWidth = 0;
width = 627;
}
);
rightKerningGroup = uni10CE4;
note = "";
},
{
glyphname = uni10CE8.ltr;
layers = (
{
layerId = "1726D991-AB6C-46C4-B949-411F6BDA7822";
paths = (
{
closed = 1;
nodes = (
"111 0 LINE",
"180 109 LINE",
"248 0 LINE",
"335 0 LINE",
"223 177 LINE",
"271 253 LINE",
"434 0 LINE",
"528 0 LINE",
"321 311 LINE",
"516 600 LINE",
"417 600 LINE",
"356 507 LINE",
"299 600 LINE",
"211 600 LINE",
"313 440 LINE",
"268 371 LINE",
"119 600 LINE",
"25 600 LINE",
"217 313 LINE",
"10 0 LINE"
);
}
);
vertWidth = 0;
width = 538;
}
);
leftKerningGroup = uni10CC2;
rightKerningGroup = uni10CC2;
note = "";
},
{
glyphname = uni10C95;
layers = (
{
layerId = "1726D991-AB6C-46C4-B949-411F6BDA7822";
paths = (
{
closed = 1;
nodes = (
"453 346 LINE",
"667 -30 LINE",
"874 70 LINE",
"841 141 LINE",
"707 72 LINE",
"499 429 LINE",
"701 775 LINE",
"835 707 LINE",
"868 777 LINE",
"661 879 LINE",
"453 513 LINE",
"246 879 LINE",
"38 777 LINE",
"72 707 LINE",
"205 775 LINE",
"408 429 LINE",
"199 72 LINE",
"66 141 LINE",
"32 70 LINE",
"240 -30 LINE"
);
}
);
vertWidth = 0;
width = 907;
}
);
note = "";
unicode = 10C95;
},
{
glyphname = uni10C8F;
layers = (
{
layerId = "1726D991-AB6C-46C4-B949-411F6BDA7822";
paths = (
{
closed = 1;
nodes = (
"186 0 LINE",
"354 159 LINE",
"523 0 LINE",
"645 0 LINE",
"414 213 LINE",
"659 440 LINE",
"414 650 LINE",
"645 849 LINE",
"523 849 LINE",
"354 701 LINE",
"184 849 LINE",
"64 849 LINE",
"295 650 LINE",
"51 440 LINE",
"295 213 LINE",
"64 0 LINE"
);
},
{
closed = 1;
nodes = (
"174 441 LINE",
"354 597 LINE",
"534 441 LINE",
"354 271 LINE"
);
}
);
vertWidth = 0;
width = 710;
}
);
note = "";
unicode = 10C8F;
},
{
glyphname = uni10CE4_10CE0.ltr;
layers = (
{
layerId = "1726D991-AB6C-46C4-B949-411F6BDA7822";
paths = (
{
closed = 1;
nodes = (
"111 0 LINE",
"258 371 LINE SMOOTH",
"277 420 OFFCURVE",
"290 463 OFFCURVE",
"298 496 CURVE",
"302 496 LINE",
"310 461 OFFCURVE",
"321 429 OFFCURVE",
"344 371 CURVE SMOOTH",
"491 0 LINE",
"578 0 LINE",
"518 148 LINE",
"696 82 LINE",
"718 144 LINE",
"486 228 LINE",
"443 334 LINE",
"629 265 LINE",
"651 327 LINE",
"411 414 LINE",
"368 520 LINE",
"562 448 LINE",
"584 510 LINE",
"336 600 LINE",
"265 600 LINE",
"22 0 LINE"
);
}
);
vertWidth = 0;
width = 756;
}
);
rightKerningGroup = uni10CE4;
note = "";
},
{
glyphname = uni10CCD;
layers = (
{
layerId = "1726D991-AB6C-46C4-B949-411F6BDA7822";
paths = (
{
closed = 1;
nodes = (
"92 0 LINE",
"239 371 LINE SMOOTH",
"262 429 OFFCURVE",
"273 461 OFFCURVE",
"281 496 CURVE",
"285 496 LINE",
"293 463 OFFCURVE",
"306 420 OFFCURVE",
"325 371 CURVE SMOOTH",
"341 330 LINE",
"213 0 LINE",
"300 0 LINE",
"383 225 LINE",
"472 0 LINE",
"561 0 LINE",
"318 600 LINE",
"247 600 LINE",
"5 0 LINE"
);
}
);
vertWidth = 0;
width = 565;
}
);
leftKerningGroup = uni10CE4;
rightKerningGroup = uni10CE4;
note = "";
unicode = 10CCD;
},
{
glyphname = uni10CD6_10CC9;
layers = (
{
layerId = "1726D991-AB6C-46C4-B949-411F6BDA7822";
paths = (
{
closed = 1;
nodes = (
"266 -2 LINE",
"217 59 LINE",
"269 103 OFFCURVE",
"310 158 OFFCURVE",
"341 226 CURVE SMOOTH",
"376 303 OFFCURVE",
"390 368 OFFCURVE",
"392 426 CURVE",
"403 401 OFFCURVE",
"417 374 OFFCURVE",
"431 350 CURVE SMOOTH",
"452 315 LINE",
"294 0 LINE",
"381 0 LINE",
"499 238 LINE",
"538 172 LINE",
"453 0 LINE",
"538 0 LINE",
"583 98 LINE",
"642 0 LINE",
"744 0 LINE",
"441 507 LINE",
"530 547 LINE",
"499 613 LINE",
"404 570 LINE",
"386 600 LINE",
"299 600 LINE",
"308 578 OFFCURVE",
"313 555 OFFCURVE",
"316 531 CURVE",
"195 477 LINE",
"232 414 LINE",
"319 453 LINE",
"315 384 OFFCURVE",
"294 315 OFFCURVE",
"267 255 CURVE SMOOTH",
"242 199 OFFCURVE",
"209 154 OFFCURVE",
"168 119 CURVE",
"115 185 LINE",
"57 140 LINE",
"108 76 LINE",
"85 63 OFFCURVE",
"59 51 OFFCURVE",
"32 42 CURVE",
"62 -24 LINE",
"96 -13 OFFCURVE",
"127 1 OFFCURVE",
"156 17 CURVE",
"212 -53 LINE"
);
}
);
vertWidth = 0;
width = 748;
}
);
leftKerningGroup = ge;
rightKerningGroup = uni10CE4;
note = "";
},
{
glyphname = uni10CCF_10CDB;
layers = (
{
layerId = "1726D991-AB6C-46C4-B949-411F6BDA7822";
paths = (
{
closed = 1;
nodes = (
"345 115 LINE",
"472 0 LINE",
"579 0 LINE",
"400 164 LINE",
"563 311 LINE",
"401 445 LINE",
"581 600 LINE",
"473 600 LINE",
"345 491 LINE",
"194 621 LINE",
"39 497 LINE",
"87 437 LINE",
"195 526 LINE",
"290 445 LINE",
"127 311 LINE",
"290 164 LINE",
"191 73 LINE",
"87 159 LINE",
"39 99 LINE",
"194 -25 LINE"
);
},
{
closed = 1;
nodes = (
"242 310 LINE",
"345 397 LINE",
"450 310 LINE",
"345 215 LINE"
);
}
);
vertWidth = 0;
width = 621;
}
);
note = "";
},
{
glyphname = uni10C9C.ltr;
layers = (
{
layerId = "1726D991-AB6C-46C4-B949-411F6BDA7822";
paths = (
{
closed = 1;
nodes = (
"621 244 LINE",
"417 469 LINE",
"357 406 LINE",
"500 252 LINE",
"339 91 LINE",
"222 198 OFFCURVE",
"176 290 OFFCURVE",
"176 413 CURVE SMOOTH",
"176 554 OFFCURVE",
"232 646 OFFCURVE",
"407 794 CURVE",
"347 869 LINE",
"151 702 OFFCURVE",
"79 580 OFFCURVE",
"79 413 CURVE SMOOTH",
"79 238 OFFCURVE",
"167 119 OFFCURVE",
"347 -24 CURVE"
);
}
);
vertWidth = 0;
width = 658;
}
);
rightKerningGroup = uni10C99;
note = "";
},
{
glyphname = uni10CEE_10CC0.ltr;
layers = (
{
layerId = "1726D991-AB6C-46C4-B949-411F6BDA7822";
paths = (
{
closed = 1;
nodes = (
"180 0 LINE",
"180 499 LINE",
"331 394 LINE",
"482 499 LINE",
"482 0 LINE",
"567 0 LINE",
"567 289 LINE",
"797 300 LINE",
"797 409 LINE",
"599 600 LINE",
"490 600 LINE",
"331 486 LINE",
"174 600 LINE",
"95 600 LINE",
"95 0 LINE"
);
},
{
closed = 1;
nodes = (
"567 523 LINE",
"721 373 LINE",
"567 366 LINE"
);
}
);
vertWidth = 0;
width = 829;
}
);
leftKerningGroup = uni10CC0;
note = "";
},
{
glyphname = uni10C85;
layers = (
{
layerId = "1726D991-AB6C-46C4-B949-411F6BDA7822";
paths = (
{
closed = 1;
nodes = (
"347 0 LINE",
"596 223 LINE",
"537 287 LINE",
"355 124 LINE",
"355 725 LINE",
"537 562 LINE",
"589 626 LINE",
"347 849 LINE",
"273 849 LINE",
"31 626 LINE",
"83 562 LINE",
"265 725 LINE",
"265 124 LINE",
"83 287 LINE",
"24 223 LINE",
"273 0 LINE"
);
}
);
vertWidth = 0;
width = 620;
}
);
note = "";
unicode = 10C85;
},
{
glyphname = uni10CE5;
layers = (
{
layerId = "1726D991-AB6C-46C4-B949-411F6BDA7822";
paths = (
{
closed = 1;
nodes = (
"182 0 LINE",
"182 600 LINE",
"95 600 LINE",
"95 0 LINE"
);
}
);
vertWidth = 0;
width = 277;
}
);
note = "";
unicode = 10CE5;
},
{
glyphname = uni10CA2.ltr;
layers = (
{
layerId = "1726D991-AB6C-46C4-B949-411F6BDA7822";
paths = (
{
closed = 1;
nodes = (
"219 0 LINE",
"219 507 LINE",
"612 249 LINE",
"612 0 LINE",
"702 0 LINE",
"702 849 LINE",
"612 849 LINE",
"612 343 LINE",
"219 606 LINE",
"219 849 LINE",
"129 849 LINE",
"129 0 LINE"
);
}
);
vertWidth = 0;
width = 832;
}
);
note = "";
},
